<svg width="24" height="24" viewBox="0 0 24 24" fill="none" xmlns="http://www.w3.org/2000/svg">
<path d="M7 13C8.15216 13 8.86411 13.819 9.10319 14.4996C10.0447 17.1798 13.9553 17.1798 14.8968 14.4996C15.1359 13.819 15.8478 13 17 13H21L21 19C21 20.1046 20.1046 21 19 21H5C3.89543 21 3 20.1046 3 19V13H7Z" fill="#A0ADB7"/>
<circle cx="9" cy="9" r="2" fill="#16A730"/>
<circle cx="12" cy="4" r="2" fill="#A0ADB7"/>
<circle cx="7" cy="4" r="2" fill="#F46050"/>
<circle cx="17" cy="4" r="2" fill="#0098E3"/>
<circle cx="15" cy="9" r="2" fill="#FCBB2D"/>
<circle cx="12" cy="13" r="2" fill="#0098E3"/>
<path d="M18 9.53906C18.1376 9.61852 18.2723 9.70374 18.4004 9.7998L20.4004 11.2998C21.4075 12.0552 22 13.241 22 14.5V18C22 20.2091 20.2091 22 18 22H6C3.79086 22 2 20.2091 2 18V14.5C2 13.241 2.59248 12.0552 3.59961 11.2998L5.59961 9.7998C5.72769 9.70374 5.86245 9.61852 6 9.53906V12L4.7998 12.9004C4.29638 13.2781 4 13.8706 4 14.5V18C4 19.1046 4.89543 20 6 20H18C19.1046 20 20 19.1046 20 18V14.5C20 13.8706 19.7036 13.2781 19.2002 12.9004L18 12V9.53906Z" fill="#A0ADB7"/>
</svg>
