<svg width="24" height="24" viewBox="0 0 24 24" fill="none" xmlns="http://www.w3.org/2000/svg">
<path fill-rule="evenodd" clip-rule="evenodd" d="M6.34319 6.34323C6.73371 5.95271 7.36688 5.95271 7.7574 6.34323L12 10.5859L16.2427 6.34319C16.6332 5.95266 17.2664 5.95266 17.6569 6.34319C18.0474 6.73371 18.0474 7.36688 17.6569 7.7574L13.4142 12.0001L17.6569 16.2427C18.0474 16.6333 18.0474 17.2664 17.6569 17.6569C17.2664 18.0475 16.6332 18.0475 16.2427 17.6569L12 13.4143L7.75736 17.6569C7.36684 18.0475 6.73367 18.0475 6.34315 17.6569C5.95262 17.2664 5.95262 16.6332 6.34315 16.2427L10.5858 12.0001L6.34319 7.75745C5.95266 7.36692 5.95266 6.73376 6.34319 6.34323Z" fill="#22262A"/>
</svg>
