<svg width="24" height="24" viewBox="0 0 24 24" fill="none" xmlns="http://www.w3.org/2000/svg">
<path d="M11.1318 1.51953C11.5157 0.847726 12.4843 0.84772 12.8682 1.51953L23.1455 19.5039C23.5263 20.1705 23.0441 21 22.2764 21H1.72363C0.955876 21 0.473725 20.1705 0.854492 19.5039L11.1318 1.51953ZM12 16C11.4478 16 11.0001 16.4478 11 17C11 17.5523 11.4477 18 12 18C12.5523 18 13 17.5523 13 17C12.9999 16.4478 12.5522 16 12 16ZM12 9C11.4477 9 11 9.44774 11 10V14C11 14.5523 11.4477 15 12 15C12.5523 15 13 14.5523 13 14V10C13 9.44774 12.5523 9 12 9Z" fill="#F46050"/>
</svg>
