<svg width="16" height="16" viewBox="0 0 16 16" fill="none" xmlns="http://www.w3.org/2000/svg">
<rect x="7.33301" y="0.666748" width="1.33333" height="6" rx="0.666667" fill="white"/>
<path d="M4.66667 8.66675C5.43477 8.66675 5.9094 9.21278 6.06879 9.66649C6.69648 11.4533 9.30351 11.4533 9.93121 9.66649C10.0906 9.21278 10.5652 8.66675 11.3333 8.66675H14L14 12.0001C14 13.1046 13.1046 14.0001 12 14.0001H4C2.89543 14.0001 2 13.1046 2 12.0001V8.66675H4.66667Z" fill="white"/>
<path d="M11.8203 6.26562C11.9763 6.34053 12.1266 6.42826 12.2666 6.5332L13.6006 7.5332C14.2719 8.03683 14.667 8.82777 14.667 9.66699V12C14.667 13.4728 13.4728 14.667 12 14.667H4C2.52724 14.667 1.33301 13.4728 1.33301 12V9.66699C1.33301 8.82777 1.72812 8.03683 2.39941 7.5332L3.7334 6.5332C3.87311 6.42844 4.02301 6.34045 4.17871 6.26562C4.0475 6.67646 4.10927 7.15124 4.4375 7.53418L4.50879 7.61816L3.2002 8.60059C2.86458 8.8524 2.66699 9.2474 2.66699 9.66699V12C2.66699 12.7364 3.26362 13.333 4 13.333H12C12.7364 13.333 13.333 12.7364 13.333 12V9.66699C13.333 9.2474 13.1354 8.8524 12.7998 8.60059L11.4902 7.61816L11.5625 7.53418C11.8908 7.15115 11.9516 6.67652 11.8203 6.26562Z" fill="white"/>
<path d="M5.46705 7.02162L7.58029 9.78389C7.80073 10.072 8.19862 10.072 8.41906 9.78389L10.5323 7.02162C10.8394 6.62018 10.5848 6 10.1129 6H5.88644C5.41453 6 5.15993 6.62018 5.46705 7.02162Z" fill="white"/>
</svg>
