<svg width="20" height="20" viewBox="0 0 20 20" fill="none" xmlns="http://www.w3.org/2000/svg">
<path fill-rule="evenodd" clip-rule="evenodd" d="M10.0003 0.833313C10.4606 0.833313 10.8337 1.20641 10.8337 1.66665V3.33331C10.8337 3.79355 10.4606 4.16665 10.0003 4.16665C9.54009 4.16665 9.16699 3.79355 9.16699 3.33331V1.66665C9.16699 1.20641 9.54009 0.833313 10.0003 0.833313Z" fill="#A0ADB7"/>
<path fill-rule="evenodd" clip-rule="evenodd" d="M2.87117 3.05673C3.25411 2.80144 3.7715 2.90492 4.0268 3.28786L4.86013 4.53786C5.11542 4.9208 5.01195 5.43819 4.62901 5.69348C4.24606 5.94878 3.72867 5.8453 3.47338 5.46236L2.64005 4.21236C2.38475 3.82942 2.48823 3.31203 2.87117 3.05673Z" fill="#A0ADB7"/>
<path fill-rule="evenodd" clip-rule="evenodd" d="M17.129 3.05673C17.5119 3.31203 17.6154 3.82942 17.3601 4.21236L16.5268 5.46236C16.2715 5.8453 15.7541 5.94878 15.3712 5.69348C14.9882 5.43819 14.8848 4.9208 15.14 4.53786L15.9734 3.28786C16.2287 2.90492 16.7461 2.80144 17.129 3.05673Z" fill="#A0ADB7"/>
<path d="M5.83333 10.8333C6.79346 10.8333 7.38676 11.5158 7.58599 12.083C8.3706 14.3165 11.6294 14.3165 12.414 12.083C12.6132 11.5158 13.2065 10.8333 14.1667 10.8333H17.5L17.5 15.8333C17.5 16.7538 16.7538 17.5 15.8333 17.5H4.16667C3.24619 17.5 2.5 16.7538 2.5 15.8333V10.8333H5.83333Z" fill="#A0ADB7"/>
<path d="M16.667 12.0833C16.667 11.5588 16.42 11.0651 16.0005 10.7503L14.3338 9.50033C14.0453 9.28396 13.6943 9.16667 13.3337 9.16667H6.66699C6.30637 9.16667 5.95532 9.28396 5.66683 9.50033L4.00016 10.7503C3.58064 11.0651 3.33366 11.5588 3.33366 12.0833V15C3.33366 15.9205 4.07985 16.6667 5.00033 16.6667H15.0003C15.9208 16.6667 16.667 15.9205 16.667 15V12.0833ZM18.3337 15C18.3337 16.8409 16.8413 18.3333 15.0003 18.3333H5.00033C3.15938 18.3333 1.66699 16.8409 1.66699 15V12.0833C1.66699 11.0342 2.16073 10.046 3 9.4165L4.66667 8.1665C5.24365 7.73376 5.94576 7.5 6.66699 7.5H13.3337C14.0549 7.5 14.757 7.73376 15.334 8.1665L17.0007 9.4165C17.8399 10.046 18.3337 11.0342 18.3337 12.0833V15Z" fill="#A0ADB7"/>
</svg>
