<svg width="20" height="20" viewBox="0 0 20 20" fill="none" xmlns="http://www.w3.org/2000/svg">
<g clip-path="url(#clip0_1666_25397)">
<path d="M16.333 1.66699C17.4376 1.66699 18.333 2.56242 18.333 3.66699V14.333C18.333 16.5421 16.5421 18.333 14.333 18.333H3.33301V3.66699C3.33301 2.56253 4.22859 1.66717 5.33301 1.66699H16.333ZM5.83301 10C5.37303 10.0002 5.00018 10.373 5 10.833C5 11.2931 5.37292 11.6668 5.83301 11.667H8.33301C8.79325 11.667 9.16699 11.2932 9.16699 10.833C9.16682 10.3729 8.79314 10 8.33301 10H5.83301ZM5.83301 6.66699C5.37292 6.66717 5 7.03987 5 7.5C5 7.96013 5.37292 8.33283 5.83301 8.33301H14.167C14.6271 8.33283 15 7.96013 15 7.5C15 7.03987 14.6271 6.66717 14.167 6.66699H5.83301ZM5.83301 3.33301C5.37292 3.33318 5 3.70686 5 4.16699C5.00018 4.62697 5.37303 4.99982 5.83301 5H12.5C12.9601 5 13.3328 4.62708 13.333 4.16699C13.333 3.70675 12.9602 3.33301 12.5 3.33301H5.83301Z" fill="#15892B"/>
<path d="M12.1663 15H0.833008C0.833008 17.6667 2.7219 18.3333 3.66634 18.3333H14.9997C12.733 18.3333 12.1663 16.1111 12.1663 15Z" fill="#1E6392"/>
<circle cx="12" cy="12" r="10.95" stroke="#FF0000" stroke-opacity="0.1" stroke-width="0.1"/>
<rect x="2.05" y="2.05" width="19.9" height="19.9" rx="3.95" stroke="#FF0000" stroke-opacity="0.1" stroke-width="0.1"/>
<rect x="1.05" y="3.05" width="21.9" height="17.9" rx="3.95" stroke="#FF0000" stroke-opacity="0.1" stroke-width="0.1"/>
<rect x="3.05" y="1.05" width="17.9" height="21.9" rx="3.95" stroke="#FF0000" stroke-opacity="0.1" stroke-width="0.1"/>
</g>
<defs>
<clipPath id="clip0_1666_25397">
<rect width="20" height="20" fill="white"/>
</clipPath>
</defs>
</svg>
