<svg width="163" height="17" viewBox="0 0 163 17" fill="none" xmlns="http://www.w3.org/2000/svg">
<path d="M15.1377 8.49686C15.4089 9.46684 15.4227 10.4936 15.1787 11.4693C15.7 10.6005 16 9.58377 16 8.49686C16 7.40995 15.7 6.39319 15.1787 5.52441C15.4227 6.50014 15.4089 7.52687 15.1377 8.49686Z" fill="#1FBAE5"/>
<path d="M13.0439 3.44727C13.4874 4.23475 13.7518 5.13634 13.7819 6.09712C14.4402 6.79779 14.8909 7.62222 15.1343 8.49255C15.4055 7.52256 15.4193 6.49582 15.1752 5.52016C14.6577 4.65772 13.9218 3.94139 13.0439 3.44727Z" fill="#1FBAE5"/>
<path d="M11.7804 4.70719C12.4616 4.98952 13.0999 5.40725 13.6538 5.961C13.6975 6.00462 13.74 6.04902 13.782 6.0937C13.7519 5.13292 13.4875 4.23133 13.044 3.44384C12.2564 3.00046 11.3546 2.73617 10.3936 2.70605C10.4382 2.74803 10.4826 2.79055 10.5263 2.83423C11.0802 3.38797 11.498 4.02615 11.7804 4.70719Z" fill="#1FBAE5"/>
<path d="M7.99805 3.14386C8.64918 3.41329 9.2404 3.79804 9.74627 4.27269C10.4398 4.2947 11.1299 4.44058 11.7809 4.71039C11.4985 4.02935 11.0807 3.39117 10.5268 2.83743C10.4831 2.79375 10.4387 2.75123 10.394 2.70925C10.3327 2.70732 10.2713 2.70605 10.2095 2.70605C9.4262 2.70605 8.67941 2.86192 7.99805 3.14386Z" fill="#1FBAE5"/>
<path d="M7.99823 4.48136C8.56865 4.32191 9.15866 4.25148 9.74645 4.27012C9.24058 3.79541 8.64936 3.41066 7.99823 3.14124C7.3471 3.41066 6.75588 3.79541 6.25 4.27012C6.8378 4.25148 7.42781 4.32191 7.99823 4.48136Z" fill="#1FBAE5"/>
<path d="M5.16309 5.65677C5.60547 5.40775 6.08381 5.21521 6.58853 5.08897C7.03472 4.82142 7.50915 4.61939 7.99809 4.48272C7.42767 4.32327 6.83767 4.25284 6.24987 4.27148C5.82106 4.67383 5.45365 5.14076 5.16309 5.65677Z" fill="#1FBAE5"/>
<path d="M5.55871 5.87639C5.87795 5.57051 6.22363 5.30842 6.58817 5.08984C6.08345 5.21615 5.6051 5.40869 5.16272 5.65765C4.91364 6.09998 4.72106 6.57822 4.59473 7.08282C4.81335 6.71836 5.0755 6.37277 5.38146 6.0536C5.4385 5.99249 5.49758 5.93336 5.55871 5.87639Z" fill="#1FBAE5"/>
<path d="M5.38413 6.05627C5.07818 6.37545 4.81597 6.72104 4.5974 7.08549C4.49424 7.49755 4.43521 7.92708 4.42578 8.36886C4.45667 7.47609 4.81482 6.66655 5.38413 6.05627Z" fill="#1FBAE5"/>
<path d="M13.0471 3.45209C13.9249 3.94621 14.6607 4.66255 15.1783 5.52498C14.9325 4.54204 14.4256 3.61104 13.6568 2.84248C12.888 2.07391 11.9568 1.56705 10.9736 1.32129C11.8363 1.83874 12.5528 2.57443 13.047 3.45209" fill="#0ED2D7"/>
<path d="M7.99805 1.35837C8.86857 1.60171 9.6932 2.05232 10.394 2.71041C11.355 2.74052 12.2568 3.00487 13.0446 3.4482C12.5503 2.57054 11.8338 1.83485 10.9712 1.3174C9.99524 1.07345 8.96826 1.08718 7.99805 1.35837Z" fill="#0ED2D7"/>
<path d="M7.99755 3.15639C8.67892 2.87445 9.42571 2.71859 10.209 2.71859C10.2708 2.71859 10.3323 2.71985 10.3935 2.72178C9.69271 2.06369 8.86808 1.61309 7.99755 1.36975C7.12703 1.61309 6.3024 2.06369 5.60156 2.72178C5.66285 2.71985 5.72431 2.71859 5.78609 2.71859C6.5694 2.71859 7.31619 2.87445 7.99755 3.15639Z" fill="#0ED2D7"/>
<path d="M4.21582 4.71039C4.86679 4.44058 5.55697 4.2947 6.25042 4.27269C6.75629 3.79798 7.34751 3.41329 7.99864 3.14386C7.31728 2.86192 6.57049 2.70605 5.78718 2.70605C5.72545 2.70605 5.66394 2.70732 5.60265 2.70925C5.55797 2.75123 5.51356 2.79375 5.46992 2.83743C4.91605 3.39117 4.49822 4.02935 4.21582 4.71039Z" fill="#0ED2D7"/>
<path d="M5.16296 5.67008C5.45352 5.15406 5.82093 4.68714 6.24974 4.28479C5.5563 4.30674 4.86611 4.45268 4.21515 4.72249C3.94527 5.3733 3.7993 6.06333 3.77734 6.75661C4.17978 6.3279 4.64682 5.96057 5.16296 5.67008Z" fill="#0ED2D7"/>
<path d="M3.99156 8.5039C4.12826 8.01507 4.33034 7.54075 4.59789 7.09467C4.72423 6.59007 4.91681 6.11183 5.16589 5.66956C4.64975 5.96005 4.18271 6.32737 3.78027 6.75608C3.76162 7.34374 3.83207 7.93361 3.99156 8.5039Z" fill="#0ED2D7"/>
<path d="M4.4235 8.49614C4.4235 8.45401 4.42449 8.41209 4.42592 8.37028C4.43536 7.9285 4.49438 7.49897 4.59755 7.08691C4.32999 7.533 4.12791 8.00732 3.99121 8.49614C4.12791 8.98497 4.32999 9.45929 4.59755 9.90537C4.49438 9.49332 4.43536 9.06378 4.42592 8.622C4.42449 8.5802 4.4235 8.53828 4.4235 8.49614Z" fill="#0ED2D7"/>
<path d="M4.42578 8.61682C4.43521 9.0586 4.49424 9.48814 4.5974 9.90019C4.81603 10.2647 5.07818 10.6103 5.38413 10.9294C4.81482 10.3192 4.45667 9.50965 4.42578 8.61682Z" fill="#0ED2D7"/>
<path d="M15.1783 11.4673C14.6607 12.3297 13.9248 13.0461 13.047 13.5402C12.5527 14.4178 11.8363 15.1535 10.9736 15.6709C11.9568 15.4252 12.888 14.9183 13.6567 14.1498C14.4255 13.3812 14.9324 12.4502 15.1783 11.4673Z" fill="#25B1EA"/>
<path d="M15.1382 8.50378C14.8948 9.37411 14.4441 10.1985 13.7858 10.8992C13.7557 11.86 13.4913 12.7616 13.0479 13.5491C13.9257 13.055 14.6616 12.3387 15.1792 11.4762C15.4232 10.5005 15.4094 9.47377 15.1382 8.50378Z" fill="#25B1EA"/>
<path d="M13.3496 8.49992C13.6316 9.18112 13.7875 9.92774 13.7875 10.7109C13.7875 10.7726 13.7863 10.8341 13.7843 10.8953C14.4426 10.1947 14.8933 9.37024 15.1367 8.49992C14.8933 7.6296 14.4426 6.80516 13.7843 6.10449C13.7863 6.16577 13.7875 6.22721 13.7875 6.28898C13.7875 7.07211 13.6316 7.81872 13.3496 8.49992Z" fill="#25B1EA"/>
<path d="M11.7832 4.71936C12.0531 5.37017 12.199 6.0602 12.221 6.75348C12.6958 7.25924 13.0806 7.85032 13.3501 8.50129C13.6321 7.82009 13.788 7.07348 13.788 6.29035C13.788 6.22864 13.7867 6.16714 13.7848 6.10587C13.7428 6.06119 13.7003 6.01679 13.6566 5.97317C13.1027 5.41942 12.4644 5.00169 11.7832 4.71936Z" fill="#25B1EA"/>
<path d="M10.8319 5.67008C11.348 5.96057 11.815 6.3279 12.2175 6.75661C12.1955 6.06333 12.0496 5.3733 11.7797 4.72249C11.1287 4.45268 10.4386 4.30674 9.74512 4.28479C10.1739 4.68714 10.5413 5.15406 10.8319 5.67008Z" fill="#25B1EA"/>
<path d="M7.99805 4.48272C8.48699 4.61939 8.96142 4.82142 9.40761 5.08891C9.91232 5.21521 10.3907 5.40775 10.8331 5.65677C10.5425 5.14076 10.1751 4.67383 9.74627 4.27148C9.15847 4.25284 8.56847 4.32327 7.99805 4.48272Z" fill="#25B1EA"/>
<path d="M7.99745 4.92632C8.0396 4.92632 8.08152 4.92732 8.12334 4.92875C8.56522 4.93818 8.99486 4.9972 9.40701 5.10033C8.96082 4.83284 8.48639 4.63081 7.99745 4.49414C7.50851 4.63081 7.03408 4.83284 6.58789 5.10033C7.00004 4.9972 7.42968 4.93818 7.87156 4.92875C7.91338 4.92732 7.9553 4.92632 7.99745 4.92632Z" fill="#25B1EA"/>
<path d="M7.87466 4.92871C7.43277 4.93814 7.00313 4.99716 6.59099 5.10029C6.22639 5.31887 5.88077 5.58096 5.56152 5.88684C6.17194 5.31765 6.98167 4.9596 7.87466 4.92871Z" fill="#25B1EA"/>
<path d="M7.99853 15.6379C7.02832 15.9091 6.00134 15.9229 5.02539 15.6789C5.89437 16.2001 6.91137 16.5 7.99853 16.5C9.0857 16.5 10.1027 16.2001 10.9717 15.6789C9.99573 15.9229 8.96875 15.9091 7.99853 15.6379Z" fill="#2DA5F2"/>
<path d="M13.0446 13.5444C12.2569 13.9878 11.3551 14.2521 10.3941 14.2822C9.69326 14.9403 8.86863 15.3909 7.99805 15.6343C8.96832 15.9055 9.9953 15.9192 10.9712 15.6752C11.8338 15.1578 12.5503 14.4221 13.0446 13.5444" fill="#2DA5F2"/>
<path d="M13.6538 11.02C13.0999 11.5737 12.4616 11.9914 11.7804 12.2738C11.4979 12.9548 11.0802 13.593 10.5263 14.1467C10.4826 14.1904 10.4382 14.2329 10.3936 14.2749C11.3546 14.2448 12.2564 13.9804 13.0441 13.5371C13.4875 12.7496 13.7519 11.848 13.782 10.8872C13.74 10.9319 13.6975 10.9763 13.6538 11.02Z" fill="#2DA5F2"/>
<path d="M13.3501 8.50378C13.0806 9.15476 12.6958 9.74584 12.221 10.2516C12.199 10.9449 12.0531 11.6349 11.7832 12.2857C12.4644 12.0034 13.1027 11.5857 13.6566 11.032C13.7003 10.9883 13.7428 10.9439 13.7848 10.8992C13.7867 10.8379 13.788 10.7765 13.788 10.7147C13.788 9.9316 13.6321 9.18499 13.3501 8.50378Z" fill="#2DA5F2"/>
<path d="M12.0088 8.49647C12.1683 9.06676 12.2387 9.65663 12.2201 10.2443C12.6949 9.73853 13.0797 9.14745 13.3492 8.49647C13.0797 7.8455 12.6949 7.25442 12.2201 6.74866C12.2387 7.33632 12.1683 7.92619 12.0088 8.49647Z" fill="#2DA5F2"/>
<path d="M10.833 5.66956C11.0821 6.11183 11.2747 6.59007 11.4009 7.09467C11.6686 7.54075 11.8706 8.01507 12.0073 8.5039C12.1668 7.93361 12.2373 7.34374 12.2186 6.75608C11.8161 6.32737 11.3491 5.96005 10.833 5.66956Z" fill="#2DA5F2"/>
<path d="M10.6139 6.0536C10.9199 6.37277 11.182 6.71836 11.4007 7.08282C11.2743 6.57822 11.0818 6.09998 10.8327 5.6577C10.3903 5.40869 9.91194 5.21615 9.40723 5.08984C9.77177 5.30842 10.1174 5.57051 10.4367 5.87639C10.4978 5.93342 10.557 5.99249 10.6139 6.0536Z" fill="#2DA5F2"/>
<path d="M10.4401 5.88684C10.1208 5.58096 9.77516 5.31887 9.41062 5.10029C8.99847 4.99716 8.56884 4.93814 8.12695 4.92871C9.01993 4.9596 9.82967 5.31765 10.4401 5.88684Z" fill="#2DA5F2"/>
<path d="M0.862308 8.49686C0.591054 7.52687 0.577318 6.50014 0.821319 5.52441C0.299996 6.39319 0 7.40995 0 8.49686C0 9.58377 0.299996 10.6005 0.821319 11.4693C0.577318 10.4936 0.591054 9.46684 0.862308 8.49686Z" fill="#1FBAE5"/>
<path d="M2.95303 13.5491C2.5096 12.7616 2.24519 11.86 2.21507 10.8992C1.55682 10.1985 1.10611 9.37411 0.862717 8.50378C0.591408 9.47377 0.577727 10.5005 0.821728 11.4762C1.3393 12.3386 2.07517 13.0549 2.95303 13.5491Z" fill="#1FBAE5"/>
<path d="M4.21645 12.2737C3.53525 11.9914 2.89692 11.5736 2.34305 11.0199C2.29936 10.9763 2.25683 10.9319 2.21484 10.8872C2.24496 11.848 2.50932 12.7496 2.95281 13.5371C3.74047 13.9804 4.64228 14.2447 5.60328 14.2748C5.5586 14.2329 5.51419 14.1904 5.47055 14.1467C4.91668 13.5929 4.49885 12.9547 4.21645 12.2737Z" fill="#1FBAE5"/>
<path d="M7.99864 13.8389C7.34751 13.5694 6.75629 13.1847 6.25042 12.71C5.55692 12.688 4.86679 12.5422 4.21582 12.2723C4.49822 12.9534 4.91599 13.5916 5.46987 14.1453C5.51356 14.189 5.55797 14.2315 5.60265 14.2735C5.66394 14.2754 5.7254 14.2767 5.78718 14.2767C6.57049 14.2767 7.31728 14.1208 7.99864 13.8389Z" fill="#1FBAE5"/>
<path d="M7.99823 12.4976C7.42781 12.657 6.8378 12.7274 6.25 12.7088C6.75588 13.1835 7.3471 13.5683 7.99823 13.8377C8.64936 13.5683 9.24058 13.1835 9.74645 12.7088C9.15866 12.7274 8.56865 12.657 7.99823 12.4976Z" fill="#1FBAE5"/>
<path d="M10.8331 11.3384C10.3907 11.5874 9.91232 11.7799 9.40761 11.9062C8.96142 12.1737 8.48699 12.3758 7.99805 12.5124C8.56847 12.6719 9.15847 12.7423 9.74627 12.7237C10.1751 12.3213 10.5425 11.8544 10.8331 11.3384Z" fill="#1FBAE5"/>
<path d="M10.6139 10.9341C10.5569 10.9952 10.4978 11.0543 10.4367 11.1113C10.1174 11.4172 9.77177 11.6793 9.40723 11.8979C9.91189 11.7716 10.3903 11.579 10.8327 11.33C11.0818 10.8877 11.2743 10.4095 11.4006 9.90491C11.182 10.2694 10.9198 10.615 10.6139 10.9341" fill="#1FBAE5"/>
<path d="M10.6152 10.9294C10.9211 10.6102 11.1833 10.2646 11.4019 9.90019C11.5051 9.48808 11.5641 9.0586 11.5735 8.61682C11.5427 9.50959 11.1845 10.3191 10.6152 10.9294Z" fill="#1FBAE5"/>
<path d="M2.95259 3.45209C3.44683 2.57443 4.16333 1.83874 5.02597 1.32129C4.04279 1.56705 3.11158 2.07391 2.34284 2.84248C1.57409 3.61104 1.06711 4.54204 0.821289 5.52498C1.33886 4.66255 2.07473 3.94621 2.95259 3.45209Z" fill="#19C2E0"/>
<path d="M0.862697 8.49255C1.10609 7.62222 1.5568 6.79779 2.21505 6.09712C2.24517 5.13634 2.50958 4.23475 2.95301 3.44727C2.07515 3.94133 1.33928 4.65767 0.821709 5.5201C0.577707 6.49582 0.591444 7.52256 0.862697 8.49255Z" fill="#19C2E0"/>
<path d="M2.64839 8.49992C2.36638 7.81872 2.21048 7.07211 2.21048 6.28898C2.21048 6.22721 2.21175 6.16577 2.21368 6.10449C1.55543 6.80516 1.10472 7.6296 0.861328 8.49992C1.10472 9.37024 1.55543 10.1947 2.21368 10.8953C2.21175 10.8341 2.21048 10.7726 2.21048 10.7109C2.21048 9.92774 2.36638 9.18112 2.64839 8.49992Z" fill="#19C2E0"/>
<path d="M4.21574 12.2857C3.94587 11.6349 3.79995 10.9449 3.77794 10.2516C3.30312 9.74584 2.91834 9.15476 2.64885 8.50378C2.36684 9.18499 2.21094 9.9316 2.21094 10.7147C2.21094 10.7764 2.21221 10.8379 2.21414 10.8992C2.25612 10.9439 2.29865 10.9883 2.34234 11.0319C2.89622 11.5857 3.53455 12.0034 4.21574 12.2857Z" fill="#19C2E0"/>
<path d="M5.16296 11.3296C4.64682 11.0391 4.17978 10.6718 3.77734 10.243C3.7993 10.9363 3.94527 11.6263 4.21515 12.2772C4.86611 12.547 5.5563 12.6929 6.24974 12.7149C5.82093 12.3125 5.45352 11.8456 5.16296 11.3296Z" fill="#19C2E0"/>
<path d="M7.99809 12.5124C7.50915 12.3758 7.03472 12.1737 6.58853 11.9062C6.08381 11.7799 5.60547 11.5874 5.16309 11.3384C5.45365 11.8544 5.82106 12.3213 6.24987 12.7237C6.83767 12.7423 7.42767 12.6719 7.99809 12.5124Z" fill="#19C2E0"/>
<path d="M7.99745 12.0759C7.9553 12.0759 7.91343 12.0749 7.87162 12.0734C7.42973 12.064 7.00009 12.005 6.58789 11.9019C7.03408 12.1693 7.50851 12.3714 7.99745 12.508C8.48639 12.3714 8.96082 12.1693 9.40701 11.9019C8.99481 12.005 8.56517 12.064 8.12329 12.0734C8.08147 12.0749 8.0396 12.0759 7.99745 12.0759Z" fill="#19C2E0"/>
<path d="M8.12695 12.071C8.56884 12.0615 8.99847 12.0025 9.41068 11.8994C9.77527 11.6808 10.1209 11.4187 10.4402 11.1128C9.82978 11.682 9.01999 12.0401 8.12695 12.071Z" fill="#19C2E0"/>
<path d="M2.95259 13.5402C2.07473 13.0461 1.33886 12.3297 0.821289 11.4673C1.06711 12.4502 1.57409 13.3812 2.34284 14.1498C3.11158 14.9184 4.04279 15.4252 5.02597 15.671C4.16333 15.1535 3.44683 14.4178 2.95259 13.5402Z" fill="#25B1EA"/>
<path d="M7.99862 15.6343C7.12809 15.3909 6.30346 14.9403 5.60262 14.2822C4.64162 14.2521 3.73982 13.9878 2.95215 13.5444C3.44633 14.4221 4.16283 15.1578 5.02547 15.6752C6.00142 15.9192 7.0284 15.9054 7.99862 15.6343Z" fill="#25B1EA"/>
<path d="M7.99755 13.8508C7.31619 14.1328 6.5694 14.2886 5.78609 14.2886C5.72431 14.2886 5.66285 14.2874 5.60156 14.2854C6.3024 14.9435 7.12703 15.3941 7.99755 15.6375C8.86808 15.3941 9.69271 14.9435 10.3935 14.2854C10.3323 14.2874 10.2708 14.2886 10.209 14.2886C9.42571 14.2886 8.67892 14.1328 7.99755 13.8508Z" fill="#25B1EA"/>
<path d="M11.7809 12.2723C11.1299 12.5422 10.4397 12.688 9.74627 12.71C9.2404 13.1847 8.64918 13.5694 7.99805 13.8389C8.67941 14.1208 9.4262 14.2767 10.2095 14.2767C10.2712 14.2767 10.3327 14.2754 10.394 14.2735C10.4387 14.2315 10.4831 14.189 10.5268 14.1453C11.0806 13.5916 11.4985 12.9534 11.7809 12.2723Z" fill="#25B1EA"/>
<path d="M10.8319 11.3296C10.5413 11.8456 10.1739 12.3125 9.74512 12.7149C10.4386 12.6929 11.1287 12.547 11.7797 12.2772C12.0496 11.6263 12.1955 10.9363 12.2175 10.243C11.815 10.6718 11.348 11.0391 10.8319 11.3296Z" fill="#25B1EA"/>
<path d="M12.0073 8.50378C11.8706 8.99261 11.6686 9.46693 11.401 9.91301C11.2747 10.4176 11.0821 10.8958 10.833 11.3381C11.3491 11.0476 11.8162 10.6803 12.2186 10.2516C12.2373 9.66394 12.1668 9.07407 12.0073 8.50378Z" fill="#25B1EA"/>
<path d="M11.5744 8.49614C11.5744 8.53828 11.5734 8.5802 11.572 8.622C11.5626 9.06378 11.5036 9.49332 11.4004 9.90537C11.6679 9.45929 11.87 8.98497 12.0067 8.49614C11.87 8.00732 11.6679 7.533 11.4004 7.08691C11.5036 7.49897 11.5626 7.9285 11.572 8.37028C11.5734 8.41209 11.5744 8.45401 11.5744 8.49614Z" fill="#25B1EA"/>
<path d="M11.5736 8.36886C11.5642 7.92708 11.5051 7.49755 11.402 7.08549C11.1833 6.72098 10.9212 6.37545 10.6152 6.05627C11.1846 6.66655 11.5427 7.47609 11.5736 8.36886Z" fill="#25B1EA"/>
<path d="M7.99853 1.36211C8.96875 1.09092 9.99573 1.07718 10.9717 1.32113C10.1027 0.799925 9.0857 0.5 7.99853 0.5C6.91137 0.5 5.89437 0.799925 5.02539 1.32113C6.00134 1.07718 7.02832 1.09092 7.99853 1.36211Z" fill="#14CADB"/>
<path d="M2.95215 3.44822C3.73982 3.00489 4.64162 2.74054 5.60262 2.71043C6.30346 2.05234 7.12809 1.60173 7.99862 1.35839C7.0284 1.08715 6.00142 1.07347 5.02553 1.31742C4.16289 1.83487 3.44639 2.57056 2.95215 3.44822Z" fill="#14CADB"/>
<path d="M4.21645 4.70719C4.49885 4.02615 4.91668 3.38797 5.47055 2.83423C5.51419 2.79055 5.5586 2.74803 5.60328 2.70605C4.64228 2.73617 3.74047 3.00046 2.95281 3.44384C2.50932 4.23133 2.24496 5.13292 2.21484 6.0937C2.25683 6.04902 2.29936 6.00462 2.34305 5.961C2.89692 5.40725 3.53525 4.98952 4.21645 4.70719Z" fill="#14CADB"/>
<path d="M2.64885 8.50129C2.91834 7.85032 3.30318 7.25924 3.77794 6.75348C3.79995 6.06014 3.94587 5.37017 4.21574 4.71936C3.53449 5.00169 2.89622 5.41937 2.34234 5.97311C2.29865 6.01679 2.25612 6.06119 2.21414 6.10587C2.21221 6.16714 2.21094 6.22858 2.21094 6.29035C2.21094 7.07348 2.36684 7.82009 2.64885 8.50129Z" fill="#14CADB"/>
<path d="M3.98985 8.49647C3.83036 7.92619 3.75992 7.33632 3.77856 6.74866C3.30374 7.25442 2.9189 7.8455 2.64941 8.49647C2.9189 9.14745 3.30374 9.73853 3.77856 10.2443C3.75992 9.65663 3.83036 9.06676 3.98985 8.49647Z" fill="#14CADB"/>
<path d="M5.16589 11.3381C4.91681 10.8958 4.72423 10.4176 4.59795 9.91301C4.33034 9.46693 4.12826 8.99261 3.99156 8.50378C3.83207 9.07407 3.76162 9.66394 3.78027 10.2516C4.18271 10.6803 4.64975 11.0476 5.16589 11.3381Z" fill="#14CADB"/>
<path d="M5.38146 10.9341C5.0755 10.615 4.8133 10.2694 4.59473 9.90491C4.721 10.4095 4.91359 10.8877 5.16267 11.33C5.60505 11.579 6.08345 11.7716 6.58811 11.8979C6.22357 11.6793 5.8779 11.4172 5.55865 11.1113C5.49753 11.0543 5.43844 10.9952 5.38146 10.9341Z" fill="#14CADB"/>
<path d="M5.56152 11.1128C5.88077 11.4187 6.22645 11.6808 6.59099 11.8994C7.00319 12.0025 7.43283 12.0615 7.87476 12.071C6.98173 12.0401 6.17194 11.682 5.56152 11.1128Z" fill="#14CADB"/>
<g opacity="0.5">
<path opacity="0.5" d="M5.56087 5.87891C5.4998 5.93588 5.44072 5.99489 5.38379 6.05595C5.41259 6.02589 5.4416 5.99594 5.47117 5.96632C5.5008 5.93671 5.53081 5.90775 5.56087 5.87891Z" fill="white"/>
<path opacity="0.5" d="M3.57249 13.7312C3.38427 13.6517 3.20161 13.5622 3.02441 13.4637C3.05503 13.5188 3.08637 13.5734 3.11875 13.6273C3.86587 14.016 4.70832 14.2465 5.60196 14.2744C5.56577 14.2404 5.52986 14.2058 5.49427 14.1707C4.82957 14.1373 4.1844 13.99 3.57249 13.7312Z" fill="white"/>
<path opacity="0.5" d="M2.95285 13.5456C2.92179 13.4904 2.89151 13.4347 2.86221 13.3784C2.46496 13.14 2.09794 12.8535 1.76583 12.5214C1.43621 12.1919 1.15139 11.8281 0.914062 11.4344C0.941094 11.5436 0.971656 11.6519 1.00525 11.7595C1.50727 12.4943 2.17423 13.1074 2.95285 13.5456Z" fill="white"/>
<path opacity="0.5" d="M10.6653 5.56112C10.7216 5.59041 10.7773 5.62069 10.8326 5.65174C10.5666 5.17957 10.2365 4.74844 9.8537 4.3703C9.80421 4.36782 9.75478 4.36584 9.70508 4.36462C9.73978 4.39761 9.77415 4.43103 9.80807 4.465C10.1403 4.79703 10.4268 5.16396 10.6653 5.56112" fill="white"/>
<path opacity="0.5" d="M7.87225 3.19896C7.91478 3.1801 7.9577 3.16173 8.00084 3.14392C7.31942 2.86197 6.57264 2.70605 5.78933 2.70605C5.77763 2.70605 5.76605 2.70644 5.75435 2.7065C5.71772 2.73964 5.68137 2.77323 5.64551 2.80743C5.69334 2.80627 5.74133 2.80566 5.78933 2.80566C6.50958 2.80566 7.20953 2.93792 7.87219 3.19896" fill="white"/>
<path opacity="0.5" d="M8.00058 13.7271C7.99976 13.7275 7.99887 13.7278 7.99805 13.7282C8.04075 13.7462 8.08361 13.7638 8.12664 13.7807C8.72718 13.515 9.27388 13.1502 9.74627 12.7069C9.69635 12.7085 9.64648 12.7095 9.59655 12.7098C9.12383 13.1369 8.58822 13.4787 8.00058 13.7271Z" fill="white"/>
<path opacity="0.5" d="M10.8326 11.3215C10.7773 11.3526 10.7216 11.3829 10.6653 11.4121C10.4268 11.8093 10.1402 12.1762 9.80807 12.5083C9.77415 12.5422 9.73978 12.5757 9.70508 12.6087C9.75473 12.6074 9.80421 12.6055 9.85364 12.603C10.2364 12.2248 10.5666 11.7938 10.8325 11.3215" fill="white"/>
<path opacity="0.5" d="M2.86221 3.61388C2.89151 3.55757 2.92179 3.50186 2.95285 3.44666C2.17418 3.88491 1.50727 4.49794 1.00525 5.2328C0.971712 5.34035 0.941094 5.44867 0.914062 5.55782C1.15144 5.16414 1.43621 4.80034 1.76583 4.47086C2.09799 4.13878 2.46496 3.85225 2.86221 3.61388Z" fill="white"/>
<path opacity="0.5" d="M11.572 8.36351C11.565 8.03904 11.5313 7.72125 11.473 7.41206C11.4208 7.31245 11.3656 7.21466 11.3076 7.11853C11.3104 7.12973 11.313 7.14098 11.3157 7.15223C11.4676 7.52849 11.5572 7.93646 11.572 8.36351Z" fill="white"/>
<path opacity="0.5" d="M11.2182 10.1906C11.1635 10.3657 11.1003 10.5386 11.0283 10.7088C10.9487 10.897 10.8592 11.0796 10.7607 11.2567C10.8158 11.2261 10.8704 11.1948 10.9243 11.1624C11.1298 10.7676 11.2911 10.3462 11.4016 9.90454C11.3436 10.0013 11.2825 10.0967 11.2182 10.1906Z" fill="white"/>
<path opacity="0.5" d="M11.0283 6.28172C11.1003 6.45197 11.1636 6.62483 11.2182 6.79988C11.2825 6.89386 11.3436 6.98922 11.4017 7.08596C11.2911 6.64435 11.1299 6.22292 10.9243 5.82808C10.8704 5.7957 10.8158 5.76437 10.7607 5.73376C10.8592 5.91092 10.9487 6.09353 11.0283 6.28172Z" fill="white"/>
<path opacity="0.5" d="M3.57249 3.24926C4.1844 2.99054 4.82957 2.84311 5.49427 2.8098C5.52986 2.77467 5.56577 2.74008 5.60196 2.70605C4.70832 2.73402 3.86587 2.9645 3.11875 3.35323C3.08637 3.40711 3.05503 3.46171 3.02441 3.51676C3.20161 3.41831 3.38427 3.32885 3.57249 3.24926Z" fill="white"/>
<path opacity="0.5" d="M8.00058 3.259C8.58822 3.50746 9.12383 3.8492 9.59655 4.27636C9.64648 4.27664 9.69635 4.27763 9.74627 4.27923C9.27394 3.83596 8.72718 3.47117 8.12664 3.20544C8.08361 3.22238 8.04075 3.23992 7.99805 3.25795C7.99887 3.25834 7.99976 3.25867 8.00058 3.259Z" fill="white"/>
<path opacity="0.5" d="M11.3158 9.82774C11.3131 9.83899 11.3104 9.85024 11.3076 9.86144C11.3656 9.7653 11.4209 9.66752 11.4731 9.56791C11.5313 9.25872 11.5651 8.94092 11.572 8.61646C11.5572 9.04351 11.4676 9.45148 11.3158 9.82774Z" fill="white"/>
<path opacity="0.5" d="M8.00084 13.8411C7.9577 13.8232 7.91484 13.8049 7.87219 13.786C7.20959 14.0471 6.50958 14.1793 5.78938 14.1793C5.74133 14.1793 5.69339 14.1787 5.64551 14.1775C5.68142 14.2117 5.71772 14.2453 5.75435 14.2784C5.76605 14.2785 5.77769 14.2789 5.78938 14.2789C6.57269 14.2789 7.31948 14.123 8.00084 13.8411Z" fill="white"/>
<path opacity="0.5" d="M8.57481 15.3198C8.38537 15.3966 8.19295 15.4624 7.99805 15.5181C8.05867 15.5354 8.11941 15.5518 8.18043 15.567C8.9836 15.3137 9.74236 14.8811 10.394 14.2692C10.3443 14.2707 10.2945 14.2716 10.2445 14.272C9.75091 14.7183 9.19042 15.0702 8.57476 15.3198" fill="white"/>
<path opacity="0.5" d="M12.1171 10.3503C12.0849 10.9866 11.9479 11.6068 11.7081 12.1979C11.7078 12.1988 11.7074 12.1996 11.707 12.2004C11.75 12.183 11.7927 12.1651 11.8351 12.1467C12.0718 11.5342 12.2004 10.8898 12.221 10.2424C12.1868 10.2788 12.1522 10.3148 12.1171 10.3503Z" fill="white"/>
<path opacity="0.5" d="M10.439 5.88036C10.2045 5.65566 9.95569 5.45468 9.69569 5.27714C9.58834 5.24361 9.4801 5.21349 9.37109 5.18652C9.3808 5.19231 9.3904 5.19827 9.40006 5.20417C9.78589 5.36842 10.1368 5.59858 10.439 5.88036Z" fill="white"/>
<path opacity="0.5" d="M7.81523 4.53665C7.8758 4.51757 7.93659 4.49953 7.99761 4.48249C7.48682 4.3397 6.96037 4.26794 6.43386 4.26794C6.42227 4.26794 6.41069 4.26828 6.3991 4.26833C6.36236 4.30153 6.32595 4.33518 6.29004 4.36937C6.33787 4.36821 6.38581 4.36755 6.43386 4.36755C6.9036 4.36755 7.36573 4.42442 7.81523 4.53665Z" fill="white"/>
<path opacity="0.5" d="M4.29551 4.78065C4.88678 4.54095 5.50718 4.4039 6.14353 4.3718C6.17906 4.33672 6.21508 4.30214 6.25149 4.26794C5.60395 4.28846 4.95933 4.41702 4.34676 4.65363C4.32833 4.69605 4.3104 4.73873 4.29297 4.7817C4.2938 4.78137 4.29468 4.78098 4.29551 4.78065Z" fill="white"/>
<path opacity="0.5" d="M12.0102 8.4873C11.9932 8.5483 11.9751 8.60908 11.9561 8.66964C12.0683 9.11903 12.1252 9.58105 12.1252 10.0507C12.1252 10.0987 12.1245 10.1467 12.1234 10.1945C12.1576 10.1585 12.1912 10.1221 12.2244 10.0854C12.2276 9.54741 12.1562 9.00917 12.0102 8.4873Z" fill="white"/>
<path opacity="0.5" d="M11.7052 7.91896C11.782 8.1083 11.8479 8.30068 11.9036 8.49553C11.9209 8.43497 11.9373 8.37425 11.9526 8.31319C11.8186 7.88873 11.6346 7.47674 11.4004 7.0863C11.4278 7.19573 11.452 7.30642 11.473 7.41827C11.5582 7.58076 11.6358 7.74765 11.7052 7.91896Z" fill="white"/>
<path opacity="0.5" d="M11.781 12.2717C11.7379 12.2896 11.6946 12.3069 11.6511 12.3237C11.3671 12.9768 10.9658 13.5651 10.4565 14.0743C10.4225 14.1082 10.3882 14.1417 10.3535 14.1747C10.4031 14.1735 10.4525 14.1716 10.5019 14.1691C10.5102 14.1609 10.5186 14.153 10.5269 14.1447C11.0808 13.5909 11.4986 12.9528 11.781 12.2717Z" fill="white"/>
<path opacity="0.5" d="M8.57481 4.78925C8.7461 4.85868 8.91304 4.93623 9.07556 5.02139C9.18744 5.0424 9.29816 5.06661 9.40761 5.09402C9.01708 4.8599 8.60499 4.6759 8.18043 4.54199C8.11936 4.55721 8.05862 4.57365 7.99805 4.59097C8.19301 4.64662 8.38543 4.71247 8.57476 4.78925" fill="white"/>
<path opacity="0.5" d="M8.00126 15.628C7.94025 15.611 7.87946 15.5929 7.81888 15.5739C7.36939 15.6861 6.90726 15.743 6.43751 15.743C5.97136 15.743 5.5127 15.6871 5.06641 15.5765C5.16273 15.6345 5.26098 15.6895 5.36083 15.7419C5.71638 15.8088 6.07689 15.8426 6.43751 15.8426C6.96408 15.8426 7.49048 15.7708 8.00126 15.628Z" fill="white"/>
<path opacity="0.5" d="M4.16297 4.849C4.17974 4.80554 4.19711 4.76225 4.21499 4.71912C3.53379 5.0015 2.89546 5.41918 2.34159 5.97292C2.33331 5.9812 2.32537 5.98969 2.31715 5.99796C2.31467 6.04732 2.31274 6.09674 2.31152 6.14632C2.34451 6.11163 2.37805 6.07733 2.41198 6.04335C2.92128 5.53418 3.5098 5.13288 4.16297 4.849Z" fill="white"/>
<path opacity="0.5" d="M0.916909 8.66964C0.897821 8.60908 0.879781 8.5483 0.862735 8.4873C0.622099 9.34764 0.584089 10.2527 0.748871 11.1271C0.801224 11.2269 0.85617 11.3252 0.914261 11.4214C0.803652 10.9753 0.747768 10.5167 0.747768 10.0507C0.747768 9.58105 0.804645 9.11903 0.916909 8.66964Z" fill="white"/>
<path opacity="0.5" d="M1.16528 7.92335C1.41496 7.30783 1.76693 6.74747 2.21333 6.25401C2.21366 6.20399 2.2146 6.15419 2.21615 6.10449C1.60402 6.75608 1.17135 7.5146 0.917969 8.31758C0.933195 8.37864 0.949634 8.43936 0.966957 8.49992C1.02262 8.30506 1.08849 8.11269 1.16528 7.92335Z" fill="white"/>
<path opacity="0.5" d="M11.2916 7.09474C11.2975 7.10439 11.3034 7.11399 11.3092 7.12364C11.2823 7.01471 11.2521 6.9065 11.2186 6.79917C11.041 6.53923 10.84 6.29049 10.6152 6.05603C10.8971 6.35816 11.1273 6.70899 11.2916 7.09474Z" fill="white"/>
<path opacity="0.5" d="M0.914413 11.4231C0.856377 11.3268 0.801376 11.2286 0.749023 11.1288C0.770042 11.2402 0.79437 11.3512 0.821954 11.4615C0.88043 11.5589 0.941665 11.6545 1.00566 11.7482C0.972062 11.6406 0.941444 11.5323 0.914413 11.4231Z" fill="white"/>
<path opacity="0.5" d="M11.3104 7.12134C11.3683 7.21748 11.4236 7.31526 11.4758 7.41487C11.4547 7.30307 11.4305 7.19238 11.4031 7.08296C11.3451 6.98616 11.2839 6.8908 11.2197 6.79688C11.2533 6.90415 11.2834 7.01236 11.3104 7.12134Z" fill="white"/>
<path opacity="0.5" d="M2.75962 8.49369C3.00815 7.9062 3.34996 7.37071 3.77722 6.8981C3.7775 6.84819 3.77849 6.79833 3.78009 6.74841C3.33672 7.22069 2.97185 7.76726 2.70605 8.36767C2.72299 8.41069 2.74053 8.45354 2.75857 8.49623C2.75896 8.4954 2.75924 8.49452 2.75962 8.49369Z" fill="white"/>
<path opacity="0.5" d="M10.2117 5.46312C10.3999 5.54271 10.5825 5.63217 10.7597 5.73062C10.7291 5.67557 10.6978 5.62097 10.6654 5.56709C10.2705 5.36159 9.84894 5.20037 9.40723 5.08984C9.50399 5.14787 9.59937 5.20903 9.69338 5.27323C9.86847 5.32789 10.0414 5.39115 10.2117 5.46312Z" fill="white"/>
<path opacity="0.5" d="M13.348 8.4873C13.3302 8.53043 13.3118 8.57329 13.293 8.61592C13.5541 9.27837 13.6864 9.97821 13.6864 10.6982C13.6864 10.7463 13.6858 10.7942 13.6846 10.8421C13.7187 10.8062 13.7523 10.7699 13.7855 10.7333C13.7856 10.7216 13.7859 10.7099 13.7859 10.6982C13.7859 9.91512 13.63 9.16851 13.348 8.4873Z" fill="white"/>
<path opacity="0.5" d="M13.2422 8.49369C13.2425 8.49452 13.2428 8.4954 13.2432 8.49623C13.2612 8.45354 13.2788 8.41069 13.2957 8.36767C13.0299 7.76726 12.6651 7.22069 12.2217 6.74841C12.2233 6.79833 12.2243 6.84819 12.2245 6.8981C12.6518 7.37071 12.9936 7.9062 13.2422 8.49369Z" fill="white"/>
<path opacity="0.5" d="M7.87424 4.91248C7.54969 4.91942 7.23182 4.95318 6.9225 5.01142C6.82287 5.0636 6.72506 5.1188 6.62891 5.17677C6.64016 5.17401 6.65136 5.17137 6.66261 5.16866C7.03901 5.01683 7.44708 4.92726 7.87424 4.91248Z" fill="white"/>
<path opacity="0.5" d="M13.6788 10.9946C13.6454 11.6592 13.498 12.3042 13.2392 12.916C13.1596 13.1041 13.0701 13.2867 12.9717 13.4639C13.0267 13.4333 13.0813 13.402 13.1352 13.3696C13.524 12.6226 13.7545 11.7804 13.7826 10.887C13.7485 10.9232 13.7139 10.959 13.6788 10.9946Z" fill="white"/>
<path opacity="0.5" d="M2.70396 8.61592C2.68509 8.57334 2.66672 8.53043 2.6489 8.4873C2.36689 9.16856 2.21094 9.91517 2.21094 10.6983C2.21094 10.71 2.21132 10.7216 2.21138 10.7333C2.24453 10.7699 2.27819 10.8062 2.31233 10.8421C2.31118 10.7943 2.31057 10.7463 2.31057 10.6983C2.31057 9.97822 2.44286 9.27843 2.70396 8.61592Z" fill="white"/>
<path opacity="0.5" d="M9.33857 5.16866C9.34983 5.17137 9.36108 5.17401 9.37228 5.17683C9.27613 5.11886 9.17832 5.0636 9.07869 5.01142C8.76942 4.95323 8.4515 4.91942 8.12695 4.91248C8.55411 4.92726 8.96217 5.01688 9.33857 5.16866Z" fill="white"/>
<path opacity="0.5" d="M13.0453 13.5442C12.99 13.5752 12.9343 13.6055 12.878 13.6348C12.6396 14.032 12.353 14.3989 12.0208 14.7309C11.6913 15.0605 11.3274 15.3452 10.9336 15.5825C11.0428 15.5555 11.1511 15.5249 11.2587 15.4913C11.9937 14.9894 12.6069 14.3226 13.0453 13.5442Z" fill="white"/>
<path opacity="0.5" d="M3.11941 13.6348C3.06309 13.6055 3.00737 13.5752 2.95215 13.5442C3.3905 14.3226 4.00368 14.9894 4.73872 15.4913C4.84629 15.5249 4.95464 15.5555 5.06381 15.5825C4.67003 15.3452 4.30616 15.0605 3.97659 14.7309C3.64443 14.3988 3.35784 14.032 3.11941 13.6348Z" fill="white"/>
<path opacity="0.5" d="M5.78734 5.46312C5.95764 5.39115 6.13053 5.32789 6.30563 5.27323C6.39963 5.20903 6.49501 5.14787 6.59177 5.08984C6.15006 5.20037 5.72853 5.36159 5.33359 5.56709C5.30121 5.62097 5.26988 5.67557 5.23926 5.73062C5.41645 5.63217 5.59911 5.54271 5.78734 5.46312Z" fill="white"/>
<path opacity="0.5" d="M10.833 5.65332C10.864 5.70853 10.8943 5.76423 10.9236 5.82055C11.3208 6.05892 11.6879 6.34544 12.02 6.67752C12.054 6.71144 12.0874 6.7458 12.1204 6.78049C12.1192 6.73086 12.1172 6.68138 12.1147 6.63197C11.7365 6.24925 11.3053 5.91916 10.833 5.65332Z" fill="white"/>
<path opacity="0.5" d="M5.07471 5.82055C5.10401 5.76423 5.13429 5.70853 5.16535 5.65332C4.69307 5.91916 4.26183 6.24925 3.88361 6.63197C3.88113 6.68138 3.87914 6.73086 3.87793 6.78049C3.91092 6.7458 3.94435 6.71144 3.97833 6.67752C4.31049 6.34544 4.67746 6.05892 5.07471 5.82055Z" fill="white"/>
<path opacity="0.5" d="M2.75818 12.916C2.49939 12.3042 2.35199 11.6592 2.31861 10.9946C2.28347 10.959 2.24888 10.9231 2.21484 10.887C2.24281 11.7804 2.47335 12.6226 2.86211 13.3696C2.91607 13.402 2.97068 13.4333 3.02574 13.4639C2.92726 13.2867 2.83778 13.1041 2.75818 12.916Z" fill="white"/>
<path opacity="0.5" d="M2.86328 13.3671C2.89257 13.4234 2.92286 13.4791 2.95392 13.5343C3.00914 13.5654 3.06486 13.5956 3.12118 13.6249C3.0888 13.571 3.05741 13.5164 3.02691 13.4614C2.97185 13.4308 2.91718 13.3994 2.86328 13.3671Z" fill="white"/>
<path opacity="0.5" d="M10.9259 5.83047C10.8966 5.77416 10.8663 5.71846 10.8352 5.66325C10.78 5.63214 10.7243 5.60192 10.668 5.57263C10.7004 5.62657 10.7317 5.68112 10.7622 5.73616C10.8173 5.76677 10.8719 5.7981 10.9259 5.83047Z" fill="white"/>
<path opacity="0.5" d="M5.06533 15.5844C4.95616 15.5574 4.84781 15.5268 4.74023 15.4932C4.83391 15.5571 4.92951 15.6184 5.02705 15.6768C5.13732 15.7044 5.24826 15.7287 5.3597 15.7497C5.2599 15.6974 5.16165 15.6424 5.06533 15.5844Z" fill="white"/>
<path opacity="0.5" d="M9.37075 5.19074C9.47975 5.21771 9.58799 5.24782 9.69529 5.28136C9.60134 5.21721 9.50596 5.15605 9.40914 5.09803C9.29969 5.07062 9.18897 5.04646 9.07715 5.02539C9.17678 5.07757 9.27459 5.13277 9.37075 5.19074Z" fill="white"/>
<path opacity="0.5" d="M4.34677 12.3237C4.3033 12.307 4.25999 12.2896 4.2168 12.2717C4.49925 12.9528 4.91703 13.5909 5.4709 14.1447C5.47917 14.153 5.48767 14.1609 5.49594 14.1691C5.54532 14.1716 5.59475 14.1735 5.64434 14.1747C5.60964 14.1417 5.57533 14.1082 5.54134 14.0743C5.0321 13.5651 4.63071 12.9768 4.34671 12.3237" fill="white"/>
<path opacity="0.5" d="M6.60053 5.20417C6.61018 5.19827 6.61978 5.19231 6.62944 5.18652C6.52048 5.21349 6.41225 5.24361 6.30489 5.27714C6.04484 5.45473 5.79604 5.65571 5.56152 5.88041C5.86373 5.59858 6.21469 5.36842 6.60053 5.20417Z" fill="white"/>
<path opacity="0.5" d="M8.18043 15.5739C8.11985 15.5929 8.05906 15.611 7.99805 15.628C8.50883 15.7708 9.03529 15.8426 9.5618 15.8426C9.92242 15.8426 10.2829 15.8088 10.6385 15.7419C10.7383 15.6895 10.8366 15.6346 10.9329 15.5765C10.4866 15.6871 10.028 15.743 9.5618 15.743C9.09205 15.743 8.62992 15.6861 8.18043 15.5739Z" fill="white"/>
<path opacity="0.5" d="M5.38155 6.05603C5.1568 6.29049 4.95577 6.53923 4.77814 6.79922C4.7446 6.90655 4.71448 7.01476 4.6875 7.12369C4.69335 7.11404 4.69925 7.10444 4.70515 7.09479C4.86944 6.70905 5.0997 6.35816 5.38155 6.05603Z" fill="white"/>
<path opacity="0.5" d="M11.7832 4.71912C11.8011 4.76225 11.8184 4.80554 11.8352 4.849C12.4884 5.13282 13.0769 5.53418 13.5862 6.0433C13.6201 6.07727 13.6536 6.11163 13.6867 6.14627C13.6855 6.09674 13.6835 6.04732 13.681 5.99796C13.6728 5.98963 13.6649 5.98119 13.6566 5.97292C13.1027 5.41918 12.4644 5.00145 11.7832 4.71912Z" fill="white"/>
<path opacity="0.5" d="M4.04583 8.66964C4.02674 8.60908 4.0087 8.5483 3.99166 8.4873C3.84569 9.00917 3.77425 9.54747 3.77745 10.0854C3.81066 10.1222 3.84431 10.1585 3.87851 10.1945C3.8773 10.1467 3.87669 10.0987 3.87669 10.0507C3.87669 9.58105 3.93357 9.11903 4.04583 8.66964Z" fill="white"/>
<path opacity="0.5" d="M7.99805 4.48249C8.05906 4.49953 8.11985 4.51757 8.18043 4.53665C8.62992 4.42442 9.09205 4.36755 9.5618 4.36755C9.60985 4.36755 9.65779 4.36821 9.70562 4.36937C9.66965 4.33518 9.63329 4.30153 9.59655 4.26839C9.58497 4.26828 9.57338 4.26794 9.5618 4.26794C9.03523 4.26794 8.50883 4.3397 7.99805 4.48249Z" fill="white"/>
<path opacity="0.5" d="M15.1352 8.4873C15.1182 8.5483 15.1001 8.60908 15.0811 8.66964C15.1933 9.11903 15.2502 9.58105 15.2502 10.0507C15.2502 10.5167 15.1943 10.9753 15.0837 11.4214C15.1418 11.3252 15.1967 11.2269 15.2491 11.1271C15.4139 10.2527 15.3759 9.34764 15.1352 8.4873Z" fill="white"/>
<path opacity="0.5" d="M7.42084 15.3198C6.80519 15.0702 6.24469 14.7183 5.75112 14.272C5.70108 14.2716 5.65127 14.2707 5.60156 14.2692C6.2533 14.8811 7.012 15.3137 7.81517 15.567C7.87624 15.5518 7.93698 15.5354 7.99755 15.5181C7.80265 15.4624 7.61023 15.3966 7.42084 15.3198Z" fill="white"/>
<path opacity="0.5" d="M14.835 7.92335C14.9118 8.11269 14.9778 8.30506 15.0334 8.49992C15.0507 8.43936 15.0671 8.37864 15.0824 8.31758C14.829 7.5146 14.3964 6.75608 13.7842 6.10449C13.7857 6.15419 13.7867 6.20399 13.787 6.25401C14.2334 6.74747 14.5854 7.30783 14.8351 7.92335" fill="white"/>
<path opacity="0.5" d="M4.29028 7.91896C4.35974 7.74765 4.4373 7.58076 4.52248 7.41827C4.54349 7.30642 4.56771 7.19573 4.59513 7.0863C4.36095 7.47674 4.17691 7.88873 4.04297 8.31319C4.05819 8.37425 4.07463 8.43497 4.09196 8.49553C4.14762 8.30068 4.21349 8.1083 4.29028 7.91896Z" fill="white"/>
<path opacity="0.5" d="M4.29017 12.198C4.05042 11.6068 3.91333 10.9866 3.88122 10.3504C3.84614 10.3148 3.81155 10.2788 3.77734 10.2424C3.79787 10.8898 3.92646 11.5343 4.16312 12.1467C4.20555 12.1651 4.24825 12.1831 4.29122 12.2005C4.29089 12.1997 4.2905 12.1988 4.29017 12.198Z" fill="white"/>
<path opacity="0.5" d="M11.706 4.78065C11.7068 4.78098 11.7077 4.78137 11.7085 4.7817C11.6911 4.73873 11.6732 4.69605 11.6547 4.65363C11.0422 4.41702 10.3975 4.28846 9.75 4.26794C9.78641 4.30214 9.82243 4.33672 9.85796 4.3718C10.4943 4.4039 11.1147 4.54095 11.706 4.78065Z" fill="white"/>
<path opacity="0.5" d="M7.42074 4.78925C7.61013 4.71247 7.80255 4.64662 7.99745 4.59097C7.93688 4.57365 7.87614 4.55721 7.81507 4.54199C7.39051 4.6759 6.97841 4.8599 6.58789 5.09402C6.69734 5.06661 6.80806 5.0424 6.91994 5.02139C7.08246 4.93623 7.24939 4.85868 7.42074 4.78925Z" fill="white"/>
<path opacity="0.5" d="M9.70585 4.36899C9.7555 4.3702 9.80499 4.37218 9.85442 4.37467C9.81894 4.33959 9.78287 4.30501 9.74646 4.27087C9.69653 4.26927 9.64666 4.26828 9.59668 4.26794C9.63342 4.30115 9.66989 4.33479 9.7058 4.36899" fill="white"/>
<path opacity="0.5" d="M5.64541 14.1781C5.59587 14.1769 5.54639 14.175 5.49707 14.1725C5.5326 14.2076 5.56851 14.2422 5.60476 14.2762C5.65446 14.2778 5.70428 14.2787 5.75426 14.279C5.71763 14.2459 5.68133 14.2123 5.64541 14.1781Z" fill="white"/>
<path opacity="0.5" d="M7.81641 15.5744C7.87698 15.5934 7.93777 15.6115 7.99879 15.6285C8.0598 15.6115 8.12059 15.5934 8.18117 15.5744C8.1201 15.5591 8.05936 15.5427 7.99879 15.5254C7.93821 15.5427 7.87748 15.5591 7.81641 15.5744Z" fill="white"/>
<path opacity="0.5" d="M8.18117 4.5317C8.12059 4.51262 8.0598 4.49458 7.99879 4.47754C7.93777 4.49458 7.87698 4.51262 7.81641 4.5317C7.87748 4.54692 7.93821 4.56336 7.99879 4.58068C8.05936 4.56336 8.1201 4.54692 8.18117 4.5317Z" fill="white"/>
<path opacity="0.5" d="M10.934 15.5844C10.8377 15.6424 10.7394 15.6974 10.6396 15.7497C10.7511 15.7287 10.862 15.7044 10.9723 15.6768C11.0698 15.6184 11.1654 15.5571 11.2591 15.4932C11.1515 15.5268 11.0432 15.5574 10.934 15.5844Z" fill="white"/>
<path opacity="0.5" d="M6.62728 5.19074C6.72343 5.13277 6.82124 5.07757 6.92088 5.02539C6.80905 5.04646 6.69833 5.07062 6.58888 5.09803C6.49207 5.15605 6.39668 5.21721 6.30273 5.28136C6.41003 5.24782 6.51827 5.21771 6.62728 5.19074Z" fill="white"/>
<path opacity="0.5" d="M4.96809 6.28172C5.0477 6.09353 5.13718 5.91092 5.23565 5.73376C5.18059 5.76437 5.12598 5.7957 5.07208 5.82808C4.86653 6.22292 4.70528 6.64435 4.59473 7.08596C4.65276 6.98922 4.71394 6.89386 4.77816 6.79988C4.83283 6.62483 4.8961 6.45197 4.96809 6.28172Z" fill="white"/>
<path opacity="0.5" d="M4.96809 10.7088C4.8961 10.5386 4.83283 10.3657 4.77816 10.1906C4.71394 10.0966 4.65276 10.0013 4.59473 9.90454C4.70528 10.3462 4.86653 10.7676 5.07208 11.1624C5.12598 11.1948 5.18059 11.2261 5.23565 11.2567C5.13718 11.0796 5.0477 10.897 4.96809 10.7088Z" fill="white"/>
<path opacity="0.5" d="M4.68203 7.15223C4.68473 7.14098 4.68738 7.12973 4.69019 7.11853C4.63221 7.21466 4.57694 7.31245 4.52475 7.41206C4.46655 7.72125 4.43273 8.03904 4.42578 8.36351C4.44057 7.93646 4.53021 7.52849 4.68203 7.15223Z" fill="white"/>
<path opacity="0.5" d="M4.42578 8.61646C4.43273 8.94092 4.46649 9.25872 4.52475 9.56791C4.57694 9.66752 4.63216 9.7653 4.69014 9.86144C4.68738 9.85024 4.68473 9.83899 4.68203 9.82774C4.53016 9.45148 4.44057 9.04351 4.42578 8.61646Z" fill="white"/>
<path opacity="0.5" d="M12.423 13.7312C11.8111 13.99 11.1659 14.1373 10.5012 14.1707C10.4657 14.2058 10.4297 14.2404 10.3936 14.2744C11.2872 14.2465 12.1296 14.016 12.8768 13.6273C12.9091 13.5734 12.9405 13.5188 12.9711 13.4637C12.7939 13.5622 12.6112 13.6517 12.423 13.7312Z" fill="white"/>
<path opacity="0.5" d="M7.99569 3.259C7.99652 3.25867 7.9974 3.25834 7.99823 3.25795C7.95553 3.23992 7.91266 3.22238 7.86963 3.20544C7.26909 3.47117 6.72239 3.83596 6.25 4.27923C6.29993 4.27763 6.3498 4.27664 6.39972 4.27636C6.87244 3.8492 7.40806 3.50746 7.99569 3.259Z" fill="white"/>
<path opacity="0.5" d="M13.0479 3.44666C13.0789 3.50186 13.1092 3.55757 13.1385 3.61388C13.5357 3.85225 13.9028 4.13878 14.2349 4.47086C14.5645 4.8004 14.8493 5.16414 15.0866 5.55782C15.0596 5.44867 15.029 5.34035 14.9954 5.2328C14.4934 4.49794 13.8265 3.88491 13.0479 3.44666Z" fill="white"/>
<path opacity="0.5" d="M8.1267 13.786C8.08411 13.8049 8.04119 13.8232 7.99805 13.8411C8.67946 14.123 9.42625 14.2789 10.2096 14.2789C10.2213 14.2789 10.2328 14.2785 10.2445 14.2785C10.2812 14.2453 10.3175 14.2117 10.3534 14.1775C10.3056 14.1787 10.2576 14.1793 10.2096 14.1793C9.48931 14.1793 8.78936 14.0471 8.1267 13.786Z" fill="white"/>
<path opacity="0.5" d="M12.423 3.24926C12.6112 3.32885 12.7939 3.41831 12.9711 3.51676C12.9405 3.46171 12.9091 3.40711 12.8768 3.35323C12.1296 2.9645 11.2872 2.73402 10.3936 2.70605C10.4297 2.74008 10.4657 2.77467 10.5012 2.8098C11.1659 2.84311 11.8111 2.99054 12.423 3.24926Z" fill="white"/>
<path opacity="0.5" d="M5.16309 5.65174C5.21831 5.62069 5.27403 5.59041 5.33035 5.56112C5.56878 5.16396 5.85537 4.79703 6.18753 4.465C6.22146 4.43103 6.25582 4.39761 6.29052 4.36462C6.24087 4.36584 6.19139 4.36777 6.14196 4.3703C5.75916 4.74844 5.42899 5.17952 5.16309 5.65174Z" fill="white"/>
<path opacity="0.5" d="M7.99805 3.14386C8.04119 3.16173 8.08405 3.18004 8.1267 3.19891C8.7893 2.93786 9.48931 2.80561 10.2095 2.80561C10.2576 2.80561 10.3055 2.80621 10.3534 2.80737C10.3175 2.77323 10.2812 2.73964 10.2445 2.7065C10.2328 2.70639 10.2212 2.70605 10.2095 2.70605C9.4262 2.70605 8.67941 2.86192 7.99805 3.14386Z" fill="white"/>
<path opacity="0.5" d="M14.2349 12.5214C13.9027 12.8535 13.5357 13.14 13.1385 13.3784C13.1092 13.4347 13.0789 13.4904 13.0479 13.5456C13.8265 13.1073 14.4934 12.4943 14.9954 11.7595C15.029 11.6519 15.0596 11.5436 15.0866 11.4344C14.8493 11.8281 14.5645 12.1919 14.2349 12.5214Z" fill="white"/>
<path opacity="0.5" d="M7.99569 13.7271C7.40806 13.4787 6.87244 13.1369 6.39978 12.7098C6.3498 12.7095 6.29993 12.7085 6.25 12.7069C6.72239 13.1502 7.26909 13.515 7.86963 13.7807C7.91266 13.7638 7.95553 13.7462 7.99823 13.7282C7.9974 13.7278 7.99652 13.7275 7.99569 13.7271Z" fill="white"/>
<path opacity="0.5" d="M5.33035 11.4122C5.27403 11.3829 5.21831 11.3526 5.16309 11.3215C5.42899 11.7937 5.75916 12.2248 6.14196 12.603C6.19139 12.6055 6.24087 12.6074 6.29052 12.6087C6.25582 12.5757 6.22146 12.5422 6.18753 12.5083C5.85537 12.1762 5.56878 11.8093 5.33035 11.4122Z" fill="white"/>
<path opacity="0.5" d="M7.87305 13.7901C7.91564 13.8089 7.95856 13.8273 8.0017 13.8451C8.04484 13.8273 8.0877 13.8089 8.13029 13.7901C8.08726 13.7731 8.04439 13.7556 8.0017 13.7375C7.95894 13.7556 7.91608 13.7731 7.87305 13.7901Z" fill="white"/>
<path opacity="0.5" d="M8.13029 3.19603C8.0877 3.17717 8.04478 3.15881 8.00164 3.14099C7.9585 3.15881 7.91564 3.17717 7.87305 3.19603C7.91608 3.21297 7.95894 3.23051 8.00164 3.24854C8.04439 3.23051 8.08726 3.21297 8.13029 3.19603Z" fill="white"/>
<path opacity="0.5" d="M10.354 14.1781C10.318 14.2123 10.2817 14.2459 10.2451 14.279C10.2951 14.2787 10.3449 14.2778 10.3946 14.2762C10.4309 14.2422 10.4668 14.2076 10.5023 14.1725C10.453 14.175 10.4035 14.1769 10.354 14.1781Z" fill="white"/>
<path opacity="0.5" d="M6.29407 4.36899C6.33004 4.33479 6.36645 4.30115 6.40319 4.26794C6.35321 4.26828 6.30334 4.26927 6.25341 4.27087C6.217 4.30501 6.18098 4.33959 6.14551 4.37467C6.19494 4.37218 6.24442 4.3702 6.29407 4.36899Z" fill="white"/>
<path opacity="0.5" d="M5.33212 5.57263C5.2758 5.60192 5.22008 5.6322 5.16486 5.66325C5.13374 5.71846 5.10351 5.77416 5.07422 5.83047C5.12817 5.7981 5.18273 5.76677 5.23779 5.73622C5.2684 5.68117 5.29974 5.62657 5.33212 5.57263Z" fill="white"/>
<path opacity="0.5" d="M12.8789 13.6249C12.9352 13.5956 12.9909 13.5653 13.0462 13.5343C13.0773 13.4791 13.1075 13.4234 13.1368 13.3671C13.0829 13.3994 13.0283 13.4308 12.9732 13.4613C12.9426 13.5164 12.9113 13.571 12.8789 13.6249Z" fill="white"/>
<path opacity="0.5" d="M4.68785 7.12134C4.71483 7.01236 4.74495 6.90415 4.77849 6.79688C4.71433 6.8908 4.65315 6.98616 4.59512 7.08296C4.5677 7.19238 4.54353 7.30307 4.52246 7.41487C4.57465 7.31526 4.62987 7.21748 4.68785 7.12134Z" fill="white"/>
<path opacity="0.5" d="M15.0844 11.4231C15.0574 11.5323 15.0268 11.6406 14.9932 11.7482C15.0572 11.6545 15.1184 11.5589 15.1769 11.4614C15.2045 11.3512 15.2288 11.2402 15.2498 11.1288C15.1974 11.2286 15.1424 11.3268 15.0844 11.4231Z" fill="white"/>
<path opacity="0.5" d="M7.99805 1.35847C8.05906 1.37551 8.11985 1.39355 8.18043 1.41263C8.62992 1.30039 9.09205 1.24353 9.5618 1.24353C10.028 1.24353 10.4866 1.2994 10.9329 1.40998C10.8366 1.3519 10.7383 1.29697 10.6385 1.24463C10.2829 1.17767 9.92237 1.14392 9.5618 1.14392C9.03523 1.14392 8.50883 1.21568 7.99805 1.35847Z" fill="white"/>
<path opacity="0.5" d="M14.835 9.06388C14.5854 9.67939 14.2334 10.2398 13.787 10.7332C13.7867 10.7832 13.7857 10.833 13.7842 10.8827C14.3963 10.2311 14.829 9.47262 15.0824 8.66964C15.0671 8.60859 15.0507 8.54781 15.0334 8.4873C14.9777 8.68216 14.9118 8.87454 14.835 9.06388Z" fill="white"/>
<path opacity="0.5" d="M7.42074 12.206C7.24939 12.1366 7.08246 12.059 6.91994 11.9739C6.80806 11.9529 6.69734 11.9287 6.58789 11.9012C6.97841 12.1354 7.39051 12.3194 7.81507 12.4533C7.87614 12.4381 7.93688 12.4216 7.99745 12.4043C7.80255 12.3487 7.61013 12.2828 7.42074 12.206Z" fill="white"/>
<path opacity="0.5" d="M5.56152 11.1125C5.79604 11.3372 6.04489 11.5382 6.30495 11.7158C6.41225 11.7494 6.52048 11.7795 6.62949 11.8064C6.61978 11.8006 6.61018 11.7947 6.60058 11.7888C6.2147 11.6245 5.86373 11.3944 5.56152 11.1125Z" fill="white"/>
<path opacity="0.5" d="M8.18043 12.4491C8.11985 12.4682 8.05906 12.4862 7.99805 12.5033C8.50883 12.6461 9.03529 12.7178 9.5618 12.7178C9.57338 12.7178 9.58497 12.7175 9.59655 12.7174C9.63324 12.6842 9.66965 12.6506 9.70562 12.6164C9.65779 12.6175 9.60985 12.6182 9.5618 12.6182C9.09205 12.6182 8.62992 12.5613 8.18043 12.4491Z" fill="white"/>
<path opacity="0.5" d="M4.2168 4.70575C4.25994 4.68788 4.30324 4.67056 4.34671 4.65374C4.63066 4.00072 5.03205 3.41235 5.54135 2.90322C5.57527 2.86925 5.60964 2.83577 5.64429 2.80273C5.59475 2.80395 5.54532 2.80588 5.49594 2.80836C5.48761 2.81658 5.47917 2.82452 5.4709 2.83279C4.91703 3.38653 4.49919 4.02472 4.2168 4.70575Z" fill="white"/>
<path opacity="0.5" d="M4.29017 4.78611C4.2905 4.78528 4.29089 4.7844 4.29122 4.78357C4.2483 4.801 4.20555 4.81892 4.16312 4.83734C3.92646 5.44977 3.79787 6.09424 3.77734 6.74163C3.81155 6.70523 3.84614 6.66921 3.88122 6.6337C3.91333 5.9975 4.05042 5.37724 4.29017 4.78611Z" fill="white"/>
<path opacity="0.5" d="M3.99161 8.48781C4.00865 8.42681 4.02669 8.36603 4.04578 8.30547C3.93352 7.85608 3.87664 7.39406 3.87664 6.92443C3.87664 6.87639 3.8773 6.82846 3.87846 6.78064C3.84426 6.8166 3.81061 6.853 3.77745 6.88968C3.7742 7.4277 3.84564 7.96595 3.99161 8.48781Z" fill="white"/>
<path opacity="0.5" d="M13.5862 10.9577C13.0769 11.4669 12.4884 11.8682 11.8352 12.1521C11.8184 12.1955 11.8011 12.2388 11.7832 12.2819C12.4644 11.9996 13.1027 11.5819 13.6566 11.0281C13.6649 11.0199 13.6728 11.0114 13.681 11.0031C13.6835 10.9537 13.6854 10.9043 13.6866 10.8547C13.6536 10.8894 13.6201 10.9237 13.5862 10.9577Z" fill="white"/>
<path opacity="0.5" d="M4.29028 9.06388C4.21349 8.87454 4.14762 8.68216 4.09196 8.4873C4.07463 8.54781 4.05819 8.60859 4.04297 8.66964C4.17691 9.0941 4.36095 9.5061 4.59513 9.89653C4.56771 9.78711 4.54349 9.67642 4.52248 9.56456C4.4373 9.40208 4.35974 9.23519 4.29028 9.06388Z" fill="white"/>
<path opacity="0.5" d="M11.706 12.1927C11.1147 12.4324 10.4943 12.5695 9.85796 12.6016C9.82243 12.6366 9.78641 12.6712 9.75 12.7054C10.3975 12.6849 11.0422 12.5563 11.6547 12.3197C11.6732 12.2773 11.6911 12.2346 11.7085 12.1917C11.7077 12.192 11.7068 12.1924 11.706 12.1927Z" fill="white"/>
<path opacity="0.5" d="M15.0811 8.30847C15.1001 8.36903 15.1182 8.42981 15.1352 8.49081C15.3759 7.63047 15.4139 6.72545 15.2491 5.85099C15.1967 5.75117 15.1418 5.65294 15.0837 5.55664C15.1943 6.00283 15.2502 6.46138 15.2502 6.92743C15.2502 7.39706 15.1933 7.85908 15.0811 8.30847Z" fill="white"/>
<path opacity="0.5" d="M4.70515 9.90122C4.69925 9.89156 4.69329 9.88197 4.6875 9.87231C4.71448 9.98124 4.7446 10.0895 4.77814 10.1968C4.95577 10.4568 5.1568 10.7055 5.38155 10.94C5.0997 10.6378 4.86944 10.287 4.70515 9.90122Z" fill="white"/>
<path opacity="0.5" d="M7.42084 1.66461C7.61023 1.58784 7.80265 1.52198 7.99755 1.46633C7.93698 1.44902 7.87624 1.43258 7.81517 1.41736C7.012 1.67068 6.2533 2.10325 5.60156 2.71523C5.65127 2.71369 5.70108 2.71275 5.75112 2.71247C6.24469 2.26612 6.80519 1.91424 7.42084 1.66461Z" fill="white"/>
<path opacity="0.5" d="M9.7058 12.6159C9.66983 12.6501 9.63342 12.6837 9.59668 12.717C9.64666 12.7166 9.69653 12.7156 9.74646 12.714C9.78287 12.6799 9.81889 12.6453 9.85436 12.6102C9.80493 12.6127 9.75545 12.6147 9.7058 12.6159Z" fill="white"/>
<path opacity="0.5" d="M5.64541 2.80699C5.68133 2.77279 5.71763 2.7392 5.75426 2.70605C5.70428 2.70639 5.65446 2.70732 5.60476 2.70887C5.56851 2.7429 5.5326 2.77748 5.49707 2.81261C5.54639 2.81013 5.59587 2.8082 5.64541 2.80699Z" fill="white"/>
<path opacity="0.5" d="M11.6543 12.3253C11.6978 12.3086 11.7411 12.2912 11.7842 12.2733C11.8021 12.2302 11.8194 12.1869 11.8362 12.1434C11.7938 12.1619 11.7511 12.1798 11.7081 12.1973C11.6907 12.2402 11.6727 12.2829 11.6543 12.3253Z" fill="white"/>
<path opacity="0.5" d="M4.34595 4.65466C4.30248 4.67143 4.25917 4.6888 4.21603 4.70667C4.1981 4.7498 4.18083 4.79304 4.16406 4.8365C4.20649 4.81808 4.24918 4.80016 4.29216 4.78273C4.30959 4.73977 4.32752 4.69708 4.34589 4.65466" fill="white"/>
<path opacity="0.5" d="M3.87841 6.78427C3.87962 6.73463 3.88161 6.68516 3.88409 6.63574C3.849 6.67121 3.81442 6.70722 3.78027 6.74362C3.77867 6.79354 3.77767 6.84345 3.77734 6.89336C3.81055 6.85663 3.84421 6.82023 3.87841 6.78427Z" fill="white"/>
<path opacity="0.5" d="M13.6853 10.8509C13.6841 10.9004 13.6822 10.9499 13.6797 10.9992C13.7148 10.9637 13.7494 10.9278 13.7835 10.8915C13.7851 10.8418 13.7859 10.792 13.7863 10.7421C13.7531 10.7787 13.7195 10.815 13.6853 10.8509Z" fill="white"/>
<path opacity="0.5" d="M15.0822 8.67522C15.1013 8.61466 15.1193 8.55388 15.1364 8.49288C15.1193 8.43188 15.1013 8.37111 15.0822 8.31055C15.067 8.3716 15.0505 8.43233 15.0332 8.49288C15.0505 8.55344 15.067 8.61417 15.0822 8.67522Z" fill="white"/>
<path opacity="0.5" d="M4.04538 8.31055C4.0263 8.37111 4.00826 8.43188 3.99121 8.49288C4.00826 8.55388 4.0263 8.61466 4.04538 8.67522C4.06061 8.61417 4.07705 8.55344 4.09437 8.49288C4.07705 8.43233 4.06061 8.3716 4.04538 8.31055Z" fill="white"/>
<path opacity="0.5" d="M4.68785 9.85993C4.62987 9.7638 4.57465 9.66601 4.52246 9.56641C4.54353 9.6782 4.5677 9.7889 4.59512 9.89832C4.65315 9.99511 4.71433 10.0905 4.77849 10.1844C4.74495 10.0771 4.71483 9.96892 4.68785 9.85993Z" fill="white"/>
<path opacity="0.5" d="M15.0844 5.5594C15.1424 5.65569 15.1974 5.75392 15.2498 5.85375C15.2288 5.74228 15.2045 5.63137 15.1769 5.52112C15.1184 5.42361 15.0572 5.32803 14.9932 5.23438C15.0268 5.34192 15.0574 5.45025 15.0844 5.5594Z" fill="white"/>
<path opacity="0.5" d="M2.75818 4.07529C2.83778 3.88711 2.92726 3.7045 3.02574 3.52734C2.97068 3.55795 2.91607 3.58928 2.86211 3.62166C2.47335 4.3686 2.24281 5.21085 2.21484 6.10428C2.24888 6.0681 2.28347 6.0322 2.31861 5.99662C2.35193 5.33208 2.49939 4.68706 2.75818 4.07529Z" fill="white"/>
<path opacity="0.5" d="M13.2392 4.07529C13.498 4.68706 13.6454 5.33208 13.6788 5.99662C13.7139 6.0322 13.7485 6.0681 13.7826 6.10428C13.7546 5.21085 13.5241 4.3686 13.1352 3.62166C13.0814 3.58928 13.0267 3.55795 12.9717 3.52734C13.0702 3.7045 13.1596 3.88711 13.2392 4.07529Z" fill="white"/>
<path opacity="0.5" d="M12.878 3.36505C12.9343 3.39434 12.99 3.42462 13.0453 3.45567C12.6069 2.67723 11.9937 2.01042 11.2587 1.50858C11.1511 1.47499 11.0428 1.44438 10.9336 1.41736C11.3274 1.65463 11.6913 1.93939 12.0208 2.26893C12.353 2.60095 12.6396 2.96789 12.878 3.36505Z" fill="white"/>
<path opacity="0.5" d="M13.293 8.36227C13.3118 8.40485 13.3302 8.44776 13.348 8.49089C13.63 7.80963 13.786 7.06302 13.786 6.27989C13.786 6.2682 13.7856 6.25662 13.7856 6.24493C13.7524 6.2083 13.7188 6.17196 13.6846 6.13611C13.6858 6.18393 13.6864 6.23191 13.6864 6.27989C13.6864 6.99998 13.5541 7.69977 13.293 8.36227Z" fill="white"/>
<path opacity="0.5" d="M2.64885 8.49089C2.66672 8.44776 2.68504 8.4049 2.70391 8.36227C2.4428 7.69982 2.31051 6.99998 2.31051 6.27995C2.31051 6.23191 2.31112 6.18398 2.31228 6.13611C2.27813 6.17201 2.24453 6.2083 2.21138 6.24493C2.21127 6.25662 2.21094 6.26826 2.21094 6.27995C2.21094 7.06307 2.36684 7.80969 2.64885 8.49089Z" fill="white"/>
<path opacity="0.5" d="M5.78734 11.5246C5.59911 11.445 5.41645 11.3555 5.23926 11.2571C5.26988 11.3121 5.30121 11.3667 5.33359 11.4207C5.72853 11.6261 6.15006 11.7873 6.59177 11.8979C6.49501 11.8398 6.39963 11.7787 6.30563 11.7145C6.13053 11.6598 5.95764 11.5966 5.78734 11.5246Z" fill="white"/>
<path opacity="0.5" d="M10.2117 11.5246C10.0414 11.5966 9.86847 11.6598 9.69338 11.7145C9.59937 11.7787 9.50399 11.8398 9.40723 11.8979C9.84894 11.7873 10.2705 11.6261 10.6654 11.4207C10.6978 11.3667 10.7291 11.3121 10.7597 11.2571C10.5825 11.3555 10.3999 11.445 10.2117 11.5246Z" fill="white"/>
<path opacity="0.5" d="M6.66261 11.8131C6.65136 11.8104 6.64011 11.8077 6.62891 11.8049C6.72506 11.8629 6.82287 11.9182 6.9225 11.9703C7.23177 12.0285 7.54964 12.0623 7.87413 12.0693C7.44703 12.0545 7.03896 11.9649 6.66261 11.8131Z" fill="white"/>
<path opacity="0.5" d="M2.75962 8.48984C2.75924 8.48901 2.75896 8.48813 2.75857 8.4873C2.74053 8.52999 2.72299 8.57285 2.70605 8.61587C2.97185 9.21627 3.33672 9.76284 3.78009 10.2351C3.77849 10.1852 3.7775 10.1353 3.77722 10.0854C3.34996 9.61282 3.00815 9.07734 2.75962 8.48984Z" fill="white"/>
<path opacity="0.5" d="M5.16541 11.3218C5.13435 11.2665 5.10406 11.2108 5.07477 11.1545C4.67751 10.9161 4.31049 10.6296 3.97839 10.2976C3.94441 10.2636 3.91097 10.2293 3.87793 10.1946C3.8792 10.2442 3.88113 10.2937 3.88367 10.3431C4.26189 10.7258 4.69307 11.0559 5.16541 11.3218Z" fill="white"/>
<path opacity="0.5" d="M2.95215 3.45567C3.00737 3.42462 3.06309 3.39434 3.11941 3.36505C3.35784 2.96789 3.64443 2.60095 3.97659 2.26893C4.30621 1.93939 4.67009 1.65463 5.06381 1.41736C4.95464 1.44438 4.84629 1.47494 4.73872 1.50853C4.00373 2.01042 3.3905 2.67723 2.95215 3.45567Z" fill="white"/>
<path opacity="0.5" d="M8.12695 12.0692C8.4515 12.0623 8.76931 12.0285 9.07858 11.9703C9.17821 11.9181 9.27602 11.8629 9.37217 11.8049C9.36097 11.8077 9.34972 11.8103 9.33847 11.813C8.96212 11.9649 8.55405 12.0544 8.12695 12.0692Z" fill="white"/>
<path opacity="0.5" d="M12.02 10.2976C11.6879 10.6296 11.3209 10.9161 10.9236 11.1545C10.8944 11.2108 10.8641 11.2665 10.833 11.3218C11.3053 11.0559 11.7365 10.7258 12.1147 10.3431C12.1172 10.2937 12.1192 10.2442 12.1204 10.1946C12.0874 10.2292 12.054 10.2636 12.02 10.2976Z" fill="white"/>
<path opacity="0.5" d="M13.2422 8.48984C12.9936 9.07734 12.6518 9.61282 12.2245 10.0854C12.2243 10.1353 12.2233 10.1852 12.2217 10.2351C12.6651 9.7629 13.0299 9.21627 13.2957 8.61587C13.2788 8.57285 13.2612 8.52999 13.2432 8.4873C13.2428 8.48813 13.2425 8.48901 13.2422 8.48984Z" fill="white"/>
<path opacity="0.5" d="M10.668 11.4189C10.7242 11.3896 10.78 11.3593 10.8352 11.3282C10.8663 11.273 10.8966 11.2173 10.9259 11.161C10.8719 11.1934 10.8173 11.2247 10.7623 11.2553C10.7317 11.3103 10.7003 11.3649 10.668 11.4189Z" fill="white"/>
<path opacity="0.5" d="M3.12118 3.35059C3.06486 3.37987 3.00914 3.41015 2.95392 3.4412C2.92281 3.49641 2.89257 3.55212 2.86328 3.60843C2.91723 3.57605 2.97179 3.54473 3.02685 3.51417C3.05747 3.45913 3.0888 3.40453 3.12118 3.35059Z" fill="white"/>
<path opacity="0.5" d="M12.1229 10.2069C12.1217 10.2566 12.1197 10.3061 12.1172 10.3555C12.1523 10.32 12.1869 10.284 12.221 10.2476C12.2226 10.1977 12.2236 10.1478 12.2239 10.0979C12.1907 10.1346 12.1571 10.171 12.1229 10.2069Z" fill="white"/>
<path opacity="0.5" d="M2.31189 6.13989C2.31311 6.09036 2.31504 6.04088 2.31752 5.99158C2.28238 6.0271 2.24779 6.063 2.21375 6.09924C2.21215 6.14893 2.21127 6.19873 2.21094 6.2487C2.24409 6.21208 2.27769 6.17579 2.31189 6.13989Z" fill="white"/>
<path opacity="0.5" d="M2.70447 8.35876C2.6856 8.40134 2.66723 8.44425 2.64941 8.48738C2.66723 8.53051 2.6856 8.57337 2.70447 8.61595C2.72141 8.57293 2.73895 8.53007 2.75699 8.48738C2.73895 8.44464 2.72141 8.40178 2.70447 8.35876Z" fill="white"/>
<path opacity="0.5" d="M13.2937 8.61595C13.3126 8.57337 13.331 8.53046 13.3488 8.48733C13.331 8.4442 13.3126 8.40134 13.2937 8.35876C13.2768 8.40178 13.2593 8.44464 13.2412 8.48733C13.2593 8.53007 13.2768 8.57293 13.2937 8.61595Z" fill="white"/>
<path opacity="0.5" d="M3.87841 10.2069C3.84421 10.171 3.81055 10.1346 3.77734 10.0979C3.77767 10.1478 3.77867 10.1977 3.78027 10.2476C3.81442 10.284 3.849 10.32 3.88409 10.3555C3.88161 10.3061 3.87962 10.2566 3.87841 10.2069Z" fill="white"/>
<path opacity="0.5" d="M13.6853 6.13989C13.7195 6.17579 13.7531 6.21208 13.7863 6.2487C13.7859 6.19873 13.7851 6.14893 13.7835 6.09924C13.7494 6.063 13.7148 6.0271 13.6797 5.99158C13.6822 6.04088 13.6841 6.09036 13.6853 6.13989Z" fill="white"/>
<path opacity="0.5" d="M5.07422 11.161C5.10351 11.2173 5.1338 11.273 5.16486 11.3282C5.22008 11.3593 5.2758 11.3896 5.33212 11.4189C5.29974 11.3649 5.2684 11.3104 5.23784 11.2553C5.18279 11.2247 5.12817 11.1934 5.07422 11.161Z" fill="white"/>
<path opacity="0.5" d="M13.1368 3.60843C13.1075 3.55212 13.0772 3.49641 13.0462 3.4412C12.9909 3.4101 12.9352 3.37987 12.8789 3.35059C12.9113 3.40453 12.9426 3.45907 12.9732 3.51412C13.0282 3.54473 13.0829 3.57605 13.1368 3.60843Z" fill="white"/>
<path opacity="0.5" d="M10.934 1.40595C11.0432 1.43298 11.1515 1.46359 11.2591 1.49717C11.1654 1.4332 11.0698 1.37198 10.9723 1.31351C10.862 1.28594 10.7511 1.26161 10.6396 1.2406C10.7394 1.29294 10.8377 1.34793 10.934 1.40595Z" fill="white"/>
<path opacity="0.5" d="M6.62728 11.7989C6.51827 11.7719 6.41003 11.7418 6.30273 11.7083C6.39668 11.7724 6.49207 11.8336 6.58888 11.8916C6.69833 11.919 6.80905 11.9431 6.92082 11.9642C6.82124 11.912 6.72338 11.8568 6.62722 11.7989" fill="white"/>
<path opacity="0.5" d="M7.81888 1.41263C7.87946 1.39355 7.94025 1.37551 8.00126 1.35847C7.49048 1.21568 6.96402 1.14392 6.43751 1.14392C6.07689 1.14392 5.71638 1.17767 5.36083 1.24463C5.26098 1.29697 5.16273 1.3519 5.06641 1.40998C5.5127 1.2994 5.97136 1.24353 6.43751 1.24353C6.90726 1.24353 7.36939 1.30039 7.81888 1.41263Z" fill="white"/>
<path opacity="0.5" d="M1.16528 9.06388C1.08849 8.87454 1.02262 8.68216 0.966957 8.4873C0.949634 8.54781 0.933195 8.60859 0.917969 8.66964C1.17135 9.47262 1.60402 10.2311 2.21615 10.8827C2.2146 10.833 2.21366 10.7832 2.21333 10.7332C1.76693 10.2398 1.41496 9.67939 1.16528 9.06388Z" fill="white"/>
<path opacity="0.5" d="M0.862774 8.49081C0.87982 8.42981 0.89786 8.36903 0.916947 8.30847C0.804684 7.85908 0.747807 7.39706 0.747807 6.92743C0.747807 6.46138 0.803635 6.00283 0.914299 5.55664C0.856209 5.65294 0.801263 5.75117 0.748855 5.85099C0.584073 6.72545 0.622138 7.63047 0.862719 8.49081" fill="white"/>
<path opacity="0.5" d="M11.2916 9.90122C11.1273 10.287 10.8971 10.6378 10.6152 10.9399C10.84 10.7055 11.041 10.4567 11.2186 10.1968C11.2521 10.0895 11.2823 9.98124 11.3092 9.87231C11.3034 9.88197 11.2975 9.89156 11.2916 9.90122Z" fill="white"/>
<path opacity="0.5" d="M8.57481 12.206C8.38537 12.2828 8.19295 12.3487 7.99805 12.4043C8.05867 12.4216 8.11941 12.4381 8.18043 12.4533C8.60499 12.3194 9.01708 12.1354 9.40761 11.9012C9.29816 11.9287 9.18744 11.9529 9.07556 11.9739C8.91304 12.059 8.74611 12.1366 8.57476 12.206" fill="white"/>
<path opacity="0.5" d="M11.7052 9.06388C11.6358 9.23519 11.5582 9.40208 11.473 9.56456C11.452 9.67642 11.4278 9.78711 11.4004 9.89653C11.6346 9.5061 11.8186 9.0941 11.9526 8.66964C11.9373 8.60859 11.9209 8.54781 11.9036 8.4873C11.8479 8.68216 11.782 8.87454 11.7052 9.06388Z" fill="white"/>
<path opacity="0.5" d="M9.4 11.7887C9.39035 11.7946 9.38075 11.8006 9.37109 11.8064C9.48005 11.7794 9.58828 11.7493 9.69564 11.7158C9.95569 11.5382 10.2045 11.3372 10.439 11.1125C10.1368 11.3943 9.78584 11.6245 9.4 11.7887Z" fill="white"/>
<path opacity="0.5" d="M4.21499 12.2819C4.19711 12.2388 4.17979 12.1955 4.16297 12.152C3.5098 11.8681 2.92128 11.4668 2.41204 10.9577C2.37805 10.9237 2.34457 10.8894 2.31152 10.8547C2.31274 10.9043 2.31467 10.9537 2.31715 11.003C2.32537 11.0114 2.33331 11.0198 2.34159 11.0281C2.89546 11.5818 3.53379 11.9996 4.21499 12.2819Z" fill="white"/>
<path opacity="0.5" d="M4.29551 12.1927C4.29468 12.1924 4.2938 12.192 4.29297 12.1917C4.3104 12.2346 4.32833 12.2773 4.34676 12.3197C4.95933 12.5563 5.60395 12.6849 6.25149 12.7054C6.21508 12.6712 6.17906 12.6366 6.14353 12.6016C5.50718 12.5695 4.88678 12.4324 4.29551 12.1927Z" fill="white"/>
<path opacity="0.5" d="M11.7081 4.78611C11.9478 5.37724 12.0849 5.9975 12.117 6.6337C12.1521 6.66921 12.1867 6.70523 12.2209 6.74163C12.2004 6.09424 12.0718 5.44977 11.8351 4.83734C11.7927 4.81892 11.75 4.801 11.707 4.78357C11.7074 4.7844 11.7077 4.78528 11.7081 4.78611Z" fill="white"/>
<path opacity="0.5" d="M11.6511 4.65374C11.6946 4.67051 11.7379 4.68788 11.7811 4.70575C11.4986 4.02472 11.0808 3.38653 10.527 2.83279C10.5187 2.82452 10.5102 2.81658 10.5019 2.80836C10.4525 2.80588 10.4031 2.80395 10.3535 2.80273C10.3882 2.83572 10.4225 2.86925 10.4565 2.90317C10.9658 3.41235 11.3672 4.00072 11.6511 4.65374Z" fill="white"/>
<path opacity="0.5" d="M7.99761 12.5033C7.93659 12.4862 7.8758 12.4682 7.81523 12.4491C7.36573 12.5613 6.9036 12.6182 6.43386 12.6182C6.38581 12.6182 6.33787 12.6175 6.29004 12.6164C6.32601 12.6506 6.36242 12.6842 6.3991 12.7174C6.41069 12.7175 6.42227 12.7178 6.43386 12.7178C6.96042 12.7178 7.48682 12.6461 7.99761 12.5033Z" fill="white"/>
<path opacity="0.5" d="M11.9561 8.30547C11.9751 8.36603 11.9932 8.42681 12.0102 8.48781C12.1562 7.96595 12.2276 7.42765 12.2244 6.88968C12.1912 6.85295 12.1576 6.81654 12.1234 6.78064C12.1245 6.82846 12.1252 6.87639 12.1252 6.92443C12.1252 7.39406 12.0683 7.85608 11.9561 8.30547Z" fill="white"/>
<path opacity="0.5" d="M8.57476 1.66461C9.19036 1.91424 9.75085 2.26612 10.2444 2.71247C10.2945 2.71275 10.3443 2.71369 10.394 2.71523C9.7423 2.10325 8.9836 1.67068 8.18043 1.41736C8.11936 1.43258 8.05862 1.44902 7.99805 1.46633C8.19295 1.52198 8.38537 1.58784 8.57476 1.66461Z" fill="white"/>
<path opacity="0.5" d="M0.914413 5.5594C0.941444 5.45025 0.972062 5.34192 1.00566 5.23438C0.941665 5.32803 0.88043 5.42361 0.821898 5.52112C0.79437 5.63137 0.770042 5.74228 0.749023 5.85375C0.801376 5.75392 0.856377 5.65569 0.914413 5.5594Z" fill="white"/>
<path opacity="0.5" d="M11.3104 9.85993C11.2834 9.96892 11.2533 10.0771 11.2197 10.1844C11.2839 10.0905 11.3451 9.99511 11.4031 9.89832C11.4305 9.7889 11.4547 9.6782 11.4758 9.56641C11.4236 9.66601 11.3683 9.7638 11.3104 9.85993Z" fill="white"/>
<path opacity="0.5" d="M11.9533 8.67522C11.9724 8.61466 11.9904 8.55388 12.0075 8.49288C11.9904 8.43188 11.9724 8.37111 11.9533 8.31055C11.9381 8.3716 11.9216 8.43233 11.9043 8.49288C11.9216 8.55344 11.9381 8.61417 11.9533 8.67522Z" fill="white"/>
<path opacity="0.5" d="M0.916478 8.31055C0.897391 8.37111 0.879351 8.43188 0.862305 8.49288C0.879351 8.55388 0.897391 8.61466 0.916478 8.67522C0.931704 8.61417 0.948144 8.55344 0.965466 8.49288C0.948144 8.43233 0.931704 8.3716 0.916478 8.31055Z" fill="white"/>
<path opacity="0.5" d="M2.31189 10.8509C2.27769 10.815 2.24409 10.7787 2.21094 10.7421C2.21127 10.792 2.21215 10.8418 2.21375 10.8915C2.24779 10.9278 2.28238 10.9637 2.31752 10.9992C2.31504 10.9499 2.31311 10.9004 2.31189 10.8509Z" fill="white"/>
<path opacity="0.5" d="M12.1229 6.78427C12.1571 6.82023 12.1907 6.85663 12.2239 6.89336C12.2236 6.84345 12.2226 6.79354 12.221 6.74362C12.1869 6.70722 12.1523 6.67121 12.1172 6.63574C12.1197 6.68516 12.1217 6.73463 12.1229 6.78427Z" fill="white"/>
<path opacity="0.5" d="M11.8362 4.8365C11.8194 4.79304 11.802 4.74975 11.7842 4.70662C11.741 4.68875 11.6977 4.67143 11.6543 4.65466C11.6727 4.69708 11.6907 4.73977 11.7081 4.78267C11.7511 4.80016 11.7938 4.81808 11.8362 4.8365Z" fill="white"/>
<path opacity="0.5" d="M4.16406 12.1434C4.18083 12.1869 4.19821 12.2302 4.21608 12.2733C4.25922 12.2912 4.30253 12.3085 4.34595 12.3253C4.32752 12.2829 4.30959 12.2402 4.29216 12.1973C4.24918 12.1798 4.20649 12.1619 4.16406 12.1434Z" fill="white"/>
<path opacity="0.5" d="M10.354 2.80699C10.4035 2.8082 10.453 2.81013 10.5023 2.81261C10.4668 2.77748 10.4309 2.7429 10.3946 2.70887C10.3449 2.70732 10.2951 2.70639 10.2451 2.70605C10.2817 2.7392 10.318 2.77279 10.354 2.80699Z" fill="white"/>
<path opacity="0.5" d="M6.29407 12.6159C6.24442 12.6147 6.19494 12.6127 6.14551 12.6102C6.18098 12.6453 6.217 12.6799 6.25341 12.714C6.30334 12.7156 6.35321 12.7166 6.40314 12.717C6.36645 12.6837 6.33004 12.6501 6.29407 12.6159Z" fill="white"/>
<path opacity="0.5" d="M7.81641 12.4496C7.87698 12.4687 7.93777 12.4867 7.99879 12.5038C8.0598 12.4867 8.12059 12.4687 8.18117 12.4496C8.1201 12.4344 8.05936 12.4179 7.99879 12.4006C7.93821 12.4179 7.87748 12.4344 7.81641 12.4496Z" fill="white"/>
<path opacity="0.5" d="M8.18117 1.40768C8.12059 1.38859 8.0598 1.37056 7.99879 1.35352C7.93777 1.37056 7.87698 1.38859 7.81641 1.40768C7.87748 1.4229 7.93821 1.43933 7.99879 1.45665C8.05936 1.43933 8.1201 1.4229 8.18117 1.40768Z" fill="white"/>
<path opacity="0.5" d="M9.37075 11.7989C9.27459 11.8568 9.17678 11.912 9.07715 11.9642C9.18897 11.9431 9.29969 11.919 9.40914 11.8916C9.50596 11.8336 9.60134 11.7724 9.69529 11.7083C9.58799 11.7418 9.47975 11.7719 9.37075 11.7989Z" fill="white"/>
<path opacity="0.5" d="M5.06533 1.40595C5.16165 1.34793 5.2599 1.29294 5.3597 1.2406C5.24826 1.26161 5.13732 1.28594 5.02705 1.31351C4.92951 1.37198 4.83391 1.4332 4.74023 1.49717C4.84781 1.46359 4.95616 1.43298 5.06533 1.40595Z" fill="white"/>
</g>
<path d="M30.3665 8.05078C30.3665 11.3184 28.3157 13.1367 25.6634 13.1367C22.9973 13.1367 20.9602 11.3047 20.9602 8.05078C20.9602 4.7832 22.9973 2.96484 25.6634 2.96484C28.3157 2.96484 30.3665 4.7832 30.3665 8.05078ZM27.9876 8.05078C27.9876 6.08203 27.1126 5.01562 25.6634 5.01562C24.2141 5.01562 23.3391 6.08203 23.3391 8.05078C23.3391 10.0195 24.2141 11.0859 25.6634 11.0859C27.1126 11.0859 27.9876 10.0195 27.9876 8.05078ZM31.6773 13V3.10156H35.7652C37.9801 3.10156 39.1285 4.11328 39.1285 5.61719C39.1285 6.75195 38.3629 7.53125 37.2828 7.75V7.8457C38.4723 7.90039 39.5113 8.80273 39.5113 10.2383C39.5113 11.8379 38.2672 13 36.0797 13H31.6773ZM35.5328 11.1133C36.5992 11.1133 37.0777 10.6895 37.0777 9.97852C37.0777 9.19922 36.5035 8.70703 35.5738 8.70703H34.0016V11.1133H35.5328ZM35.3824 7.18945C36.1754 7.18945 36.7496 6.76562 36.7496 6.05469C36.7496 5.38477 36.2438 4.96094 35.4098 4.96094H34.0016V7.18945H35.3824ZM45.9355 6.04102C45.8808 5.31641 45.3476 4.89258 44.3905 4.89258C43.4472 4.89258 42.9687 5.30273 42.955 5.86328C42.9413 6.47852 43.5429 6.7793 44.4316 6.9707L45.2929 7.17578C47.1933 7.59961 48.3007 8.54297 48.3144 10.1289C48.3007 12.002 46.8515 13.1367 44.3905 13.1367C41.9296 13.1367 40.33 12.0156 40.289 9.74609H42.5312C42.5859 10.7031 43.2968 11.1953 44.3632 11.1953C45.3476 11.1953 45.9355 10.7578 45.9491 10.1289C45.9355 9.55469 45.4296 9.25391 44.3359 9.00781L43.2968 8.76172C41.5878 8.36523 40.5488 7.51758 40.5488 6.02734C40.5351 4.19531 42.162 2.96484 44.4042 2.96484C46.6874 2.96484 48.1503 4.20898 48.1777 6.04102H45.9355ZM49.4475 13V3.10156H56.2971V5.00195H51.7717V7.09375H55.9416V8.99414H51.7717V11.0996H56.3108V13H49.4475ZM57.7173 13V3.10156H61.7642C63.9927 3.10156 65.3599 4.35938 65.3599 6.38281C65.3599 7.74316 64.7379 8.7207 63.6509 9.21289L65.7154 13H63.1588L61.3404 9.5957H60.0416V13H57.7173ZM60.0416 7.73633H61.272C62.3658 7.73633 62.9537 7.3125 62.9537 6.38281C62.9537 5.45312 62.3658 4.98828 61.272 4.98828H60.0416V7.73633ZM68.4618 3.10156L70.7177 10.4023H70.7997L73.0555 3.10156H75.6532L72.3036 13H69.2138L65.8505 3.10156H68.4618ZM76.6359 13V3.10156H83.4855V5.00195H78.9602V7.09375H83.1301V8.99414H78.9602V11.0996H83.4992V13H76.6359ZM84.9058 13V3.10156H88.9527C91.1812 3.10156 92.5484 4.35938 92.5484 6.38281C92.5484 7.74316 91.9263 8.7207 90.8394 9.21289L92.9038 13H90.3472L88.5288 9.5957H87.23V13H84.9058ZM87.23 7.73633H88.4605C89.5542 7.73633 90.1421 7.3125 90.1421 6.38281C90.1421 5.45312 89.5542 4.98828 88.4605 4.98828H87.23V7.73633ZM100.475 13H96.8517V3.10156H100.475C103.496 3.10156 105.356 4.96094 105.356 8.05078C105.356 11.1406 103.496 13 100.475 13ZM99.1759 11.0039H100.393C102.088 11.0039 103.018 10.1973 103.018 8.05078C103.018 5.9043 102.088 5.08398 100.365 5.08398H99.1759V11.0039ZM106.311 10.9355C106.311 9.29492 107.583 8.70703 109.059 8.61133C109.592 8.57715 110.522 8.54297 110.836 8.5293V7.92773C110.836 7.4082 110.454 7.12109 109.825 7.12109C109.209 7.12109 108.827 7.38086 108.731 7.87305H106.584C106.68 6.56055 107.801 5.48047 109.879 5.48047C111.711 5.48047 113.147 6.35547 113.147 7.95508V13H110.973V11.9609H110.918C110.508 12.7129 109.797 13.1367 108.758 13.1367C107.336 13.1367 106.311 12.4121 106.311 10.9355ZM108.499 10.8398C108.499 11.3457 108.895 11.6055 109.456 11.6055C110.235 11.6055 110.864 11.0996 110.85 10.3613V9.88281C110.57 9.89648 109.784 9.93066 109.442 9.96484C108.868 10.0332 108.499 10.3477 108.499 10.8398ZM118.628 5.57617V7.27148H117.274V10.6758C117.274 11.1406 117.507 11.2773 117.903 11.291C118.095 11.3047 118.464 11.2773 118.723 11.2637V13.0273C118.505 13.0547 118.122 13.1094 117.575 13.1094C115.948 13.1094 114.964 12.4395 114.977 10.9355V7.27148H113.979V5.57617H114.977V3.79883H117.274V5.57617H118.628ZM119.405 10.9355C119.405 9.29492 120.677 8.70703 122.153 8.61133C122.687 8.57715 123.616 8.54297 123.931 8.5293V7.92773C123.931 7.4082 123.548 7.12109 122.919 7.12109C122.304 7.12109 121.921 7.38086 121.825 7.87305H119.679C119.775 6.56055 120.896 5.48047 122.974 5.48047C124.806 5.48047 126.241 6.35547 126.241 7.95508V13H124.068V11.9609H124.013C123.603 12.7129 122.892 13.1367 121.853 13.1367C120.431 13.1367 119.405 12.4121 119.405 10.9355ZM121.593 10.8398C121.593 11.3457 121.989 11.6055 122.55 11.6055C123.329 11.6055 123.958 11.0996 123.944 10.3613V9.88281C123.664 9.89648 122.878 9.93066 122.536 9.96484C121.962 10.0332 121.593 10.3477 121.593 10.8398ZM132.939 6.04102C132.884 5.31641 132.351 4.89258 131.394 4.89258C130.451 4.89258 129.972 5.30273 129.958 5.86328C129.945 6.47852 130.546 6.7793 131.435 6.9707L132.296 7.17578C134.197 7.59961 135.304 8.54297 135.318 10.1289C135.304 12.002 133.855 13.1367 131.394 13.1367C128.933 13.1367 127.333 12.0156 127.292 9.74609H129.535C129.589 10.7031 130.3 11.1953 131.367 11.1953C132.351 11.1953 132.939 10.7578 132.953 10.1289C132.939 9.55469 132.433 9.25391 131.339 9.00781L130.3 8.76172C128.591 8.36523 127.552 7.51758 127.552 6.02734C127.539 4.19531 129.165 2.96484 131.408 2.96484C133.691 2.96484 135.154 4.20898 135.181 6.04102H132.939ZM140.58 5.57617V7.27148H139.226V10.6758C139.226 11.1406 139.459 11.2773 139.855 11.291C140.047 11.3047 140.416 11.2773 140.676 11.2637V13.0273C140.457 13.0547 140.074 13.1094 139.527 13.1094C137.9 13.1094 136.916 12.4395 136.929 10.9355V7.27148H135.931V5.57617H136.929V3.79883H139.226V5.57617H140.58ZM145.063 13.1367C142.738 13.1367 141.33 11.5918 141.33 9.30859C141.33 7.02539 142.738 5.48047 145.063 5.48047C147.387 5.48047 148.795 7.02539 148.795 9.30859C148.795 11.5918 147.387 13.1367 145.063 13.1367ZM145.076 11.4004C145.951 11.4004 146.443 10.5391 146.443 9.29492C146.443 8.05078 145.951 7.18945 145.076 7.18945C144.174 7.18945 143.682 8.05078 143.682 9.29492C143.682 10.5391 144.174 11.4004 145.076 11.4004ZM149.914 13V5.57617H152.157V6.91602H152.225C152.498 5.94531 153.155 5.4668 153.975 5.4668C154.194 5.4668 154.44 5.50781 154.631 5.54883V7.55859C154.413 7.49023 154.002 7.44922 153.715 7.44922C152.854 7.44922 152.225 8.05078 152.225 8.93945V13H149.914ZM158.717 13.1367C156.393 13.1367 154.971 11.6875 154.971 9.32227C154.971 7.02539 156.407 5.48047 158.635 5.48047C160.714 5.48047 162.217 6.80664 162.217 9.26758V9.85547H157.241V9.89648C157.241 10.8535 157.829 11.4688 158.759 11.4688C159.387 11.4688 159.852 11.1953 160.044 10.7578H162.19C161.917 12.207 160.645 13.1367 158.717 13.1367ZM157.241 8.50195H160.071C160.057 7.70898 159.483 7.14844 158.69 7.14844C157.87 7.14844 157.275 7.72949 157.241 8.50195Z" fill="#6A7982"/>
</svg>
