<svg width="20" height="20" viewBox="0 0 20 20" fill="none" xmlns="http://www.w3.org/2000/svg">
<path d="M18.9219 9.99601C19.2609 11.2085 19.2781 12.4919 18.9731 13.7116C19.6248 12.6256 19.9998 11.3547 19.9998 9.99601C19.9998 8.63737 19.6248 7.36643 18.9731 6.28046C19.2781 7.50011 19.2609 8.78353 18.9219 9.99601Z" fill="#1FBAE5"/>
<path d="M16.3047 3.68408C16.859 4.66843 17.1895 5.79543 17.2271 6.9964C18.0499 7.87224 18.6133 8.90278 18.9176 9.99068C19.2566 8.7782 19.2738 7.49478 18.9688 6.2752C18.3218 5.19715 17.402 4.30173 16.3047 3.68408Z" fill="#1FBAE5"/>
<path d="M14.7257 5.25899C15.5772 5.6119 16.3751 6.13407 17.0675 6.82624C17.1221 6.88078 17.1753 6.93628 17.2277 6.99212C17.1901 5.79115 16.8596 4.66416 16.3053 3.6798C15.3207 3.12558 14.1934 2.79521 12.9922 2.75757C13.048 2.81003 13.1036 2.86319 13.1581 2.91779C13.8504 3.60997 14.3727 4.40769 14.7257 5.25899Z" fill="#1FBAE5"/>
<path d="M9.99707 3.30483C10.811 3.64161 11.55 4.12255 12.1824 4.71586C13.0492 4.74337 13.9119 4.92572 14.7256 5.26299C14.3726 4.41169 13.8504 3.61396 13.158 2.92179C13.1034 2.86719 13.0479 2.81403 12.9921 2.76157C12.9154 2.75915 12.8386 2.75757 12.7614 2.75757C11.7823 2.75757 10.8488 2.9524 9.99707 3.30483Z" fill="#1FBAE5"/>
<path d="M9.99778 4.97673C10.7108 4.77741 11.4483 4.68938 12.1831 4.71268C11.5507 4.11929 10.8117 3.63836 9.99778 3.30157C9.18387 3.63836 8.44485 4.11929 7.8125 4.71268C8.54725 4.68938 9.28476 4.77741 9.99778 4.97673Z" fill="#1FBAE5"/>
<path d="M6.45312 6.4459C7.0061 6.13463 7.60404 5.89396 8.23493 5.73615C8.79267 5.40171 9.38571 5.14918 9.99689 4.97834C9.28386 4.77903 8.54635 4.69099 7.8116 4.71429C7.27559 5.21722 6.81633 5.80088 6.45312 6.4459Z" fill="#1FBAE5"/>
<path d="M6.94814 6.72042C7.3472 6.33807 7.77929 6.01046 8.23497 5.73724C7.60407 5.89512 7.00613 6.1358 6.45316 6.447C6.14181 6.99992 5.90108 7.59771 5.74316 8.22846C6.01645 7.77289 6.34413 7.3409 6.72658 6.94193C6.79788 6.86555 6.87173 6.79164 6.94814 6.72042Z" fill="#1FBAE5"/>
<path d="M6.73017 6.94531C6.34773 7.34428 6.01997 7.77627 5.74676 8.23184C5.6178 8.7469 5.54402 9.28382 5.53223 9.83605C5.57084 8.72008 6.01852 7.70815 6.73017 6.94531Z" fill="#1FBAE5"/>
<path d="M16.3086 3.69011C17.4059 4.30776 18.3257 5.20318 18.9726 6.28123C18.6654 5.05254 18.0317 3.8888 17.0707 2.9281C16.1098 1.96739 14.9458 1.33382 13.7168 1.02661C14.7951 1.67342 15.6907 2.59304 16.3085 3.69011" fill="#0ED2D7"/>
<path d="M9.99707 1.073C11.0852 1.37717 12.116 1.94043 12.9921 2.76304C14.1933 2.80068 15.3206 3.13112 16.3052 3.68528C15.6874 2.5882 14.7918 1.66859 13.7135 1.02177C12.4936 0.716845 11.2098 0.734011 9.99707 1.073Z" fill="#0ED2D7"/>
<path d="M9.99694 3.32052C10.8486 2.96809 11.7821 2.77326 12.7613 2.77326C12.8385 2.77326 12.9153 2.77485 12.9919 2.77726C12.1159 1.95465 11.0851 1.39139 9.99694 1.08722C8.90878 1.39139 7.878 1.95465 7.00195 2.77726C7.07857 2.77485 7.15539 2.77326 7.23262 2.77326C8.21175 2.77326 9.14524 2.96809 9.99694 3.32052Z" fill="#0ED2D7"/>
<path d="M5.27051 5.26299C6.08421 4.92572 6.94695 4.74337 7.81375 4.71586C8.4461 4.12248 9.18512 3.64161 9.99904 3.30483C9.14733 2.9524 8.21385 2.75757 7.23471 2.75757C7.15755 2.75757 7.08066 2.75915 7.00405 2.76157C6.94819 2.81403 6.89268 2.86719 6.83813 2.92179C6.14579 3.61396 5.6235 4.41169 5.27051 5.26299Z" fill="#0ED2D7"/>
<path d="M6.4537 6.46263C6.8169 5.81761 7.27617 5.23395 7.81218 4.73102C6.94537 4.75846 6.08264 4.94088 5.26893 5.27814C4.93159 6.09166 4.74913 6.95419 4.72168 7.82079C5.22473 7.2849 5.80853 6.82575 6.4537 6.46263Z" fill="#0ED2D7"/>
<path d="M4.98945 10.0048C5.16033 9.39381 5.41292 8.80091 5.74737 8.2433C5.90528 7.61255 6.14601 7.01476 6.45736 6.46191C5.81219 6.82503 5.22839 7.28418 4.72534 7.82007C4.70203 8.55465 4.79009 9.29198 4.98945 10.0048Z" fill="#0ED2D7"/>
<path d="M5.52864 9.99512C5.52864 9.94245 5.52988 9.89005 5.53167 9.83779C5.54346 9.28557 5.61725 8.74865 5.7462 8.23358C5.41175 8.79118 5.15916 9.38409 4.98828 9.99512C5.15916 10.6061 5.41175 11.199 5.7462 11.7567C5.61725 11.2416 5.54346 10.7047 5.53167 10.1524C5.52988 10.1002 5.52864 10.0478 5.52864 9.99512Z" fill="#0ED2D7"/>
<path d="M5.53223 10.146C5.54402 10.6982 5.6178 11.2351 5.74676 11.7502C6.02004 12.2058 6.34773 12.6378 6.73017 13.0367C6.01852 12.274 5.57084 11.262 5.53223 10.146Z" fill="#0ED2D7"/>
<path d="M18.9726 13.7092C18.3257 14.7872 17.4058 15.6826 16.3085 16.3003C15.6907 17.3974 14.7951 18.317 13.7168 18.9637C14.9457 18.6565 16.1097 18.0229 17.0706 17.0623C18.0316 16.1016 18.6653 14.9378 18.9726 13.7092Z" fill="#25B1EA"/>
<path d="M18.9225 10.0048C18.6182 11.0927 18.0548 12.1233 17.232 12.9991C17.1944 14.2001 16.8639 15.3271 16.3096 16.3114C17.4069 15.6938 18.3267 14.7984 18.9737 13.7204C19.2787 12.5007 19.2615 11.2173 18.9225 10.0048Z" fill="#25B1EA"/>
<path d="M16.6875 9.99984C17.04 10.8513 17.2349 11.7846 17.2349 12.7635C17.2349 12.8407 17.2333 12.9175 17.2309 12.9941C18.0537 12.1183 18.6171 11.0877 18.9213 9.99984C18.6171 8.91194 18.0537 7.88139 17.2309 7.00555C17.2333 7.08215 17.2349 7.15895 17.2349 7.23617C17.2349 8.21507 17.04 9.14834 16.6875 9.99984Z" fill="#25B1EA"/>
<path d="M14.7285 5.27423C15.0659 6.08775 15.2483 6.95028 15.2758 7.81688C15.8693 8.44908 16.3503 9.18793 16.6871 10.0016C17.0396 9.15015 17.2345 8.21688 17.2345 7.23797C17.2345 7.16083 17.2329 7.08396 17.2305 7.00736C17.178 6.95152 17.1249 6.89602 17.0703 6.84149C16.3779 6.14931 15.58 5.62714 14.7285 5.27423Z" fill="#25B1EA"/>
<path d="M13.5401 6.46263C14.1853 6.82575 14.769 7.2849 15.2721 7.82079C15.2446 6.95419 15.0622 6.09166 14.7249 5.27814C13.9112 4.94088 13.0484 4.75846 12.1816 4.73102C12.7177 5.23395 13.1769 5.81761 13.5401 6.46263Z" fill="#25B1EA"/>
<path d="M9.99707 4.97834C10.6082 5.14918 11.2013 5.40171 11.759 5.73608C12.3899 5.89396 12.9879 6.13463 13.5408 6.4459C13.1776 5.80088 12.7184 5.21722 12.1824 4.71429C11.4476 4.69099 10.7101 4.77903 9.99707 4.97834Z" fill="#25B1EA"/>
<path d="M9.9973 5.53284C10.05 5.53284 10.1024 5.53408 10.1547 5.53588C10.707 5.54767 11.2441 5.62143 11.7593 5.75036C11.2015 5.41599 10.6085 5.16345 9.9973 4.99261C9.38613 5.16345 8.79309 5.41599 8.23535 5.75036C8.75054 5.62143 9.28758 5.54767 9.83994 5.53588C9.89221 5.53408 9.94462 5.53284 9.9973 5.53284Z" fill="#25B1EA"/>
<path d="M9.84259 5.53583C9.29023 5.54762 8.75319 5.62138 8.238 5.75031C7.78226 6.02352 7.35023 6.35113 6.95117 6.73349C7.71419 6.02201 8.72636 5.57444 9.84259 5.53583Z" fill="#25B1EA"/>
<path d="M9.99866 18.9224C8.78589 19.2614 7.50217 19.2785 6.28223 18.9736C7.36846 19.6251 8.6397 20 9.99866 20C11.3576 20 12.6289 19.6251 13.7151 18.9736C12.4951 19.2785 11.2114 19.2614 9.99866 18.9224Z" fill="#2DA5F2"/>
<path d="M16.3053 16.3056C15.3206 16.8598 14.1934 17.1902 12.9921 17.2278C12.1161 18.0505 11.0853 18.6137 9.99707 18.9179C11.2099 19.2569 12.4936 19.274 13.7135 18.9691C14.7918 18.3223 15.6874 17.4027 16.3052 16.3056" fill="#2DA5F2"/>
<path d="M17.0675 13.15C16.3751 13.8422 15.5772 14.3643 14.7257 14.7173C14.3727 15.5686 13.8504 16.3663 13.1581 17.0585C13.1035 17.1131 13.048 17.1662 12.9922 17.2187C14.1935 17.181 15.3208 16.8506 16.3053 16.2965C16.8596 15.3121 17.1902 14.1851 17.2278 12.9841C17.1753 13.04 17.1222 13.0954 17.0675 13.15Z" fill="#2DA5F2"/>
<path d="M16.6871 10.0048C16.3503 10.8185 15.8692 11.5574 15.2758 12.1896C15.2483 13.0563 15.0659 13.9187 14.7285 14.7322C15.58 14.3793 16.3779 13.8572 17.0703 13.1651C17.1249 13.1104 17.178 13.0549 17.2305 12.9991C17.2329 12.9225 17.2345 12.8457 17.2345 12.7685C17.2345 11.7896 17.0396 10.8563 16.6871 10.0048Z" fill="#2DA5F2"/>
<path d="M15.0107 9.99556C15.2101 10.7084 15.2982 11.4458 15.2749 12.1803C15.8684 11.5481 16.3494 10.8093 16.6863 9.99556C16.3494 9.18184 15.8684 8.44299 15.2749 7.81079C15.2982 8.54537 15.2101 9.2827 15.0107 9.99556Z" fill="#2DA5F2"/>
<path d="M13.541 6.46191C13.8524 7.01476 14.0931 7.61255 14.2509 8.2433C14.5855 8.80091 14.838 9.39381 15.0089 10.0048C15.2083 9.29198 15.2963 8.55465 15.273 7.82007C14.7699 7.28418 14.1862 6.82503 13.541 6.46191Z" fill="#2DA5F2"/>
<path d="M13.2672 6.94193C13.6496 7.3409 13.9773 7.77289 14.2506 8.22846C14.0927 7.59771 13.8519 6.99991 13.5407 6.44707C12.9876 6.1358 12.3897 5.89512 11.7588 5.73724C12.2145 6.01046 12.6466 6.33807 13.0456 6.72042C13.122 6.79171 13.1959 6.86555 13.2672 6.94193Z" fill="#2DA5F2"/>
<path d="M13.0496 6.73349C12.6506 6.35113 12.2185 6.02352 11.7628 5.75031C11.2476 5.62138 10.7106 5.54762 10.1582 5.53583C11.2744 5.57444 12.2866 6.02201 13.0496 6.73349Z" fill="#2DA5F2"/>
<path d="M1.07788 9.99601C0.738818 8.78353 0.721647 7.50011 1.02665 6.28046C0.374994 7.36643 0 8.63737 0 9.99601C0 11.3547 0.374994 12.6256 1.02665 13.7116C0.721647 12.4919 0.738818 11.2085 1.07788 9.99601Z" fill="#1FBAE5"/>
<path d="M3.69129 16.3114C3.137 15.3271 2.80649 14.2001 2.76884 12.9991C1.94603 12.1233 1.38264 11.0927 1.0784 10.0048C0.73926 11.2173 0.722159 12.5007 1.02716 13.7203C1.67413 14.7984 2.59396 15.6938 3.69129 16.3114Z" fill="#1FBAE5"/>
<path d="M5.27056 14.7172C4.41907 14.3643 3.62115 13.8421 2.92881 13.1499C2.8742 13.0954 2.82103 13.0399 2.76855 12.9841C2.80621 14.185 3.13665 15.312 3.69101 16.2964C4.67559 16.8506 5.80285 17.181 7.0041 17.2186C6.94825 17.1662 6.89273 17.113 6.83819 17.0584C6.14585 16.3662 5.62356 15.5685 5.27056 14.7172Z" fill="#1FBAE5"/>
<path d="M9.99904 16.6736C9.18512 16.3368 8.4461 15.8559 7.81375 15.2626C6.94688 15.2351 6.08421 15.0527 5.27051 14.7155C5.6235 15.5667 6.14572 16.3645 6.83806 17.0567C6.89268 17.1113 6.94819 17.1644 7.00405 17.2169C7.08066 17.2193 7.15748 17.2209 7.23471 17.2209C8.21385 17.2209 9.14733 17.026 9.99904 16.6736Z" fill="#1FBAE5"/>
<path d="M9.99778 14.997C9.28476 15.1963 8.54725 15.2844 7.8125 15.2611C8.44485 15.8544 9.18387 16.3354 9.99778 16.6722C10.8117 16.3354 11.5507 15.8544 12.1831 15.2611C11.4483 15.2844 10.7108 15.1963 9.99778 14.997Z" fill="#1FBAE5"/>
<path d="M13.5408 13.548C12.9879 13.8593 12.3899 14.1 11.759 14.2578C11.2013 14.5922 10.6082 14.8448 9.99707 15.0156C10.7101 15.2149 11.4476 15.303 12.1824 15.2796C12.7184 14.7767 13.1776 14.1931 13.5408 13.548Z" fill="#1FBAE5"/>
<path d="M13.2672 13.0426C13.1959 13.119 13.122 13.1929 13.0456 13.2641C12.6466 13.6464 12.2145 13.9741 11.7588 14.2473C12.3896 14.0894 12.9876 13.8488 13.5406 13.5375C13.8519 12.9846 14.0927 12.3869 14.2505 11.7561C13.9773 12.2117 13.6496 12.6437 13.2671 13.0426" fill="#1FBAE5"/>
<path d="M13.2695 13.0367C13.6519 12.6378 13.9797 12.2058 14.2529 11.7502C14.3818 11.2351 14.4556 10.6982 14.4674 10.146C14.4289 11.262 13.9811 12.2739 13.2695 13.0367Z" fill="#1FBAE5"/>
<path d="M3.69147 3.69011C4.30927 2.59304 5.2049 1.67342 6.2832 1.02661C5.05422 1.33382 3.89021 1.96739 2.92928 2.9281C1.96835 3.8888 1.33462 5.05254 1.02734 6.28123C1.67431 5.20318 2.59414 4.30776 3.69147 3.69011Z" fill="#19C2E0"/>
<path d="M1.07837 9.99068C1.38262 8.90278 1.946 7.87224 2.76881 6.9964C2.80646 5.79543 3.13698 4.66843 3.69127 3.68408C2.59393 4.30166 1.6741 5.19708 1.02714 6.27513C0.722134 7.49478 0.739305 8.7782 1.07837 9.99068Z" fill="#19C2E0"/>
<path d="M3.31098 9.99984C2.95846 9.14834 2.76359 8.21507 2.76359 7.23617C2.76359 7.15895 2.76518 7.08215 2.76759 7.00555C1.94478 7.88139 1.38139 8.91194 1.07715 9.99984C1.38139 11.0877 1.94478 12.1183 2.76759 12.9941C2.76518 12.9175 2.76359 12.8407 2.76359 12.7635C2.76359 11.7846 2.95846 10.8513 3.31098 9.99984Z" fill="#19C2E0"/>
<path d="M5.26968 14.7322C4.93234 13.9187 4.74994 13.0562 4.72243 12.1896C4.1289 11.5574 3.64792 10.8185 3.31106 10.0048C2.95855 10.8563 2.76367 11.7896 2.76367 12.7685C2.76367 12.8456 2.76526 12.9225 2.76767 12.9991C2.82015 13.0549 2.87332 13.1104 2.92793 13.165C3.62027 13.8572 4.41818 14.3793 5.26968 14.7322Z" fill="#19C2E0"/>
<path d="M6.4537 13.537C5.80853 13.1739 5.22473 12.7147 4.72168 12.1788C4.74913 13.0454 4.93159 13.908 5.26893 14.7215C6.08264 15.0587 6.94537 15.2412 7.81218 15.2686C7.27617 14.7657 6.8169 14.182 6.4537 13.537Z" fill="#19C2E0"/>
<path d="M9.99689 15.0156C9.38571 14.8448 8.79267 14.5922 8.23493 14.2579C7.60404 14.1 7.0061 13.8593 6.45312 13.548C6.81633 14.1931 7.27559 14.7767 7.8116 15.2796C8.54635 15.303 9.28386 15.2149 9.99689 15.0156Z" fill="#19C2E0"/>
<path d="M9.9973 14.4699C9.94462 14.4699 9.89228 14.4687 9.84001 14.4669C9.28765 14.4551 8.75061 14.3813 8.23535 14.2524C8.79309 14.5867 9.38613 14.8393 9.9973 15.0101C10.6085 14.8393 11.2015 14.5867 11.7593 14.2524C11.244 14.3813 10.707 14.4551 10.1546 14.4669C10.1023 14.4687 10.05 14.4699 9.9973 14.4699Z" fill="#19C2E0"/>
<path d="M10.1582 14.4638C10.7106 14.452 11.2476 14.3782 11.7629 14.2493C12.2186 13.9761 12.6507 13.6485 13.0498 13.2661C12.2867 13.9776 11.2745 14.4252 10.1582 14.4638Z" fill="#19C2E0"/>
<path d="M3.69147 16.3003C2.59414 15.6826 1.67431 14.7872 1.02734 13.7092C1.33462 14.9379 1.96835 16.1016 2.92928 17.0623C3.89021 18.023 5.05422 18.6566 6.2832 18.9638C5.2049 18.317 4.30927 17.3974 3.69147 16.3003Z" fill="#25B1EA"/>
<path d="M9.99754 18.9179C8.90938 18.6137 7.87859 18.0505 7.00255 17.2278C5.8013 17.1902 4.67404 16.8598 3.68945 16.3056C4.30718 17.4027 5.20281 18.3223 6.28111 18.9691C7.50105 19.274 8.78477 19.2569 9.99754 18.9179Z" fill="#25B1EA"/>
<path d="M9.99694 16.6885C9.14524 17.0409 8.21175 17.2357 7.23262 17.2357C7.15539 17.2357 7.07857 17.2342 7.00195 17.2317C7.878 18.0544 8.90878 18.6176 9.99694 18.9218C11.0851 18.6176 12.1159 18.0544 12.9919 17.2317C12.9153 17.2342 12.8385 17.2357 12.7613 17.2357C11.7821 17.2357 10.8486 17.0409 9.99694 16.6885Z" fill="#25B1EA"/>
<path d="M14.7256 14.7155C13.9119 15.0527 13.0492 15.2351 12.1824 15.2626C11.55 15.856 10.811 16.3368 9.99707 16.6736C10.8488 17.026 11.7823 17.2209 12.7614 17.2209C12.8386 17.2209 12.9154 17.2193 12.9921 17.2169C13.0479 17.1644 13.1034 17.1113 13.158 17.0567C13.8503 16.3645 14.3726 15.5667 14.7256 14.7155Z" fill="#25B1EA"/>
<path d="M13.5401 13.537C13.1769 14.182 12.7177 14.7657 12.1816 15.2686C13.0484 15.2412 13.9112 15.0587 14.7249 14.7215C15.0622 13.908 15.2446 13.0454 15.2721 12.1788C14.769 12.7147 14.1853 13.1739 13.5401 13.537Z" fill="#25B1EA"/>
<path d="M15.0089 10.0048C14.838 10.6159 14.5855 11.2088 14.251 11.7664C14.0931 12.3971 13.8524 12.9949 13.541 13.5477C14.1862 13.1846 14.77 12.7255 15.273 12.1896C15.2963 11.455 15.2083 10.7177 15.0089 10.0048Z" fill="#25B1EA"/>
<path d="M14.4685 9.99512C14.4685 10.0478 14.4673 10.1002 14.4655 10.1524C14.4537 10.7047 14.3799 11.2416 14.251 11.7567C14.5854 11.199 14.838 10.6061 15.0089 9.99512C14.838 9.38409 14.5854 8.79118 14.251 8.23358C14.3799 8.74865 14.4537 9.28557 14.4655 9.83779C14.4673 9.89005 14.4685 9.94245 14.4685 9.99512Z" fill="#25B1EA"/>
<path d="M14.4675 9.83605C14.4557 9.28382 14.3819 8.7469 14.2529 8.23184C13.9797 7.7762 13.652 7.34428 13.2695 6.94531C13.9812 7.70815 14.4289 8.72008 14.4675 9.83605Z" fill="#25B1EA"/>
<path d="M9.99866 1.07763C11.2114 0.738644 12.4951 0.721477 13.7151 1.02641C12.6289 0.374906 11.3576 0 9.99866 0C8.6397 0 7.36846 0.374906 6.28223 1.02641C7.50217 0.721477 8.78589 0.738644 9.99866 1.07763Z" fill="#14CADB"/>
<path d="M3.68945 3.6853C4.67404 3.13115 5.8013 2.80071 7.00255 2.76307C7.87859 1.94045 8.90938 1.3772 9.99754 1.07302C8.78477 0.733967 7.50105 0.716869 6.28118 1.0218C5.20288 1.66861 4.30725 2.58823 3.68945 3.6853Z" fill="#14CADB"/>
<path d="M5.27056 5.25899C5.62356 4.40769 6.14585 3.60997 6.83819 2.91779C6.89273 2.86319 6.94825 2.81003 7.0041 2.75757C5.80285 2.79521 4.67559 3.12558 3.69101 3.6798C3.13665 4.66416 2.80621 5.79115 2.76855 6.99212C2.82103 6.93628 2.8742 6.88078 2.92881 6.82624C3.62115 6.13407 4.41907 5.6119 5.27056 5.25899Z" fill="#14CADB"/>
<path d="M3.31106 10.0016C3.64792 9.18793 4.12897 8.44908 4.72243 7.81688C4.74994 6.95021 4.93234 6.08775 5.26968 5.27423C4.41812 5.62714 3.62027 6.14924 2.92793 6.84142C2.87332 6.89602 2.82015 6.95152 2.76767 7.00736C2.76526 7.08396 2.76367 7.16076 2.76367 7.23797C2.76367 8.21688 2.95855 9.15015 3.31106 10.0016Z" fill="#14CADB"/>
<path d="M4.98804 9.99556C4.78869 9.2827 4.70063 8.54537 4.72393 7.81079C4.13041 8.44299 3.64936 9.18184 3.3125 9.99556C3.64936 10.8093 4.13041 11.5481 4.72393 12.1803C4.70063 11.4458 4.78869 10.7084 4.98804 9.99556Z" fill="#14CADB"/>
<path d="M6.45736 13.5477C6.14601 12.9949 5.90528 12.3971 5.74744 11.7664C5.41292 11.2088 5.16033 10.6159 4.98945 10.0048C4.79009 10.7177 4.70203 11.455 4.72534 12.1896C5.22839 12.7255 5.81219 13.1846 6.45736 13.5477Z" fill="#14CADB"/>
<path d="M6.72658 13.0426C6.34413 12.6437 6.01638 12.2117 5.74316 11.7561C5.90101 12.3869 6.14174 12.9846 6.45309 13.5375C7.00606 13.8488 7.60407 14.0894 8.2349 14.2473C7.77922 13.9741 7.34713 13.6464 6.94807 13.2641C6.87166 13.1929 6.79781 13.119 6.72658 13.0426Z" fill="#14CADB"/>
<path d="M6.95117 13.2661C7.35023 13.6484 7.78232 13.9761 8.238 14.2493C8.75325 14.3782 9.2903 14.452 9.84272 14.4638C8.72643 14.4252 7.71419 13.9775 6.95117 13.2661Z" fill="#14CADB"/>
<g opacity="0.5">
<path opacity="0.5" d="M6.95182 6.72363C6.87549 6.79485 6.80163 6.86862 6.73047 6.94494C6.76646 6.90736 6.80274 6.86993 6.8397 6.83291C6.87673 6.79588 6.91424 6.75969 6.95182 6.72363Z" fill="white"/>
<path opacity="0.5" d="M4.46537 16.5391C4.23009 16.4396 4.00177 16.3278 3.78027 16.2047C3.81855 16.2735 3.85771 16.3418 3.89819 16.4092C4.83209 16.895 5.88515 17.1831 7.0022 17.2181C6.95697 17.1756 6.91208 17.1323 6.8676 17.0884C6.03672 17.0467 5.23026 16.8625 4.46537 16.5391Z" fill="white"/>
<path opacity="0.5" d="M3.69106 16.3071C3.65224 16.238 3.61438 16.1684 3.57777 16.098C3.0812 15.8 2.62242 15.4419 2.20729 15.0268C1.79527 14.6149 1.43924 14.1601 1.14258 13.6681C1.17637 13.8045 1.21457 13.9399 1.25657 14.0744C1.88409 14.9929 2.71779 15.7592 3.69106 16.3071Z" fill="white"/>
<path opacity="0.5" d="M13.3321 6.32631C13.4025 6.36292 13.4722 6.40077 13.5412 6.43959C13.2088 5.84937 12.7961 5.31045 12.3176 4.83779C12.2558 4.83469 12.194 4.83221 12.1318 4.83069C12.1752 4.87192 12.2182 4.91369 12.2606 4.95616C12.6758 5.37119 13.034 5.82986 13.3321 6.32631" fill="white"/>
<path opacity="0.5" d="M9.84104 3.3737C9.89421 3.35012 9.94786 3.32717 10.0018 3.3049C9.15001 2.95247 8.21653 2.75757 7.23739 2.75757C7.22277 2.75757 7.20829 2.75805 7.19367 2.75812C7.14788 2.79955 7.10244 2.84154 7.05762 2.88428C7.1174 2.88284 7.1774 2.88208 7.23739 2.88208C8.13771 2.88208 9.01265 3.0474 9.84098 3.3737" fill="white"/>
<path opacity="0.5" d="M10.0002 16.534C9.99921 16.5344 9.9981 16.5348 9.99707 16.5353C10.0504 16.5578 10.104 16.5797 10.1578 16.6009C10.9085 16.2687 11.5919 15.8128 12.1824 15.2587C12.1199 15.2607 12.0576 15.2619 11.9952 15.2623C11.4043 15.7962 10.7348 16.2234 10.0002 16.534Z" fill="white"/>
<path opacity="0.5" d="M13.5412 13.5269C13.4721 13.5657 13.4025 13.6036 13.3321 13.6402C13.034 14.1366 12.6758 14.5953 12.2606 15.0103C12.2182 15.0528 12.1752 15.0946 12.1318 15.1359C12.1939 15.1343 12.2558 15.1319 12.3175 15.1287C12.796 14.656 13.2088 14.1172 13.5411 13.5269" fill="white"/>
<path opacity="0.5" d="M3.57777 3.89232C3.61438 3.82193 3.65224 3.7523 3.69106 3.68329C2.71772 4.2311 1.88409 4.99739 1.25657 5.91597C1.21464 6.05041 1.17637 6.18581 1.14258 6.32225C1.43931 5.83014 1.79527 5.3754 2.20729 4.96354C2.62249 4.54844 3.0812 4.19029 3.57777 3.89232Z" fill="white"/>
<path opacity="0.5" d="M14.4652 9.8293C14.4565 9.42371 14.4143 9.02647 14.3415 8.63998C14.2763 8.51547 14.2072 8.39324 14.1348 8.27307C14.1382 8.28707 14.1415 8.30113 14.1449 8.31519C14.3347 8.78552 14.4467 9.29548 14.4652 9.8293Z" fill="white"/>
<path opacity="0.5" d="M14.0221 12.1133C13.9537 12.3322 13.8746 12.5483 13.7846 12.761C13.6851 12.9963 13.5732 13.2245 13.4502 13.446C13.519 13.4077 13.5872 13.3686 13.6547 13.3281C13.9115 12.8345 14.1131 12.3078 14.2513 11.7557C14.1787 11.8767 14.1023 11.9959 14.0221 12.1133Z" fill="white"/>
<path opacity="0.5" d="M13.7846 7.22705C13.8747 7.43988 13.9537 7.65594 14.0221 7.87476C14.1023 7.99224 14.1788 8.11144 14.2514 8.23236C14.1132 7.68035 13.9116 7.15356 13.6547 6.66C13.5873 6.61954 13.519 6.58038 13.4502 6.54211C13.5733 6.76356 13.6851 6.99182 13.7846 7.22705Z" fill="white"/>
<path opacity="0.5" d="M4.46537 3.43658C5.23026 3.11317 6.03672 2.92889 6.8676 2.88725C6.91208 2.84333 6.95697 2.80011 7.0022 2.75757C5.88515 2.79252 4.83209 3.08063 3.89819 3.56653C3.85771 3.63389 3.81855 3.70214 3.78027 3.77095C4.00177 3.64788 4.23009 3.53606 4.46537 3.43658Z" fill="white"/>
<path opacity="0.5" d="M10.0002 3.44872C10.7348 3.7593 11.4043 4.18647 11.9952 4.72042C12.0576 4.72077 12.1199 4.72201 12.1824 4.72401C11.5919 4.16992 10.9085 3.71394 10.1578 3.38177C10.104 3.40294 10.0504 3.42486 9.99707 3.44741C9.9981 3.44789 9.99921 3.4483 10.0002 3.44872Z" fill="white"/>
<path opacity="0.5" d="M14.145 11.6597C14.1416 11.6738 14.1383 11.6879 14.1348 11.7019C14.2072 11.5817 14.2763 11.4595 14.3416 11.3349C14.4143 10.9485 14.4566 10.5512 14.4653 10.1456C14.4468 10.6794 14.3347 11.1894 14.145 11.6597Z" fill="white"/>
<path opacity="0.5" d="M10.0018 16.6763C9.94786 16.654 9.89428 16.6311 9.84098 16.6075C9.01272 16.9338 8.13771 17.0992 7.23746 17.0992C7.1774 17.0992 7.11747 17.0984 7.05762 17.097C7.10251 17.1396 7.14788 17.1817 7.19367 17.2231C7.20829 17.2232 7.22284 17.2236 7.23746 17.2236C8.2166 17.2236 9.15008 17.0288 10.0018 16.6763Z" fill="white"/>
<path opacity="0.5" d="M10.718 18.5246C10.4812 18.6206 10.2407 18.7029 9.99707 18.7725C10.0729 18.7941 10.1488 18.8147 10.225 18.8337C11.229 18.5171 12.1775 17.9763 12.9921 17.2114C12.9299 17.2133 12.8677 17.2145 12.8051 17.2149C12.1881 17.7728 11.4875 18.2126 10.718 18.5246" fill="white"/>
<path opacity="0.5" d="M15.1464 12.3129C15.1062 13.1082 14.9349 13.8835 14.6352 14.6224C14.6348 14.6235 14.6343 14.6245 14.6338 14.6255C14.6875 14.6038 14.7409 14.5814 14.7939 14.5583C15.0898 13.7928 15.2506 12.9872 15.2762 12.178C15.2335 12.2235 15.1902 12.2685 15.1464 12.3129Z" fill="white"/>
<path opacity="0.5" d="M13.0488 6.72544C12.7556 6.44457 12.4446 6.19335 12.1196 5.97143C11.9854 5.92951 11.8501 5.89187 11.7139 5.85815C11.726 5.86539 11.738 5.87284 11.7501 5.88022C12.2324 6.08552 12.671 6.37322 13.0488 6.72544Z" fill="white"/>
<path opacity="0.5" d="M9.76977 5.04578C9.84548 5.02193 9.92147 4.99939 9.99774 4.97808C9.35926 4.79959 8.70119 4.7099 8.04306 4.7099C8.02857 4.7099 8.01409 4.71031 7.99961 4.71038C7.95369 4.75189 7.90817 4.79394 7.86328 4.83668C7.92307 4.83524 7.98299 4.83441 8.04306 4.83441C8.63023 4.83441 9.2079 4.90549 9.76977 5.04578Z" fill="white"/>
<path opacity="0.5" d="M5.36938 5.35078C6.10848 5.05116 6.88398 4.87984 7.67941 4.83972C7.72382 4.79587 7.76885 4.75264 7.81436 4.7099C7.00493 4.73555 6.19916 4.89625 5.43345 5.19201C5.41041 5.24503 5.388 5.29839 5.36621 5.35209C5.36725 5.35168 5.36835 5.3512 5.36938 5.35078Z" fill="white"/>
<path opacity="0.5" d="M15.013 9.98407C14.9917 10.0603 14.9692 10.1363 14.9453 10.212C15.0856 10.7737 15.1567 11.3513 15.1567 11.9383C15.1567 11.9983 15.1559 12.0583 15.1545 12.118C15.1972 12.0731 15.2393 12.0276 15.2808 11.9817C15.2848 11.3092 15.1955 10.6364 15.013 9.98407Z" fill="white"/>
<path opacity="0.5" d="M14.632 9.2736C14.728 9.51028 14.8104 9.75075 14.8799 9.99432C14.9016 9.91863 14.9221 9.84272 14.9412 9.7664C14.7737 9.23582 14.5437 8.72083 14.251 8.23279C14.2852 8.36957 14.3155 8.50794 14.3418 8.64775C14.4483 8.85085 14.5452 9.05947 14.632 9.2736Z" fill="white"/>
<path opacity="0.5" d="M14.7267 14.7147C14.6728 14.737 14.6187 14.7586 14.5643 14.7797C14.2094 15.5959 13.7077 16.3314 13.0711 16.9678C13.0286 17.0103 12.9857 17.0521 12.9424 17.0934C13.0043 17.0919 13.0661 17.0895 13.1278 17.0864C13.1382 17.0761 13.1488 17.0662 13.1591 17.0559C13.8515 16.3637 14.3737 15.566 14.7267 14.7147Z" fill="white"/>
<path opacity="0.5" d="M10.718 5.36156C10.9321 5.44835 11.1408 5.54529 11.344 5.65173C11.4838 5.678 11.6222 5.70827 11.759 5.74253C11.2709 5.44987 10.7557 5.21988 10.225 5.05249C10.1487 5.07152 10.0728 5.09206 9.99707 5.11371C10.2408 5.18327 10.4813 5.26559 10.718 5.36156" fill="white"/>
<path opacity="0.5" d="M10.0016 18.9099C9.92531 18.8886 9.84932 18.8661 9.7736 18.8422C9.21173 18.9825 8.63407 19.0536 8.04689 19.0536C7.4642 19.0536 6.89088 18.9838 6.33301 18.8455C6.45341 18.9181 6.57622 18.9868 6.70104 19.0522C7.14547 19.1359 7.59611 19.1781 8.04689 19.1781C8.7051 19.1781 9.3631 19.0884 10.0016 18.9099Z" fill="white"/>
<path opacity="0.5" d="M5.20395 5.43616C5.22492 5.38184 5.24664 5.32772 5.26898 5.2738C4.41749 5.62679 3.61957 6.14888 2.92723 6.84106C2.91689 6.8514 2.90696 6.86202 2.89668 6.87236C2.89358 6.93406 2.89117 6.99584 2.88965 7.05781C2.93089 7.01445 2.97281 6.97157 3.01522 6.9291C3.65184 6.29263 4.38749 5.79101 5.20395 5.43616Z" fill="white"/>
<path opacity="0.5" d="M1.14614 10.212C1.12228 10.1363 1.09973 10.0603 1.07842 9.98407C0.777623 11.0595 0.730111 12.1908 0.936089 13.2838C1.00153 13.4086 1.07021 13.5314 1.14283 13.6517C1.00456 13.094 0.93471 12.5209 0.93471 11.9383C0.93471 11.3513 1.00581 10.7737 1.14614 10.212Z" fill="white"/>
<path opacity="0.5" d="M1.4566 9.27912C1.7687 8.50973 2.20866 7.80928 2.76667 7.19246C2.76708 7.12993 2.76825 7.06767 2.77018 7.00555C2.00502 7.82003 1.46419 8.76819 1.14746 9.77192C1.16649 9.84824 1.18704 9.92414 1.2087 9.99984C1.27827 9.75627 1.36061 9.5158 1.4566 9.27912Z" fill="white"/>
<path opacity="0.5" d="M14.115 8.24333C14.1223 8.25539 14.1298 8.26739 14.137 8.27946C14.1033 8.14329 14.0657 8.00803 14.0237 7.87387C13.8018 7.54895 13.5505 7.23802 13.2695 6.94495C13.6218 7.32261 13.9096 7.76115 14.115 8.24333Z" fill="white"/>
<path opacity="0.5" d="M1.14326 13.654C1.07072 13.5336 1.00196 13.4108 0.936523 13.286C0.962796 13.4253 0.993207 13.564 1.02769 13.7019C1.10078 13.8237 1.17733 13.9432 1.25732 14.0602C1.21532 13.9258 1.17705 13.7904 1.14326 13.654Z" fill="white"/>
<path opacity="0.5" d="M14.1377 8.27662C14.2102 8.39678 14.2792 8.51902 14.3444 8.64353C14.3181 8.50378 14.2879 8.36542 14.2536 8.22863C14.1811 8.10764 14.1046 7.98844 14.0244 7.87103C14.0663 8.00512 14.104 8.14039 14.1377 8.27662Z" fill="white"/>
<path opacity="0.5" d="M3.44977 9.99202C3.76043 9.25765 4.18769 8.5883 4.72177 7.99753C4.72212 7.93514 4.72336 7.87282 4.72536 7.81042C4.17114 8.40077 3.71505 9.08399 3.38281 9.83449C3.40398 9.88827 3.42591 9.94183 3.44846 9.99519C3.44894 9.99416 3.44929 9.99306 3.44977 9.99202Z" fill="white"/>
<path opacity="0.5" d="M12.7643 6.2039C12.9996 6.30339 13.2279 6.41521 13.4494 6.53827C13.4112 6.46947 13.372 6.40122 13.3315 6.33386C12.8378 6.07698 12.3109 5.87546 11.7588 5.7373C11.8797 5.80983 11.999 5.88629 12.1165 5.96654C12.3353 6.03486 12.5515 6.11393 12.7643 6.2039Z" fill="white"/>
<path opacity="0.5" d="M16.686 9.98407C16.6637 10.038 16.6408 10.0915 16.6172 10.1448C16.9436 10.9729 17.1089 11.8477 17.1089 12.7477C17.1089 12.8078 17.1082 12.8677 17.1067 12.9275C17.1494 12.8827 17.1914 12.8373 17.2328 12.7915C17.233 12.7769 17.2334 12.7624 17.2334 12.7477C17.2334 11.7688 17.0385 10.8356 16.686 9.98407Z" fill="white"/>
<path opacity="0.5" d="M16.5529 9.99202C16.5534 9.99306 16.5538 9.99416 16.5542 9.99519C16.5768 9.94183 16.5987 9.88827 16.6199 9.83449C16.2876 9.08399 15.8316 8.40077 15.2773 7.81042C15.2793 7.87282 15.2806 7.93514 15.2809 7.99753C15.815 8.5883 16.2423 9.25765 16.5529 9.99202Z" fill="white"/>
<path opacity="0.5" d="M9.84279 5.5155C9.43711 5.52419 9.03978 5.56638 8.65313 5.63918C8.52859 5.7044 8.40633 5.77341 8.28613 5.84587C8.3002 5.84243 8.3142 5.83912 8.32827 5.83574C8.79877 5.64594 9.30885 5.53398 9.84279 5.5155Z" fill="white"/>
<path opacity="0.5" d="M17.0978 13.1183C17.0561 13.949 16.8718 14.7553 16.5483 15.5199C16.4488 15.7552 16.3369 15.9834 16.2139 16.2049C16.2827 16.1666 16.3509 16.1275 16.4183 16.087C16.9043 15.1533 17.1925 14.1005 17.2275 12.9837C17.1849 13.029 17.1417 13.0738 17.0978 13.1183Z" fill="white"/>
<path opacity="0.5" d="M3.37995 10.1448C3.35637 10.0916 3.3334 10.038 3.31113 9.98407C2.95862 10.8356 2.76367 11.7689 2.76367 12.7478C2.76367 12.7624 2.76415 12.7769 2.76422 12.7915C2.80567 12.8373 2.84773 12.8827 2.89042 12.9275C2.88897 12.8678 2.88821 12.8078 2.88821 12.7478C2.88821 11.8477 3.05357 10.973 3.37995 10.1448Z" fill="white"/>
<path opacity="0.5" d="M11.6727 5.83574C11.6868 5.83912 11.7009 5.84243 11.7149 5.84594C11.5947 5.77348 11.4724 5.7044 11.3479 5.63918C10.9613 5.56645 10.5639 5.52419 10.1582 5.5155C10.6921 5.53398 11.2022 5.64601 11.6727 5.83574Z" fill="white"/>
<path opacity="0.5" d="M16.3066 16.3052C16.2375 16.3441 16.1679 16.3819 16.0975 16.4185C15.7995 16.915 15.4412 17.3736 15.026 17.7887C14.6141 18.2006 14.1592 18.5565 13.667 18.8531C13.8035 18.8193 13.9389 18.7811 14.0734 18.7391C14.9922 18.1118 15.7586 17.2783 16.3066 16.3052Z" fill="white"/>
<path opacity="0.5" d="M3.89853 16.4185C3.82813 16.3819 3.75848 16.3441 3.68945 16.3052C4.23739 17.2783 5.00386 18.1118 5.92266 18.7391C6.05713 18.7811 6.19257 18.8193 6.32903 18.8531C5.83681 18.5565 5.38196 18.2006 4.97001 17.7887C4.55481 17.3736 4.19657 16.915 3.89853 16.4185Z" fill="white"/>
<path opacity="0.5" d="M7.23393 6.2039C7.4468 6.11393 7.66292 6.03486 7.88179 5.96654C7.99929 5.88629 8.11852 5.80983 8.23947 5.7373C7.68733 5.87546 7.16042 6.07698 6.66675 6.33386C6.62627 6.40122 6.5871 6.46947 6.54883 6.53827C6.77032 6.41521 6.99864 6.30339 7.23393 6.2039Z" fill="white"/>
<path opacity="0.5" d="M13.541 6.44165C13.5798 6.51066 13.6176 6.58029 13.6542 6.65068C14.1508 6.94865 14.6097 7.3068 15.0247 7.7219C15.0673 7.7643 15.109 7.80725 15.1503 7.85062C15.1487 7.78857 15.1463 7.72673 15.1432 7.66496C14.6703 7.18657 14.1314 6.77395 13.541 6.44165Z" fill="white"/>
<path opacity="0.5" d="M6.34363 6.65068C6.38025 6.58029 6.41811 6.51066 6.45693 6.44165C5.86658 6.77395 5.32754 7.18657 4.85476 7.66496C4.85166 7.72673 4.84917 7.78857 4.84766 7.85062C4.88889 7.80725 4.93068 7.7643 4.97316 7.7219C5.38836 7.3068 5.84707 6.94865 6.34363 6.65068Z" fill="white"/>
<path opacity="0.5" d="M3.44772 15.5199C3.12424 14.7552 2.93998 13.949 2.89826 13.1183C2.85434 13.0738 2.8111 13.0289 2.76855 12.9837C2.80352 14.1005 3.09169 15.1533 3.57764 16.087C3.64508 16.1275 3.71335 16.1666 3.78217 16.2049C3.65908 15.9834 3.54723 15.7552 3.44772 15.5199Z" fill="white"/>
<path opacity="0.5" d="M3.5791 16.0839C3.61572 16.1543 3.65358 16.2239 3.6924 16.2929C3.76143 16.3318 3.83107 16.3696 3.90148 16.4062C3.861 16.3387 3.82177 16.2706 3.78363 16.2018C3.71481 16.1635 3.64647 16.1243 3.5791 16.0839Z" fill="white"/>
<path opacity="0.5" d="M13.6573 6.663C13.6207 6.59261 13.5829 6.52298 13.544 6.45397C13.475 6.41509 13.4054 6.37731 13.335 6.3407C13.3754 6.40812 13.4146 6.47631 13.4528 6.54511C13.5216 6.58337 13.5899 6.62253 13.6573 6.663Z" fill="white"/>
<path opacity="0.5" d="M6.33118 18.8554C6.19471 18.8216 6.05927 18.7833 5.9248 18.7413C6.0419 18.8213 6.1614 18.8978 6.28332 18.9709C6.42117 19.0054 6.55984 19.0358 6.69914 19.0621C6.57439 18.9966 6.45158 18.9279 6.33118 18.8554Z" fill="white"/>
<path opacity="0.5" d="M11.7137 5.86343C11.8499 5.89714 11.9852 5.93478 12.1194 5.9767C12.0019 5.89652 11.8827 5.82006 11.7617 5.74753C11.6249 5.71327 11.4865 5.68307 11.3467 5.65674C11.4712 5.72196 11.5935 5.79097 11.7137 5.86343Z" fill="white"/>
<path opacity="0.5" d="M5.43297 14.7797C5.37863 14.7587 5.3245 14.737 5.27051 14.7147C5.62357 15.566 6.14579 16.3637 6.83813 17.0559C6.84848 17.0662 6.8591 17.0761 6.86944 17.0864C6.93116 17.0895 6.99294 17.0919 7.05494 17.0934C7.01156 17.0521 6.96867 17.0103 6.92619 16.9678C6.28964 16.3314 5.7879 15.5959 5.4329 14.7797" fill="white"/>
<path opacity="0.5" d="M8.25091 5.88022C8.26297 5.87284 8.27497 5.86539 8.28704 5.85815C8.15085 5.89187 8.01555 5.92951 7.88136 5.97143C7.55629 6.19342 7.24529 6.44464 6.95215 6.72551C7.3299 6.37322 7.76861 6.08552 8.25091 5.88022Z" fill="white"/>
<path opacity="0.5" d="M10.225 18.8422C10.1493 18.8661 10.0733 18.8886 9.99707 18.9099C10.6356 19.0884 11.2936 19.1781 11.9518 19.1781C12.4025 19.1781 12.8532 19.1359 13.2976 19.0522C13.4224 18.9868 13.5452 18.9181 13.6656 18.8455C13.1078 18.9838 12.5345 19.0536 11.9518 19.0536C11.3646 19.0536 10.7869 18.9825 10.225 18.8422Z" fill="white"/>
<path opacity="0.5" d="M6.72694 6.94495C6.446 7.23802 6.19472 7.54895 5.97267 7.87394C5.93075 8.0081 5.8931 8.14336 5.85938 8.27952C5.86668 8.26746 5.87406 8.25546 5.88144 8.2434C6.0868 7.76122 6.37463 7.32261 6.72694 6.94495Z" fill="white"/>
<path opacity="0.5" d="M14.7285 5.2738C14.7509 5.32772 14.7725 5.38184 14.7935 5.43616C15.61 5.79094 16.3457 6.29263 16.9822 6.92903C17.0247 6.9715 17.0665 7.01445 17.1078 7.05774C17.1063 6.99584 17.1039 6.93406 17.1008 6.87236C17.0905 6.86195 17.0806 6.8514 17.0703 6.84106C16.3779 6.14888 15.58 5.62672 14.7285 5.2738Z" fill="white"/>
<path opacity="0.5" d="M5.05729 10.212C5.03343 10.1363 5.01088 10.0603 4.98957 9.98407C4.80711 10.6364 4.71781 11.3093 4.72181 11.9817C4.76332 12.0276 4.80539 12.0731 4.84814 12.118C4.84662 12.0583 4.84586 11.9983 4.84586 11.9383C4.84586 11.3513 4.91696 10.7737 5.05729 10.212Z" fill="white"/>
<path opacity="0.5" d="M9.99707 4.97808C10.0733 4.99939 10.1493 5.02193 10.225 5.04578C10.7869 4.90549 11.3646 4.83441 11.9518 4.83441C12.0118 4.83441 12.0717 4.83524 12.1315 4.83668C12.0866 4.79394 12.0411 4.75189 11.9952 4.71045C11.9807 4.71031 11.9662 4.7099 11.9518 4.7099C11.2936 4.7099 10.6356 4.79959 9.99707 4.97808Z" fill="white"/>
<path opacity="0.5" d="M18.9193 9.98407C18.898 10.0603 18.8754 10.1363 18.8516 10.212C18.9919 10.7737 19.063 11.3513 19.063 11.9383C19.063 12.5209 18.9931 13.094 18.8549 13.6517C18.9275 13.5314 18.9962 13.4086 19.0616 13.2838C19.2676 12.1908 19.2201 11.0595 18.9193 9.98407Z" fill="white"/>
<path opacity="0.5" d="M9.27605 18.5246C8.50648 18.2126 7.80587 17.7728 7.1889 17.2149C7.12635 17.2145 7.06408 17.2133 7.00195 17.2114C7.81662 17.9763 8.76501 18.5171 9.76897 18.8337C9.8453 18.8147 9.92123 18.7941 9.99694 18.7725C9.75331 18.7029 9.51279 18.6206 9.27605 18.5246Z" fill="white"/>
<path opacity="0.5" d="M18.5441 9.27912C18.64 9.5158 18.7224 9.75627 18.792 9.99984C18.8136 9.92414 18.8342 9.84824 18.8532 9.77192C18.5365 8.76819 17.9957 7.82003 17.2305 7.00555C17.2324 7.06767 17.2336 7.12993 17.2341 7.19246C17.792 7.80928 18.2319 8.50973 18.5441 9.27912" fill="white"/>
<path opacity="0.5" d="M5.36285 9.2736C5.44967 9.05947 5.54662 8.85085 5.6531 8.64775C5.67937 8.50794 5.70964 8.36957 5.74391 8.23279C5.45119 8.72083 5.22114 9.23582 5.05371 9.7664C5.07274 9.84272 5.09329 9.91863 5.11495 9.99432C5.18452 9.75075 5.26686 9.51028 5.36285 9.2736Z" fill="white"/>
<path opacity="0.5" d="M5.36271 14.6224C5.06302 13.8835 4.89166 13.1082 4.85153 12.313C4.80767 12.2686 4.76443 12.2235 4.72168 12.178C4.74733 12.9873 4.90807 13.7929 5.2039 14.5584C5.25693 14.5814 5.31031 14.6038 5.36402 14.6256C5.36361 14.6246 5.36313 14.6235 5.36271 14.6224Z" fill="white"/>
<path opacity="0.5" d="M14.6315 5.35078C14.6325 5.3512 14.6336 5.35168 14.6347 5.35209C14.6129 5.29839 14.5905 5.24503 14.5674 5.19201C13.8017 4.89625 12.996 4.73555 12.1865 4.7099C12.232 4.75264 12.2771 4.79587 12.3215 4.83972C13.1169 4.87984 13.8924 5.05116 14.6315 5.35078Z" fill="white"/>
<path opacity="0.5" d="M9.27641 5.36156C9.51315 5.26559 9.75367 5.18327 9.9973 5.11371C9.92158 5.09206 9.84566 5.07152 9.76933 5.05249C9.23862 5.21988 8.72351 5.44987 8.23535 5.74253C8.37216 5.70827 8.51056 5.678 8.65041 5.65173C8.85356 5.54529 9.06223 5.44835 9.27641 5.36156Z" fill="white"/>
<path opacity="0.5" d="M12.1326 4.8362C12.1946 4.83772 12.2565 4.8402 12.3183 4.8433C12.2739 4.79946 12.2288 4.75623 12.1833 4.71355C12.1209 4.71155 12.0586 4.71031 11.9961 4.7099C12.042 4.7514 12.0876 4.79346 12.1325 4.8362" fill="white"/>
<path opacity="0.5" d="M7.05652 17.0975C6.9946 17.096 6.93274 17.0936 6.87109 17.0905C6.9155 17.1344 6.96039 17.1777 7.0057 17.2202C7.06783 17.2221 7.1301 17.2233 7.19258 17.2237C7.14679 17.1823 7.10141 17.1403 7.05652 17.0975Z" fill="white"/>
<path opacity="0.5" d="M9.77051 18.8428C9.84622 18.8667 9.92222 18.8892 9.99848 18.9105C10.0748 18.8892 10.1507 18.8667 10.2265 18.8428C10.1501 18.8238 10.0742 18.8032 9.99848 18.7816C9.92277 18.8032 9.84684 18.8238 9.77051 18.8428Z" fill="white"/>
<path opacity="0.5" d="M10.2265 5.03962C10.1507 5.01577 10.0748 4.99323 9.99848 4.97192C9.92222 4.99323 9.84622 5.01577 9.77051 5.03962C9.84684 5.05865 9.92277 5.0792 9.99848 5.10085C10.0742 5.0792 10.1501 5.05865 10.2265 5.03962Z" fill="white"/>
<path opacity="0.5" d="M13.6678 18.8554C13.5474 18.9279 13.4245 18.9966 13.2998 19.0621C13.4391 19.0358 13.5778 19.0054 13.7156 18.9709C13.8375 18.8978 13.957 18.8213 14.0741 18.7413C13.9397 18.7833 13.8042 18.8216 13.6678 18.8554Z" fill="white"/>
<path opacity="0.5" d="M8.28361 5.86343C8.4038 5.79097 8.52607 5.72196 8.6506 5.65674C8.51083 5.68307 8.37243 5.71327 8.23562 5.74753C8.11459 5.82006 7.99537 5.89652 7.87793 5.9767C8.01205 5.93478 8.14735 5.89714 8.28361 5.86343Z" fill="white"/>
<path opacity="0.5" d="M6.21085 7.22705C6.31036 6.99182 6.42221 6.76356 6.5453 6.54211C6.47648 6.58038 6.40821 6.61954 6.34084 6.66C6.0839 7.15356 5.88233 7.68035 5.74414 8.23236C5.81668 8.11144 5.89316 7.99224 5.97343 7.87476C6.04176 7.65594 6.12086 7.43988 6.21085 7.22705Z" fill="white"/>
<path opacity="0.5" d="M6.21085 12.761C6.12086 12.5483 6.04176 12.3322 5.97343 12.1133C5.89316 11.9959 5.81668 11.8767 5.74414 11.7557C5.88233 12.3078 6.0839 12.8345 6.34084 13.3281C6.40821 13.3686 6.47648 13.4077 6.5453 13.446C6.42221 13.2245 6.31036 12.9963 6.21085 12.761Z" fill="white"/>
<path opacity="0.5" d="M5.85254 8.31519C5.85592 8.30113 5.85923 8.28707 5.86274 8.27307C5.79027 8.39324 5.72117 8.51547 5.65594 8.63998C5.58319 9.02647 5.54092 9.42371 5.53223 9.8293C5.55071 9.29548 5.66276 8.78552 5.85254 8.31519Z" fill="white"/>
<path opacity="0.5" d="M5.53223 10.1456C5.54092 10.5512 5.58312 10.9485 5.65594 11.3349C5.72117 11.4595 5.7902 11.5817 5.86267 11.7019C5.85923 11.6879 5.85592 11.6738 5.85254 11.6597C5.6627 11.1894 5.55071 10.6794 5.53223 10.1456Z" fill="white"/>
<path opacity="0.5" d="M15.529 16.5391C14.7641 16.8625 13.9577 17.0467 13.1268 17.0884C13.0823 17.1323 13.0374 17.1756 12.9922 17.2181C14.1092 17.1831 15.1623 16.895 16.0962 16.4092C16.1367 16.3418 16.1758 16.2735 16.2141 16.2047C15.9926 16.3278 15.7643 16.4396 15.529 16.5391Z" fill="white"/>
<path opacity="0.5" d="M9.99461 3.44872C9.99565 3.4483 9.99675 3.44789 9.99778 3.44741C9.94441 3.42486 9.89083 3.40294 9.83704 3.38177C9.08636 3.71394 8.40299 4.16992 7.8125 4.72401C7.87491 4.72201 7.93725 4.72077 7.99965 4.72042C8.59056 4.18647 9.26007 3.7593 9.99461 3.44872Z" fill="white"/>
<path opacity="0.5" d="M16.3096 3.68329C16.3484 3.7523 16.3863 3.82193 16.4229 3.89232C16.9194 4.19029 17.3782 4.54844 17.7933 4.96354C18.2054 5.37547 18.5614 5.83014 18.8581 6.32225C18.8243 6.18581 18.786 6.05041 18.744 5.91597C18.1165 4.99739 17.2828 4.2311 16.3096 3.68329Z" fill="white"/>
<path opacity="0.5" d="M10.1579 16.6075C10.1046 16.6311 10.051 16.6541 9.99707 16.6763C10.8488 17.0288 11.7823 17.2237 12.7615 17.2237C12.7761 17.2237 12.7906 17.2232 12.8052 17.2231C12.851 17.1817 12.8964 17.1396 12.9412 17.097C12.8815 17.0984 12.8215 17.0992 12.7615 17.0992C11.8611 17.0992 10.9862 16.9338 10.1579 16.6075Z" fill="white"/>
<path opacity="0.5" d="M15.529 3.43658C15.7643 3.53606 15.9926 3.64788 16.2141 3.77095C16.1758 3.70214 16.1367 3.63389 16.0962 3.56653C15.1623 3.08063 14.1092 2.79252 12.9922 2.75757C13.0374 2.80011 13.0823 2.84333 13.1268 2.88725C13.9577 2.92889 14.7641 3.11317 15.529 3.43658Z" fill="white"/>
<path opacity="0.5" d="M6.45312 6.43959C6.52215 6.40077 6.5918 6.36292 6.66221 6.32631C6.96024 5.82986 7.31848 5.37119 7.73368 4.95616C7.77609 4.91369 7.81905 4.87192 7.86242 4.83069C7.80036 4.83221 7.73851 4.83462 7.67672 4.83779C7.19822 5.31045 6.7855 5.84931 6.45312 6.43959Z" fill="white"/>
<path opacity="0.5" d="M9.99707 3.30483C10.051 3.32717 10.1046 3.35006 10.1579 3.37363C10.9861 3.04733 11.8611 2.88201 12.7614 2.88201C12.8215 2.88201 12.8814 2.88277 12.9412 2.88421C12.8963 2.84154 12.851 2.79955 12.8052 2.75812C12.7906 2.75798 12.776 2.75757 12.7614 2.75757C11.7823 2.75757 10.8488 2.9524 9.99707 3.30483Z" fill="white"/>
<path opacity="0.5" d="M17.7933 15.0268C17.3781 15.4419 16.9194 15.8 16.4229 16.098C16.3863 16.1684 16.3484 16.238 16.3096 16.3071C17.2828 15.7592 18.1165 14.9929 18.744 14.0744C18.786 13.9399 18.8242 13.8045 18.8581 13.6681C18.5613 14.1601 18.2054 14.6149 17.7933 15.0268Z" fill="white"/>
<path opacity="0.5" d="M9.99461 16.534C9.26007 16.2234 8.59055 15.7962 7.99972 15.2623C7.93725 15.2619 7.87491 15.2607 7.8125 15.2587C8.40299 15.8128 9.08636 16.2687 9.83704 16.6009C9.89083 16.5797 9.94441 16.5578 9.99778 16.5353C9.99675 16.5348 9.99565 16.5344 9.99461 16.534Z" fill="white"/>
<path opacity="0.5" d="M6.66221 13.6402C6.5918 13.6036 6.52215 13.5657 6.45312 13.5269C6.7855 14.1171 7.19822 14.656 7.67672 15.1287C7.73851 15.1318 7.80036 15.1343 7.86242 15.1358C7.81905 15.0946 7.77609 15.0528 7.73368 15.0103C7.31848 14.5952 6.96024 14.1366 6.66221 13.6402Z" fill="white"/>
<path opacity="0.5" d="M9.84082 16.6126C9.89406 16.6361 9.94771 16.6591 10.0016 16.6814C10.0556 16.6591 10.1091 16.6361 10.1624 16.6126C10.1086 16.5914 10.055 16.5695 10.0016 16.5469C9.94819 16.5695 9.89461 16.5914 9.84082 16.6126Z" fill="white"/>
<path opacity="0.5" d="M10.1624 3.37001C10.1091 3.34643 10.0555 3.32348 10.0016 3.30121C9.94764 3.32348 9.89406 3.34643 9.84082 3.37001C9.89461 3.39118 9.94819 3.4131 10.0016 3.43565C10.055 3.4131 10.1086 3.39118 10.1624 3.37001Z" fill="white"/>
<path opacity="0.5" d="M12.9417 17.0975C12.8968 17.1403 12.8515 17.1823 12.8057 17.2237C12.8681 17.2233 12.9304 17.2221 12.9925 17.2202C13.0378 17.1777 13.0827 17.1344 13.1271 17.0905C13.0655 17.0936 13.0036 17.096 12.9417 17.0975Z" fill="white"/>
<path opacity="0.5" d="M7.86734 4.8362C7.91231 4.79346 7.95782 4.7514 8.00374 4.7099C7.94127 4.71031 7.87893 4.71155 7.81652 4.71355C7.77101 4.75623 7.72598 4.79946 7.68164 4.8433C7.74343 4.8402 7.80528 4.83772 7.86734 4.8362Z" fill="white"/>
<path opacity="0.5" d="M6.66515 6.3407C6.59475 6.37731 6.5251 6.41516 6.45607 6.45397C6.41718 6.52298 6.37939 6.59261 6.34277 6.663C6.41021 6.62253 6.47841 6.58337 6.54723 6.54518C6.58551 6.47638 6.62467 6.40812 6.66515 6.3407Z" fill="white"/>
<path opacity="0.5" d="M16.0986 16.4062C16.169 16.3696 16.2387 16.3317 16.3077 16.2929C16.3466 16.2239 16.3844 16.1543 16.421 16.0839C16.3536 16.1243 16.2854 16.1635 16.2166 16.2017C16.1783 16.2705 16.1391 16.3387 16.0986 16.4062Z" fill="white"/>
<path opacity="0.5" d="M5.86006 8.27662C5.89378 8.14039 5.93143 8.00512 5.97335 7.87103C5.89316 7.98844 5.81668 8.10764 5.74414 8.22863C5.70987 8.36542 5.67966 8.50378 5.65332 8.64353C5.71855 8.51902 5.78758 8.39678 5.86006 8.27662Z" fill="white"/>
<path opacity="0.5" d="M18.8553 13.654C18.8215 13.7904 18.7832 13.9258 18.7412 14.0602C18.8212 13.9432 18.8977 13.8237 18.9709 13.7018C19.0053 13.564 19.0357 13.4253 19.062 13.286C18.9966 13.4108 18.9278 13.5336 18.8553 13.654Z" fill="white"/>
<path opacity="0.5" d="M9.99707 1.07305C10.0733 1.09436 10.1493 1.1169 10.225 1.14076C10.7869 1.00046 11.3646 0.92938 11.9518 0.92938C12.5345 0.92938 13.1078 0.999218 13.6656 1.13745C13.5452 1.06485 13.4224 0.996184 13.2976 0.930759C12.8532 0.847063 12.4025 0.804871 11.9518 0.804871C11.2936 0.804871 10.6356 0.894564 9.99707 1.07305Z" fill="white"/>
<path opacity="0.5" d="M18.5441 10.7048C18.2319 11.4742 17.792 12.1746 17.234 12.7915C17.2336 12.854 17.2324 12.9162 17.2305 12.9784C17.9956 12.1639 18.5365 11.2157 18.8532 10.212C18.8342 10.1357 18.8136 10.0597 18.792 9.98407C18.7224 10.2276 18.64 10.4681 18.5441 10.7048Z" fill="white"/>
<path opacity="0.5" d="M9.27641 14.6326C9.06223 14.5458 8.85356 14.4488 8.65041 14.3424C8.51056 14.3161 8.37216 14.2859 8.23535 14.2516C8.72351 14.5442 9.23862 14.7743 9.76933 14.9416C9.84566 14.9226 9.92158 14.9021 9.9973 14.8804C9.75367 14.8108 9.51315 14.7285 9.27641 14.6326Z" fill="white"/>
<path opacity="0.5" d="M6.95215 13.2657C7.24529 13.5466 7.55636 13.7978 7.88143 14.0198C8.01555 14.0617 8.15085 14.0993 8.28711 14.133C8.27497 14.1258 8.26297 14.1184 8.25098 14.111C7.76861 13.9057 7.3299 13.618 6.95215 13.2657Z" fill="white"/>
<path opacity="0.5" d="M10.225 14.9364C10.1493 14.9603 10.0733 14.9828 9.99707 15.0041C10.6356 15.1826 11.2936 15.2723 11.9518 15.2723C11.9662 15.2723 11.9807 15.2719 11.9952 15.2718C12.0411 15.2303 12.0866 15.1882 12.1315 15.1455C12.0717 15.147 12.0118 15.1478 11.9518 15.1478C11.3646 15.1478 10.7869 15.0767 10.225 14.9364Z" fill="white"/>
<path opacity="0.5" d="M5.27051 5.25719C5.32443 5.23485 5.37856 5.21321 5.4329 5.19218C5.78783 4.37591 6.28957 3.64043 6.92619 3.00403C6.9686 2.96156 7.01156 2.91971 7.05487 2.87842C6.99294 2.87993 6.93116 2.88235 6.86944 2.88545C6.85903 2.89572 6.84848 2.90565 6.83813 2.91599C6.14579 3.60817 5.6235 4.4059 5.27051 5.25719Z" fill="white"/>
<path opacity="0.5" d="M5.36271 5.35754C5.36313 5.35651 5.36361 5.3554 5.36402 5.35437C5.31038 5.37616 5.25693 5.39856 5.2039 5.42159C4.90807 6.18712 4.74733 6.99271 4.72168 7.80195C4.76443 7.75644 4.80767 7.71143 4.85153 7.66703C4.89166 6.87178 5.06302 6.09646 5.36271 5.35754Z" fill="white"/>
<path opacity="0.5" d="M4.98951 9.98467C5.01082 9.90842 5.03337 9.83244 5.05722 9.75675C4.9169 9.19501 4.8458 8.61748 4.8458 8.03044C4.8458 7.97039 4.84663 7.91048 4.84808 7.85071C4.80532 7.89566 4.76326 7.94116 4.72181 7.98701C4.71774 8.65954 4.80704 9.33234 4.98951 9.98467Z" fill="white"/>
<path opacity="0.5" d="M16.9822 13.0721C16.3456 13.7086 15.61 14.2102 14.7935 14.5651C14.7725 14.6194 14.7509 14.6735 14.7285 14.7274C15.58 14.3744 16.3779 13.8524 17.0703 13.1602C17.0806 13.1498 17.0905 13.1392 17.1008 13.1289C17.1039 13.0672 17.1063 13.0054 17.1078 12.9434C17.0665 12.9868 17.0247 13.0297 16.9822 13.0721Z" fill="white"/>
<path opacity="0.5" d="M5.36285 10.7048C5.26686 10.4681 5.18452 10.2276 5.11495 9.98407C5.09329 10.0597 5.07274 10.1357 5.05371 10.212C5.22114 10.7426 5.45119 11.2576 5.74391 11.7456C5.70964 11.6088 5.67937 11.4705 5.6531 11.3306C5.54662 11.1275 5.44967 10.9189 5.36285 10.7048Z" fill="white"/>
<path opacity="0.5" d="M14.6315 14.6159C13.8924 14.9155 13.1169 15.0868 12.3215 15.1269C12.2771 15.1708 12.232 15.214 12.1865 15.2568C12.996 15.2311 13.8017 15.0704 14.5674 14.7746C14.5905 14.7216 14.6129 14.6683 14.6347 14.6146C14.6336 14.615 14.6325 14.6155 14.6315 14.6159Z" fill="white"/>
<path opacity="0.5" d="M18.8516 9.76059C18.8754 9.83629 18.898 9.91226 18.9193 9.98851C19.2201 8.91309 19.2676 7.78182 19.0616 6.68874C18.9962 6.56396 18.9275 6.44117 18.8549 6.3208C18.9931 6.87854 19.063 7.45172 19.063 8.03428C19.063 8.62132 18.9919 9.19885 18.8516 9.76059Z" fill="white"/>
<path opacity="0.5" d="M5.88144 11.7516C5.87406 11.7395 5.86662 11.7275 5.85938 11.7155C5.8931 11.8516 5.93075 11.9869 5.97267 12.121C6.19472 12.446 6.446 12.757 6.72694 13.05C6.37463 12.6724 6.0868 12.2338 5.88144 11.7516Z" fill="white"/>
<path opacity="0.5" d="M9.27605 1.45573C9.51279 1.35977 9.75331 1.27745 9.99694 1.20789C9.92123 1.18624 9.8453 1.1657 9.76897 1.14667C8.76501 1.46332 7.81662 2.00403 7.00195 2.76901C7.06408 2.76708 7.12635 2.76591 7.1889 2.76556C7.80587 2.20761 8.50648 1.76777 9.27605 1.45573Z" fill="white"/>
<path opacity="0.5" d="M12.1325 15.1449C12.0875 15.1877 12.042 15.2297 11.9961 15.2712C12.0586 15.2708 12.1209 15.2696 12.1833 15.2676C12.2288 15.2249 12.2739 15.1817 12.3182 15.1378C12.2564 15.1409 12.1946 15.1434 12.1325 15.1449Z" fill="white"/>
<path opacity="0.5" d="M7.05652 2.88373C7.10141 2.84099 7.14679 2.799 7.19258 2.75757C7.1301 2.75798 7.06783 2.75915 7.0057 2.76108C6.96039 2.80362 6.9155 2.84685 6.87109 2.89076C6.93274 2.88766 6.9946 2.88525 7.05652 2.88373Z" fill="white"/>
<path opacity="0.5" d="M14.5684 14.7817C14.6227 14.7607 14.6768 14.739 14.7308 14.7167C14.7531 14.6628 14.7748 14.6086 14.7957 14.5543C14.7427 14.5774 14.6893 14.5998 14.6356 14.6216C14.6138 14.6753 14.5914 14.7287 14.5684 14.7817Z" fill="white"/>
<path opacity="0.5" d="M5.43243 5.19324C5.37809 5.2142 5.32396 5.23591 5.27004 5.25825C5.24763 5.31216 5.22604 5.36621 5.20508 5.42054C5.25811 5.39751 5.31148 5.37511 5.3652 5.35332C5.38699 5.29961 5.4094 5.24625 5.43236 5.19324" fill="white"/>
<path opacity="0.5" d="M4.84801 7.85528C4.84953 7.79323 4.85201 7.73139 4.85511 7.66962C4.81126 7.71395 4.76802 7.75897 4.72533 7.80447C4.72333 7.86686 4.72209 7.92925 4.72168 7.99164C4.76319 7.94573 4.80526 7.90023 4.84801 7.85528Z" fill="white"/>
<path opacity="0.5" d="M17.1066 12.9386C17.1051 13.0005 17.1027 13.0624 17.0996 13.124C17.1435 13.0796 17.1868 13.0347 17.2293 12.9894C17.2313 12.9273 17.2324 12.8651 17.2328 12.8026C17.1914 12.8484 17.1494 12.8938 17.1066 12.9386Z" fill="white"/>
<path opacity="0.5" d="M18.8522 10.219C18.8761 10.1433 18.8987 10.0673 18.92 9.99104C18.8987 9.91479 18.8761 9.83882 18.8522 9.76312C18.8332 9.83944 18.8127 9.91535 18.791 9.99104C18.8127 10.0667 18.8332 10.1426 18.8522 10.219Z" fill="white"/>
<path opacity="0.5" d="M5.056 9.76312C5.03214 9.83882 5.00959 9.91479 4.98828 9.99104C5.00959 10.0673 5.03214 10.1433 5.056 10.219C5.07503 10.1426 5.09558 10.0667 5.11723 9.99104C5.09558 9.91535 5.07503 9.83944 5.056 9.76312Z" fill="white"/>
<path opacity="0.5" d="M5.86006 11.6999C5.78758 11.5797 5.71855 11.4575 5.65332 11.3329C5.67966 11.4727 5.70987 11.6111 5.74414 11.7478C5.81668 11.8688 5.89316 11.988 5.97335 12.1054C5.93143 11.9713 5.89378 11.8361 5.86006 11.6999Z" fill="white"/>
<path opacity="0.5" d="M18.8553 6.32424C18.9278 6.44462 18.9966 6.5674 19.062 6.69219C19.0357 6.55286 19.0054 6.41421 18.9709 6.2764C18.8977 6.15451 18.8212 6.03503 18.7412 5.91797C18.7832 6.05241 18.8215 6.18781 18.8553 6.32424Z" fill="white"/>
<path opacity="0.5" d="M3.44772 4.46912C3.54723 4.23389 3.65908 4.00562 3.78217 3.78418C3.71335 3.82244 3.64508 3.8616 3.57764 3.90207C3.09169 4.83575 2.80352 5.88856 2.76855 7.00535C2.8111 6.96013 2.85434 6.91525 2.89826 6.87078C2.93992 6.0401 3.12424 5.23382 3.44772 4.46912Z" fill="white"/>
<path opacity="0.5" d="M16.5483 4.46912C16.8718 5.23382 17.0561 6.0401 17.0978 6.87078C17.1417 6.91525 17.1849 6.96013 17.2275 7.00535C17.1925 5.88856 16.9043 4.83575 16.4183 3.90207C16.351 3.8616 16.2827 3.82244 16.2139 3.78418C16.337 4.00562 16.4488 4.23389 16.5483 4.46912Z" fill="white"/>
<path opacity="0.5" d="M16.0975 3.58128C16.1679 3.61789 16.2375 3.65574 16.3066 3.69455C15.7586 2.72151 14.9922 1.888 14.0734 1.2607C13.9389 1.21871 13.8035 1.18045 13.667 1.14667C14.1592 1.44326 14.6141 1.7992 15.026 2.21113C15.4412 2.62616 15.7995 3.08483 16.0975 3.58128Z" fill="white"/>
<path opacity="0.5" d="M16.6172 9.82775C16.6408 9.88097 16.6637 9.93461 16.686 9.98852C17.0385 9.13695 17.2335 8.20368 17.2335 7.22478C17.2335 7.21016 17.233 7.19568 17.2329 7.18107C17.1915 7.13529 17.1495 7.08986 17.1067 7.04504C17.1082 7.10482 17.1089 7.1648 17.1089 7.22478C17.1089 8.12488 16.9436 8.99962 16.6172 9.82775Z" fill="white"/>
<path opacity="0.5" d="M3.31106 9.98852C3.3334 9.93461 3.3563 9.88104 3.37988 9.82775C3.0535 8.99969 2.88814 8.12488 2.88814 7.22484C2.88814 7.1648 2.8889 7.10489 2.89035 7.04504C2.84766 7.08993 2.80567 7.13529 2.76422 7.18107C2.76409 7.19568 2.76367 7.21023 2.76367 7.22484C2.76367 8.20375 2.95855 9.13702 3.31106 9.98852Z" fill="white"/>
<path opacity="0.5" d="M7.23393 13.7807C6.99864 13.6812 6.77032 13.5694 6.54883 13.4464C6.5871 13.5152 6.62627 13.5834 6.66675 13.6508C7.16042 13.9076 7.68733 14.1092 8.23947 14.2473C8.11852 14.1748 7.99929 14.0983 7.88179 14.0181C7.66292 13.9498 7.4468 13.8708 7.23393 13.7807Z" fill="white"/>
<path opacity="0.5" d="M12.7643 13.7807C12.5515 13.8708 12.3353 13.9498 12.1165 14.0181C11.999 14.0983 11.8797 14.1748 11.7588 14.2473C12.3109 14.1092 12.8378 13.9076 13.3315 13.6508C13.372 13.5834 13.4112 13.5152 13.4494 13.4464C13.2279 13.5694 12.9996 13.6812 12.7643 13.7807Z" fill="white"/>
<path opacity="0.5" d="M8.32827 14.1414C8.3142 14.138 8.30013 14.1347 8.28613 14.1312C8.40633 14.2036 8.52859 14.2727 8.65313 14.3379C9.03971 14.4107 9.43704 14.4529 9.84266 14.4616C9.30878 14.4431 8.7987 14.3311 8.32827 14.1414Z" fill="white"/>
<path opacity="0.5" d="M3.44977 9.98724C3.44929 9.98621 3.44894 9.9851 3.44846 9.98407C3.42591 10.0374 3.40398 10.091 3.38281 10.1448C3.71505 10.8953 4.17114 11.5785 4.72536 12.1688C4.72336 12.1064 4.72212 12.0441 4.72177 11.9817C4.18769 11.391 3.76043 10.7216 3.44977 9.98724Z" fill="white"/>
<path opacity="0.5" d="M6.457 13.5272C6.41818 13.4582 6.38032 13.3885 6.3437 13.3182C5.84714 13.0201 5.38836 12.662 4.97323 12.2469C4.93075 12.2045 4.88896 12.1616 4.84766 12.1182C4.84924 12.1803 4.85166 12.2421 4.85483 12.3039C5.3276 12.7823 5.86658 13.1949 6.457 13.5272Z" fill="white"/>
<path opacity="0.5" d="M3.68945 3.69455C3.75848 3.65574 3.82813 3.61789 3.89853 3.58128C4.19657 3.08483 4.55481 2.62616 4.97001 2.21113C5.38203 1.7992 5.83688 1.44326 6.32903 1.14667C6.19257 1.18045 6.05713 1.21864 5.92266 1.26063C5.00393 1.888 4.23739 2.72151 3.68945 3.69455Z" fill="white"/>
<path opacity="0.5" d="M10.1582 14.4615C10.5639 14.4528 10.9612 14.4107 11.3477 14.3379C11.4723 14.2726 11.5945 14.2036 11.7147 14.1312C11.7007 14.1346 11.6867 14.1379 11.6726 14.1413C11.2022 14.3311 10.6921 14.4431 10.1582 14.4615Z" fill="white"/>
<path opacity="0.5" d="M15.0248 12.2469C14.6096 12.662 14.1509 13.0201 13.6543 13.3182C13.6177 13.3885 13.5798 13.4582 13.541 13.5272C14.1314 13.1949 14.6704 12.7823 15.1432 12.3039C15.1463 12.2421 15.1488 12.1802 15.1503 12.1182C15.1091 12.1615 15.0673 12.2045 15.0248 12.2469Z" fill="white"/>
<path opacity="0.5" d="M16.5529 9.98724C16.2423 10.7216 15.815 11.391 15.2809 11.9817C15.2806 12.0441 15.2793 12.1064 15.2773 12.1688C15.8316 11.5786 16.2876 10.8953 16.6199 10.1448C16.5987 10.091 16.5768 10.0374 16.5542 9.98407C16.5538 9.9851 16.5534 9.98621 16.5529 9.98724Z" fill="white"/>
<path opacity="0.5" d="M13.335 13.6486C13.4053 13.612 13.475 13.5741 13.544 13.5353C13.5829 13.4663 13.6207 13.3967 13.6573 13.3263C13.5899 13.3668 13.5216 13.4059 13.4529 13.4441C13.4146 13.5129 13.3754 13.5812 13.335 13.6486Z" fill="white"/>
<path opacity="0.5" d="M3.90148 3.56323C3.83107 3.59984 3.76143 3.63769 3.6924 3.6765C3.65351 3.74551 3.61572 3.81515 3.5791 3.88554C3.64654 3.84507 3.71474 3.80591 3.78356 3.76771C3.82183 3.69891 3.861 3.63066 3.90148 3.56323Z" fill="white"/>
<path opacity="0.5" d="M15.1536 12.1337C15.1521 12.1957 15.1496 12.2576 15.1465 12.3193C15.1903 12.275 15.2336 12.23 15.2763 12.1845C15.2783 12.1221 15.2795 12.0598 15.2799 11.9974C15.2384 12.0432 15.1963 12.0887 15.1536 12.1337Z" fill="white"/>
<path opacity="0.5" d="M2.88987 7.04976C2.89138 6.98786 2.8938 6.92601 2.8969 6.86438C2.85297 6.90878 2.80974 6.95366 2.76719 6.99895C2.76519 7.06107 2.76409 7.12333 2.76367 7.18579C2.80512 7.14001 2.84711 7.09465 2.88987 7.04976Z" fill="white"/>
<path opacity="0.5" d="M3.38132 9.82336C3.35774 9.87659 3.33477 9.93022 3.3125 9.98414C3.33477 10.038 3.35774 10.0916 3.38132 10.1448C3.40249 10.0911 3.42442 10.0375 3.44697 9.98414C3.42442 9.93071 3.40249 9.87714 3.38132 9.82336Z" fill="white"/>
<path opacity="0.5" d="M16.6174 10.1448C16.641 10.0916 16.664 10.038 16.6862 9.98407C16.664 9.93016 16.641 9.87659 16.6174 9.82336C16.5962 9.87714 16.5743 9.93071 16.5518 9.98407C16.5743 10.0375 16.5962 10.0911 16.6174 10.1448Z" fill="white"/>
<path opacity="0.5" d="M4.84801 12.1337C4.80526 12.0887 4.76319 12.0432 4.72168 11.9974C4.72209 12.0597 4.72333 12.1221 4.72533 12.1845C4.76802 12.23 4.81126 12.275 4.85511 12.3193C4.85201 12.2576 4.84953 12.1957 4.84801 12.1337Z" fill="white"/>
<path opacity="0.5" d="M17.1066 7.04976C17.1494 7.09465 17.1914 7.14001 17.2328 7.18579C17.2324 7.12333 17.2313 7.06107 17.2293 6.99895C17.1868 6.95366 17.1435 6.90878 17.0996 6.86438C17.1027 6.92601 17.1051 6.98786 17.1066 7.04976Z" fill="white"/>
<path opacity="0.5" d="M6.34277 13.3263C6.37939 13.3967 6.41725 13.4663 6.45607 13.5353C6.5251 13.5742 6.59475 13.612 6.66515 13.6486C6.62467 13.5812 6.58551 13.513 6.5473 13.4442C6.47848 13.4059 6.41021 13.3668 6.34277 13.3263Z" fill="white"/>
<path opacity="0.5" d="M16.421 3.88554C16.3844 3.81515 16.3465 3.74551 16.3077 3.6765C16.2387 3.63762 16.169 3.59984 16.0986 3.56323C16.1391 3.63066 16.1783 3.69884 16.2165 3.76765C16.2853 3.80591 16.3536 3.84507 16.421 3.88554Z" fill="white"/>
<path opacity="0.5" d="M13.6678 1.13241C13.8042 1.16619 13.9397 1.20445 14.0741 1.24644C13.957 1.16647 13.8375 1.08994 13.7156 1.01686C13.5778 0.98239 13.4391 0.951987 13.2998 0.92572C13.4245 0.991146 13.5474 1.05988 13.6678 1.13241Z" fill="white"/>
<path opacity="0.5" d="M8.28361 14.1236C8.14735 14.0899 8.01205 14.0522 7.87793 14.0103C7.99537 14.0905 8.11459 14.167 8.23562 14.2395C8.37243 14.2737 8.51083 14.3039 8.65054 14.3303C8.52607 14.2651 8.40374 14.196 8.28354 14.1236" fill="white"/>
<path opacity="0.5" d="M9.7736 1.14076C9.84932 1.1169 9.92531 1.09436 10.0016 1.07305C9.3631 0.894564 8.70503 0.804871 8.04689 0.804871C7.59611 0.804871 7.14547 0.847063 6.70104 0.930759C6.57622 0.996184 6.45341 1.06485 6.33301 1.13745C6.89088 0.999218 7.4642 0.92938 8.04689 0.92938C8.63407 0.92938 9.21173 1.00046 9.7736 1.14076Z" fill="white"/>
<path opacity="0.5" d="M1.4566 10.7048C1.36061 10.4681 1.27827 10.2276 1.2087 9.98407C1.18704 10.0597 1.16649 10.1357 1.14746 10.212C1.46419 11.2157 2.00502 12.1639 2.77018 12.9784C2.76825 12.9162 2.76708 12.854 2.76667 12.7915C2.20866 12.1746 1.7687 11.4742 1.4566 10.7048Z" fill="white"/>
<path opacity="0.5" d="M1.07847 9.98851C1.09978 9.91226 1.12232 9.83629 1.14618 9.76059C1.00585 9.19885 0.934759 8.62132 0.934759 8.03428C0.934759 7.45172 1.00454 6.87854 1.14287 6.3208C1.07026 6.44117 1.00158 6.56396 0.936069 6.68874C0.730091 7.78182 0.777672 8.91309 1.0784 9.98851" fill="white"/>
<path opacity="0.5" d="M14.115 11.7516C13.9096 12.2338 13.6218 12.6724 13.2695 13.05C13.5505 12.757 13.8018 12.446 14.0237 12.121C14.0657 11.9869 14.1033 11.8516 14.137 11.7155C14.1298 11.7275 14.1223 11.7395 14.115 11.7516Z" fill="white"/>
<path opacity="0.5" d="M10.718 14.6326C10.4812 14.7285 10.2407 14.8108 9.99707 14.8804C10.0729 14.9021 10.1488 14.9226 10.225 14.9416C10.7557 14.7743 11.2709 14.5442 11.759 14.2516C11.6222 14.2859 11.4838 14.3161 11.344 14.3424C11.1408 14.4488 10.9321 14.5458 10.718 14.6326" fill="white"/>
<path opacity="0.5" d="M14.632 10.7048C14.5452 10.9189 14.4483 11.1275 14.3418 11.3306C14.3155 11.4705 14.2852 11.6088 14.251 11.7456C14.5437 11.2576 14.7737 10.7426 14.9412 10.212C14.9221 10.1357 14.9016 10.0597 14.8799 9.98407C14.8104 10.2276 14.728 10.4681 14.632 10.7048Z" fill="white"/>
<path opacity="0.5" d="M11.75 14.1109C11.7379 14.1183 11.7259 14.1257 11.7139 14.133C11.8501 14.0993 11.9854 14.0616 12.1195 14.0197C12.4446 13.7977 12.7556 13.5466 13.0488 13.2657C12.671 13.6179 12.2323 13.9056 11.75 14.1109Z" fill="white"/>
<path opacity="0.5" d="M5.26898 14.7274C5.24664 14.6734 5.22498 14.6193 5.20395 14.565C4.38749 14.2102 3.65184 13.7085 3.01529 13.0721C2.97281 13.0297 2.93095 12.9867 2.88965 12.9434C2.89117 13.0053 2.89358 13.0671 2.89668 13.1288C2.90696 13.1392 2.91689 13.1498 2.92723 13.1601C3.61957 13.8523 4.41749 14.3744 5.26898 14.7274Z" fill="white"/>
<path opacity="0.5" d="M5.36938 14.6159C5.36835 14.6155 5.36725 14.615 5.36621 14.6146C5.388 14.6683 5.41041 14.7216 5.43345 14.7746C6.19916 15.0704 7.00493 15.2311 7.81436 15.2568C7.76885 15.214 7.72382 15.1708 7.67941 15.1269C6.88398 15.0868 6.10848 14.9155 5.36938 14.6159Z" fill="white"/>
<path opacity="0.5" d="M14.6351 5.35754C14.9348 6.09646 15.1062 6.87178 15.1463 7.66703C15.1901 7.71143 15.2334 7.75644 15.2761 7.80195C15.2505 6.99271 15.0897 6.18712 14.7939 5.42159C14.7409 5.39856 14.6874 5.37616 14.6338 5.35437C14.6342 5.3554 14.6347 5.35651 14.6351 5.35754Z" fill="white"/>
<path opacity="0.5" d="M14.5644 5.19218C14.6188 5.21314 14.6729 5.23485 14.7268 5.25719C14.3737 4.4059 13.8515 3.60817 13.1592 2.91599C13.1488 2.90565 13.1382 2.89572 13.1279 2.88545C13.0662 2.88235 13.0044 2.87993 12.9424 2.87842C12.9858 2.91965 13.0286 2.96156 13.0711 3.00396C13.7077 3.64043 14.2095 4.37591 14.5644 5.19218Z" fill="white"/>
<path opacity="0.5" d="M9.99774 15.0041C9.92147 14.9828 9.84548 14.9603 9.76977 14.9364C9.2079 15.0767 8.63023 15.1478 8.04306 15.1478C7.98299 15.1478 7.92307 15.147 7.86328 15.1455C7.90824 15.1882 7.95375 15.2303 7.99961 15.2717C8.01409 15.2719 8.02857 15.2723 8.04306 15.2723C8.70126 15.2723 9.35926 15.1826 9.99774 15.0041Z" fill="white"/>
<path opacity="0.5" d="M14.9453 9.75675C14.9692 9.83244 14.9917 9.90842 15.013 9.98467C15.1955 9.33234 15.2848 8.65947 15.2808 7.98701C15.2393 7.94109 15.1972 7.89559 15.1545 7.85071C15.1559 7.91048 15.1567 7.97039 15.1567 8.03044C15.1567 8.61748 15.0856 9.19501 14.9453 9.75675Z" fill="white"/>
<path opacity="0.5" d="M10.718 1.45573C11.4875 1.76777 12.1881 2.20761 12.805 2.76556C12.8676 2.76591 12.9299 2.76708 12.9921 2.76901C12.1774 2.00403 11.229 1.46332 10.225 1.14667C10.1487 1.1657 10.0728 1.18624 9.99707 1.20789C10.2407 1.27745 10.4812 1.35977 10.718 1.45573Z" fill="white"/>
<path opacity="0.5" d="M1.14326 6.32424C1.17705 6.18781 1.21532 6.05241 1.25732 5.91797C1.17733 6.03503 1.10078 6.15451 1.02762 6.2764C0.993207 6.41421 0.962796 6.55286 0.936523 6.69219C1.00196 6.5674 1.07072 6.44462 1.14326 6.32424Z" fill="white"/>
<path opacity="0.5" d="M14.1377 11.6999C14.104 11.8361 14.0663 11.9713 14.0244 12.1054C14.1046 11.988 14.1811 11.8688 14.2536 11.7478C14.2879 11.6111 14.3181 11.4727 14.3444 11.3329C14.2792 11.4575 14.2102 11.5797 14.1377 11.6999Z" fill="white"/>
<path opacity="0.5" d="M14.9411 10.219C14.965 10.1433 14.9875 10.0673 15.0088 9.99104C14.9875 9.91479 14.965 9.83882 14.9411 9.76312C14.9221 9.83944 14.9015 9.91535 14.8799 9.99104C14.9015 10.0667 14.9221 10.1426 14.9411 10.219Z" fill="white"/>
<path opacity="0.5" d="M1.14487 9.76312C1.12101 9.83882 1.09846 9.91479 1.07715 9.99104C1.09846 10.0673 1.12101 10.1433 1.14487 10.219C1.1639 10.1426 1.18445 10.0667 1.2061 9.99104C1.18445 9.91535 1.1639 9.83944 1.14487 9.76312Z" fill="white"/>
<path opacity="0.5" d="M2.88987 12.9386C2.84711 12.8938 2.80512 12.8484 2.76367 12.8026C2.76409 12.8651 2.76519 12.9273 2.76719 12.9894C2.80974 13.0347 2.85297 13.0796 2.8969 13.124C2.8938 13.0624 2.89138 13.0005 2.88987 12.9386Z" fill="white"/>
<path opacity="0.5" d="M15.1536 7.85528C15.1963 7.90023 15.2384 7.94573 15.2799 7.99164C15.2795 7.92925 15.2783 7.86686 15.2763 7.80447C15.2336 7.75897 15.1903 7.71395 15.1465 7.66962C15.1496 7.73139 15.1521 7.79323 15.1536 7.85528Z" fill="white"/>
<path opacity="0.5" d="M14.7957 5.42054C14.7748 5.36621 14.753 5.31209 14.7307 5.25818C14.6768 5.23584 14.6226 5.2142 14.5684 5.19324C14.5914 5.24625 14.6138 5.29961 14.6356 5.35325C14.6893 5.37511 14.7427 5.39751 14.7957 5.42054Z" fill="white"/>
<path opacity="0.5" d="M5.20508 14.5543C5.22604 14.6086 5.24776 14.6628 5.27011 14.7167C5.32403 14.739 5.37816 14.7607 5.43243 14.7817C5.4094 14.7287 5.38699 14.6752 5.3652 14.6216C5.31148 14.5998 5.25811 14.5773 5.20508 14.5543Z" fill="white"/>
<path opacity="0.5" d="M12.9417 2.88373C13.0036 2.88525 13.0655 2.88766 13.1271 2.89076C13.0827 2.84685 13.0378 2.80362 12.9925 2.76108C12.9304 2.75915 12.8681 2.75798 12.8057 2.75757C12.8515 2.799 12.8968 2.84099 12.9417 2.88373Z" fill="white"/>
<path opacity="0.5" d="M7.86734 15.1449C7.80528 15.1434 7.74343 15.1409 7.68164 15.1378C7.72598 15.1817 7.77101 15.2249 7.81652 15.2676C7.87893 15.2696 7.94127 15.2708 8.00368 15.2712C7.95782 15.2297 7.91231 15.1877 7.86734 15.1449Z" fill="white"/>
<path opacity="0.5" d="M9.77051 14.937C9.84622 14.9609 9.92222 14.9834 9.99848 15.0047C10.0748 14.9834 10.1507 14.9609 10.2265 14.937C10.1501 14.918 10.0742 14.8974 9.99848 14.8758C9.92277 14.8974 9.84684 14.918 9.77051 14.937Z" fill="white"/>
<path opacity="0.5" d="M10.2265 1.1346C10.1507 1.11074 10.0748 1.0882 9.99848 1.06689C9.92222 1.0882 9.84622 1.11074 9.77051 1.1346C9.84684 1.15362 9.92277 1.17417 9.99848 1.19582C10.0742 1.17417 10.1501 1.15362 10.2265 1.1346Z" fill="white"/>
<path opacity="0.5" d="M11.7137 14.1236C11.5935 14.196 11.4712 14.2651 11.3467 14.3303C11.4865 14.3039 11.6249 14.2737 11.7617 14.2395C11.8827 14.167 12.0019 14.0905 12.1194 14.0103C11.9852 14.0522 11.8499 14.0899 11.7137 14.1236Z" fill="white"/>
<path opacity="0.5" d="M6.33118 1.13241C6.45158 1.05988 6.57439 0.991146 6.69914 0.92572C6.55984 0.951987 6.42117 0.98239 6.28332 1.01686C6.1614 1.08994 6.0419 1.16647 5.9248 1.24644C6.05927 1.20445 6.19471 1.16619 6.33118 1.13241Z" fill="white"/>
</g>
</svg>
