<svg width="24" height="24" viewBox="0 0 24 24" fill="none" xmlns="http://www.w3.org/2000/svg">
<path d="M2 18V6C2 3.79086 3.79086 2 6 2H10V22H6V20H8V4H6C4.89543 4 4 4.89543 4 6V18C4 19.1046 4.89543 20 6 20V22C3.85996 22 2.11211 20.3194 2.00488 18.2061L2 18Z" fill="white"/>
<path d="M18 2C20.2091 2 22 3.79086 22 6V18C22 20.2091 20.2091 22 18 22H10V2H18ZM11.7139 7.40039C11.3983 6.95859 10.8017 6.86894 10.3809 7.2002C9.96033 7.5316 9.87502 8.15786 10.1904 8.59961L12.6201 12L10.1904 15.4004C9.87502 15.8421 9.96033 16.4684 10.3809 16.7998C10.8017 17.1311 11.3983 17.0414 11.7139 16.5996L15 12L11.7139 7.40039Z" fill="white"/>
</svg>
