<svg width="24" height="24" viewBox="0 0 24 24" fill="none" xmlns="http://www.w3.org/2000/svg">
<path d="M2 18V6C2 3.79086 3.79086 2 6 2H10V22H6V20H8V4H6C4.89543 4 4 4.89543 4 6V18C4 19.1046 4.89543 20 6 20V22C3.85996 22 2.11211 20.3194 2.00488 18.2061L2 18Z" fill="white"/>
<path d="M18 2C20.2091 2 22 3.79086 22 6V18C22 20.2091 20.2091 22 18 22H10V2H18ZM14.6191 7.2002C14.1983 6.86894 13.6017 6.95859 13.2861 7.40039L10 12L13.2861 16.5996C13.6017 17.0414 14.1983 17.1311 14.6191 16.7998C15.0397 16.4684 15.125 15.8421 14.8096 15.4004L12.3799 12L14.8096 8.59961C15.125 8.15786 15.0397 7.5316 14.6191 7.2002Z" fill="white"/>
</svg>
