<svg width="24" height="24" viewBox="0 0 24 24" fill="none" xmlns="http://www.w3.org/2000/svg">
<g clip-path="url(#clip0_1785_18316)">
<mask id="mask0_1785_18316" style="mask-type:luminance" maskUnits="userSpaceOnUse" x="0" y="0" width="25" height="24">
<path d="M24.0215 0.0224609H0.0439453V24H24.0215V0.0224609Z" fill="white"/>
</mask>
<g mask="url(#mask0_1785_18316)">
<path d="M20.6952 20.9246L16.4041 19.6469L13.1679 21.5814L10.9101 21.5804L7.67212 19.6469L3.38286 20.9246L2.07812 16.5201L3.38286 11.6317L2.07812 7.49869L3.38286 2.37634L10.0852 6.38065H13.9929L20.6952 2.37634L21.9999 7.49869L20.6952 11.6317L21.9999 16.5201L20.6952 20.9246Z" fill="#FF5C16"/>
<path d="M3.38379 2.37646L10.0861 6.38357L9.81958 9.1336L3.38379 2.37646Z" fill="#FF5C16"/>
<path d="M7.67285 16.5219L10.6218 18.7683L7.67285 19.6467V16.5219Z" fill="#FF5C16"/>
<path d="M10.3861 12.808L9.81935 9.13538L6.19134 11.6326L6.18945 11.6317V11.6336L6.20067 14.2042L7.6719 12.808H7.67284H10.3861Z" fill="#FF5C16"/>
<path d="M20.6955 2.37646L13.9932 6.38357L14.2588 9.1336L20.6955 2.37646Z" fill="#FF5C16"/>
<path d="M16.406 16.5219L13.457 18.7683L16.406 19.6467V16.5219Z" fill="#FF5C16"/>
<path d="M17.8881 11.6336V11.6317L17.8872 11.6326L14.2592 9.13538L13.6924 12.808H16.4057L17.8778 14.2042L17.8881 11.6336Z" fill="#FF5C16"/>
<path d="M7.67212 19.6467L3.38286 20.9245L2.07812 16.5219H7.67212V19.6467Z" fill="#E34807"/>
<path d="M10.3856 12.8073L11.2049 18.1166L10.0695 15.1646L6.19922 14.2043L7.67139 12.8073H10.3847H10.3856Z" fill="#E34807"/>
<path d="M16.4062 19.6467L20.6955 20.9245L22.0002 16.5219H16.4062V19.6467Z" fill="#E34807"/>
<path d="M13.6924 12.8073L12.873 18.1166L14.0085 15.1646L17.8788 14.2043L16.4057 12.8073H13.6924Z" fill="#E34807"/>
<path d="M2.07812 16.52L3.38286 11.6316H6.18876L6.19903 14.2031L10.0693 15.1633L11.2047 18.1153L10.6211 18.7655L7.67215 16.519H2.07812V16.52Z" fill="#FF8D5D"/>
<path d="M21.9997 16.52L20.6949 11.6316H17.8891L17.8788 14.2031L14.0085 15.1633L12.873 18.1153L13.4567 18.7655L16.4057 16.519H21.9997V16.52Z" fill="#FF8D5D"/>
<path d="M13.9926 6.38086H12.0388H10.085L9.81934 9.13089L11.2045 18.1128H12.8731L14.2592 9.13089L13.9926 6.38086Z" fill="#FF8D5D"/>
<path d="M3.38286 2.37634L2.07812 7.49869L3.38286 11.6317H6.18876L9.81865 9.13348L3.38286 2.37634Z" fill="#661800"/>
<path d="M9.57451 13.8733H8.30343L7.61133 14.5516L10.0702 15.1614L9.57451 13.8723V13.8733Z" fill="#661800"/>
<path d="M20.6956 2.37646L22.0003 7.49881L20.6956 11.6318H17.8897L14.2598 9.1336L20.6956 2.37646Z" fill="#661800"/>
<path d="M14.5054 13.8733H15.7784L16.4705 14.5525L14.0088 15.1632L14.5054 13.8723V13.8733Z" fill="#661800"/>
<path d="M13.1669 19.8293L13.4569 18.7676L12.8732 18.1174H11.2037L10.6201 18.7676L10.9101 19.8293" fill="#661800"/>
<path d="M13.167 19.8293V21.5825H10.9102V19.8293H13.167Z" fill="#C0C4CD"/>
<path d="M7.67285 19.6449L10.9118 21.5813V19.8282L10.6218 18.7665L7.67285 19.6449Z" fill="#E7EBF6"/>
<path d="M16.4059 19.6449L13.167 21.5813V19.8282L13.4569 18.7665L16.4059 19.6449Z" fill="#E7EBF6"/>
</g>
</g>
<defs>
<clipPath id="clip0_1785_18316">
<rect width="24" height="24" fill="white"/>
</clipPath>
</defs>
</svg>
