<svg width="20" height="20" viewBox="0 0 20 20" fill="none" xmlns="http://www.w3.org/2000/svg">
<path fill-rule="evenodd" clip-rule="evenodd" d="M10 3.33329C10.4603 3.33329 10.8334 3.70639 10.8334 4.16663L10.8334 9.16661L15.8334 9.16659C16.2936 9.16659 16.6667 9.53969 16.6667 9.99992C16.6667 10.4602 16.2936 10.8333 15.8334 10.8333L10.8334 10.8333V15.8333C10.8334 16.2935 10.4603 16.6666 10 16.6666C9.53979 16.6666 9.16669 16.2935 9.16669 15.8333L9.16669 10.8333L4.16667 10.8333C3.70643 10.8333 3.33333 10.4602 3.33333 9.99993C3.33333 9.5397 3.70643 9.1666 4.16667 9.1666L9.16669 9.16661L9.16669 4.16663C9.16669 3.70639 9.53979 3.33329 10 3.33329Z" fill="#0E1114"/>
</svg>
