<svg width="24" height="24" viewBox="0 0 24 24" fill="none" xmlns="http://www.w3.org/2000/svg">
<path d="M11.2145 2.40846C11.7159 2.19458 12.2835 2.19458 12.7848 2.40846L20.9694 5.89967C21.9336 6.31104 21.9439 7.67407 20.986 8.09987L12.8122 11.7337C12.295 11.9635 11.7043 11.9635 11.1872 11.7337L3.01333 8.09987C2.0554 7.67407 2.06569 6.31104 3.02993 5.89967L11.2145 2.40846Z" fill="#0098E3"/>
<path d="M20.9697 10.7393C21.934 11.1506 21.9443 12.5137 20.9863 12.9395L12.8125 16.5732C12.2954 16.803 11.7045 16.803 11.1875 16.5732L3.01367 12.9395C2.05613 12.5136 2.06642 11.1507 3.03027 10.7393L3.82324 10.4004L6.31836 11.5098L5.50391 11.8574L12 14.7451L18.4951 11.8574L17.6816 11.5098L20.1768 10.4004L20.9697 10.7393Z" fill="#6A7982"/>
<path d="M20.9697 15.7393C21.934 16.1506 21.9443 17.5137 20.9863 17.9395L12.8125 21.5732C12.2954 21.803 11.7045 21.803 11.1875 21.5732L3.01367 17.9395C2.05613 17.5136 2.06642 16.1507 3.03027 15.7393L3.72266 15.4434L6.21777 16.5527L5.50391 16.8574L12 19.7451L18.4951 16.8574L17.7822 16.5527L20.2773 15.4434L20.9697 15.7393Z" fill="#16A730"/>
</svg>
