<svg width="24" height="24" viewBox="0 0 24 24" fill="none" xmlns="http://www.w3.org/2000/svg">
<g clip-path="url(#clip0_1684_24124)">
<path d="M14 1C15.1046 1 16 1.89543 16 3V10H14C12.8954 10 12 10.8954 12 12C12 13.1046 12.8954 14 14 14H16V18C16 19.1046 15.1046 20 14 20H2V1H14Z" fill="#85939C" fill-opacity="0.3"/>
<path d="M23.2929 12.7071L19.8536 16.1464C19.5386 16.4614 19 16.2383 19 15.7929L19 13L14 13C13.4477 13 13 12.5523 13 12C13 11.4477 13.4477 11 14 11L19 11L19 8.20711C19 7.76165 19.5386 7.53857 19.8536 7.85355L23.2929 11.2929C23.6834 11.6834 23.6834 12.3166 23.2929 12.7071Z" fill="#F46050"/>
<path d="M9.81228 4.47212L2 1V20L9.59386 23.375C10.2551 23.669 11 23.1849 11 22.4612V6.29975C11 5.50937 10.5345 4.79313 9.81228 4.47212Z" fill="#85939C"/>
</g>
<defs>
<clipPath id="clip0_1684_24124">
<rect width="24" height="24" fill="white"/>
</clipPath>
</defs>
</svg>
