<svg width="24" height="24" viewBox="0 0 24 24" fill="none" xmlns="http://www.w3.org/2000/svg">
<path d="M5.66481 16.8714C5.72942 16.373 6.15393 16 6.65652 16H17.3435C17.8461 16 18.2706 16.373 18.3352 16.8714L18.8537 20.8714C18.9313 21.4698 18.4653 22 17.862 22H6.138C5.53467 22 5.06873 21.4698 5.14629 20.8714L5.66481 16.8714Z" fill="#6A7982"/>
<path d="M3.48263 2.58335C3.64555 2.22789 4.00069 2 4.3917 2H19.6083C19.9993 2 20.3545 2.22789 20.5174 2.58335L22.3507 6.58335C22.6543 7.24573 22.1703 8 21.4416 8H2.55836C1.82972 8 1.34571 7.24573 1.6493 6.58335L3.48263 2.58335Z" fill="#167DBA"/>
<path d="M3.48263 9.58335C3.64555 9.22789 4.00069 9 4.3917 9H19.6083C19.9993 9 20.3545 9.22789 20.5174 9.58335L22.3507 13.5833C22.6543 14.2457 22.1703 15 21.4416 15H2.55836C1.82972 15 1.34571 14.2457 1.6493 13.5833L3.48263 9.58335Z" fill="#0098E3"/>
</svg>
