<svg width="24" height="24" viewBox="0 0 24 24" fill="none" xmlns="http://www.w3.org/2000/svg">
<path d="M13 16C13 14.151 11.9962 12.5352 10.499 11.6689L10 11.3809V5C10 3.89543 9.10457 3 8 3C6.89543 3 6 3.89543 6 5V11.3809L5.50098 11.6689C4.00382 12.5352 3 14.151 3 16C3 18.7614 5.23858 21 8 21V22C4.68629 22 2 19.3137 2 16C2 13.7793 3.20684 11.8412 5 10.8037V5C5 3.34315 6.34315 2 8 2C9.65685 2 11 3.34315 11 5V10.8037C12.7932 11.8412 14 13.7793 14 16C14 19.3137 11.3137 22 8 22V21C10.7614 21 13 18.7614 13 16Z" fill="#6A7982"/>
<rect x="7" y="5" width="2" height="13" rx="1" fill="#16A730"/>
<circle cx="8" cy="16" r="4" fill="#16A730"/>
<rect x="12" y="2" width="10" height="2" rx="1" fill="#6A7982"/>
<rect x="12" y="8" width="10" height="2" rx="1" fill="#6A7982"/>
<rect x="12" y="5" width="6" height="2" rx="1" fill="#16A730"/>
</svg>
